<?xml version="1.0" encoding="UTF-8" standalone="no"?><svg xmlns="http://www.w3.org/2000/svg" xmlns:xlink="http://www.w3.org/1999/xlink" contentStyleType="text/css" height="1172px" preserveAspectRatio="none" style="width:1795px;height:1172px;background:#FFFFFF;" version="1.1" viewBox="0 0 1795 1172" width="1795px" zoomAndPan="magnify"><defs/><g><rect fill="#FFFFFF" height="335.8672" style="stroke:#181818;stroke-width:1.0;" width="10" x="314.5" y="114.9609"/><rect fill="#FFFFFF" height="335.8672" style="stroke:#181818;stroke-width:1.0;" width="10" x="314.5" y="481.1797"/><rect fill="#FFFFFF" height="233.7578" style="stroke:#181818;stroke-width:1.0;" width="10" x="314.5" y="847.3984"/><rect fill="#FFFFFF" height="275.1641" style="stroke:#181818;stroke-width:1.0;" width="10" x="615.5" y="145.3125"/><rect fill="#FFFFFF" height="275.1641" style="stroke:#181818;stroke-width:1.0;" width="10" x="615.5" y="511.5313"/><rect fill="#FFFFFF" height="194.4063" style="stroke:#181818;stroke-width:1.0;" width="10" x="615.5" y="877.75"/><rect fill="#FFFFFF" height="214.4609" style="stroke:#181818;stroke-width:1.0;" width="10" x="902.5" y="175.6641"/><rect fill="#FFFFFF" height="214.4609" style="stroke:#181818;stroke-width:1.0;" width="10" x="902.5" y="541.8828"/><rect fill="#FFFFFF" height="30" style="stroke:#181818;stroke-width:1.0;" width="10" x="902.5" y="951.4531"/><rect fill="#FFFFFF" height="30" style="stroke:#181818;stroke-width:1.0;" width="10" x="902.5" y="1011.8047"/><rect fill="#FFFFFF" height="30.3516" style="stroke:#181818;stroke-width:1.0;" width="10" x="1083" y="206.0156"/><rect fill="#FFFFFF" height="60.7031" style="stroke:#181818;stroke-width:1.0;" width="10" x="1227" y="292.0703"/><rect fill="#FFFFFF" height="30.3516" style="stroke:#181818;stroke-width:1.0;" width="10" x="1525" y="572.2344"/><rect fill="#FFFFFF" height="60.7031" style="stroke:#181818;stroke-width:1.0;" width="10" x="1654.5" y="658.2891"/><rect height="109.4063" style="stroke:#000000;stroke-width:1.5;fill:none;" width="621" x="811" y="251.3672"/><rect height="109.4063" style="stroke:#000000;stroke-width:1.5;fill:none;" width="978" x="811" y="617.5859"/><line style="stroke:#181818;stroke-width:0.5;fill:none;stroke-dasharray:5.0,5.0;" x1="75" x2="75" y1="82.6094" y2="1090.1563"/><line style="stroke:#181818;stroke-width:0.5;fill:none;stroke-dasharray:5.0,5.0;" x1="319.5" x2="319.5" y1="82.6094" y2="1090.1563"/><line style="stroke:#181818;stroke-width:0.5;fill:none;stroke-dasharray:5.0,5.0;" x1="620.5" x2="620.5" y1="82.6094" y2="1090.1563"/><line style="stroke:#181818;stroke-width:0.5;fill:none;stroke-dasharray:5.0,5.0;" x1="907" x2="907" y1="82.6094" y2="1090.1563"/><line style="stroke:#181818;stroke-width:0.5;fill:none;stroke-dasharray:5.0,5.0;" x1="1088" x2="1088" y1="82.6094" y2="1090.1563"/><line style="stroke:#181818;stroke-width:0.5;fill:none;stroke-dasharray:5.0,5.0;" x1="1232" x2="1232" y1="82.6094" y2="1090.1563"/><line style="stroke:#181818;stroke-width:0.5;fill:none;stroke-dasharray:5.0,5.0;" x1="1357" x2="1357" y1="82.6094" y2="1090.1563"/><line style="stroke:#181818;stroke-width:0.5;fill:none;stroke-dasharray:5.0,5.0;" x1="1530" x2="1530" y1="82.6094" y2="1090.1563"/><line style="stroke:#181818;stroke-width:0.5;fill:none;stroke-dasharray:5.0,5.0;" x1="1659" x2="1659" y1="82.6094" y2="1090.1563"/><line style="stroke:#181818;stroke-width:0.5;fill:none;stroke-dasharray:5.0,5.0;" x1="1742" x2="1742" y1="82.6094" y2="1090.1563"/><text fill="#000000" font-family="sans-serif" font-size="14" lengthAdjust="spacing" textLength="135" x="5" y="79.5332">WarehouseEmployee</text><ellipse cx="75.5" cy="13.5" fill="#E2E2F0" rx="8" ry="8" style="stroke:#181818;stroke-width:0.5;"/><path d="M75.5,21.5 L75.5,48.5 M62.5,29.5 L88.5,29.5 M75.5,48.5 L62.5,63.5 M75.5,48.5 L88.5,63.5 " fill="none" style="stroke:#181818;stroke-width:0.5;"/><text fill="#000000" font-family="sans-serif" font-size="14" lengthAdjust="spacing" textLength="135" x="5" y="1103.6895">WarehouseEmployee</text><ellipse cx="75.5" cy="1115.2656" fill="#E2E2F0" rx="8" ry="8" style="stroke:#181818;stroke-width:0.5;"/><path d="M75.5,1123.2656 L75.5,1150.2656 M62.5,1131.2656 L88.5,1131.2656 M75.5,1150.2656 L62.5,1165.2656 M75.5,1150.2656 L88.5,1165.2656 " fill="none" style="stroke:#181818;stroke-width:0.5;"/><rect fill="#E2E2F0" height="31.6094" rx="2.5" ry="2.5" style="stroke:#181818;stroke-width:0.5;" width="138" x="250.5" y="50"/><text fill="#000000" font-family="sans-serif" font-size="14" lengthAdjust="spacing" textLength="124" x="257.5" y="71.5332">GiveOrderToAGVUI</text><rect fill="#E2E2F0" height="31.6094" rx="2.5" ry="2.5" style="stroke:#181818;stroke-width:0.5;" width="138" x="250.5" y="1089.1563"/><text fill="#000000" font-family="sans-serif" font-size="14" lengthAdjust="spacing" textLength="124" x="257.5" y="1110.6895">GiveOrderToAGVUI</text><rect fill="#E2E2F0" height="31.6094" rx="2.5" ry="2.5" style="stroke:#181818;stroke-width:0.5;" width="188" x="526.5" y="50"/><text fill="#000000" font-family="sans-serif" font-size="14" lengthAdjust="spacing" textLength="174" x="533.5" y="71.5332">GiveOrderToAGVController</text><rect fill="#E2E2F0" height="31.6094" rx="2.5" ry="2.5" style="stroke:#181818;stroke-width:0.5;" width="188" x="526.5" y="1089.1563"/><text fill="#000000" font-family="sans-serif" font-size="14" lengthAdjust="spacing" textLength="174" x="533.5" y="1110.6895">GiveOrderToAGVController</text><rect fill="#E2E2F0" height="31.6094" rx="2.5" ry="2.5" style="stroke:#181818;stroke-width:0.5;" width="173" x="821" y="50"/><text fill="#000000" font-family="sans-serif" font-size="14" lengthAdjust="spacing" textLength="159" x="828" y="71.5332">GiveOrderToAGVService</text><rect fill="#E2E2F0" height="31.6094" rx="2.5" ry="2.5" style="stroke:#181818;stroke-width:0.5;" width="173" x="821" y="1089.1563"/><text fill="#000000" font-family="sans-serif" font-size="14" lengthAdjust="spacing" textLength="159" x="828" y="1110.6895">GiveOrderToAGVService</text><rect fill="#E2E2F0" height="31.6094" rx="2.5" ry="2.5" style="stroke:#181818;stroke-width:0.5;" width="168" x="1004" y="50"/><text fill="#000000" font-family="sans-serif" font-size="14" lengthAdjust="spacing" textLength="154" x="1011" y="71.5332">ProductOrderRepository</text><rect fill="#E2E2F0" height="31.6094" rx="2.5" ry="2.5" style="stroke:#181818;stroke-width:0.5;" width="168" x="1004" y="1089.1563"/><text fill="#000000" font-family="sans-serif" font-size="14" lengthAdjust="spacing" textLength="154" x="1011" y="1110.6895">ProductOrderRepository</text><rect fill="#E2E2F0" height="31.6094" rx="2.5" ry="2.5" style="stroke:#181818;stroke-width:0.5;" width="100" x="1182" y="50"/><text fill="#000000" font-family="sans-serif" font-size="14" lengthAdjust="spacing" textLength="86" x="1189" y="71.5332">ProductOrder</text><rect fill="#E2E2F0" height="31.6094" rx="2.5" ry="2.5" style="stroke:#181818;stroke-width:0.5;" width="100" x="1182" y="1089.1563"/><text fill="#000000" font-family="sans-serif" font-size="14" lengthAdjust="spacing" textLength="86" x="1189" y="1110.6895">ProductOrder</text><rect fill="#E2E2F0" height="31.6094" rx="2.5" ry="2.5" style="stroke:#181818;stroke-width:0.5;" width="130" x="1292" y="50"/><text fill="#000000" font-family="sans-serif" font-size="14" lengthAdjust="spacing" textLength="116" x="1299" y="71.5332">ProductOrderDTO</text><rect fill="#E2E2F0" height="31.6094" rx="2.5" ry="2.5" style="stroke:#181818;stroke-width:0.5;" width="130" x="1292" y="1089.1563"/><text fill="#000000" font-family="sans-serif" font-size="14" lengthAdjust="spacing" textLength="116" x="1299" y="1110.6895">ProductOrderDTO</text><rect fill="#E2E2F0" height="31.6094" rx="2.5" ry="2.5" style="stroke:#181818;stroke-width:0.5;" width="196" x="1432" y="50"/><text fill="#000000" font-family="sans-serif" font-size="14" lengthAdjust="spacing" textLength="182" x="1439" y="71.5332">AGVConfigurationRepository</text><rect fill="#E2E2F0" height="31.6094" rx="2.5" ry="2.5" style="stroke:#181818;stroke-width:0.5;" width="196" x="1432" y="1089.1563"/><text fill="#000000" font-family="sans-serif" font-size="14" lengthAdjust="spacing" textLength="182" x="1439" y="1110.6895">AGVConfigurationRepository</text><rect fill="#E2E2F0" height="31.6094" rx="2.5" ry="2.5" style="stroke:#181818;stroke-width:0.5;" width="43" x="1638" y="50"/><text fill="#000000" font-family="sans-serif" font-size="14" lengthAdjust="spacing" textLength="29" x="1645" y="71.5332">AGV</text><rect fill="#E2E2F0" height="31.6094" rx="2.5" ry="2.5" style="stroke:#181818;stroke-width:0.5;" width="43" x="1638" y="1089.1563"/><text fill="#000000" font-family="sans-serif" font-size="14" lengthAdjust="spacing" textLength="29" x="1645" y="1110.6895">AGV</text><rect fill="#E2E2F0" height="31.6094" rx="2.5" ry="2.5" style="stroke:#181818;stroke-width:0.5;" width="73" x="1706" y="50"/><text fill="#000000" font-family="sans-serif" font-size="14" lengthAdjust="spacing" textLength="59" x="1713" y="71.5332">AGVDTO</text><rect fill="#E2E2F0" height="31.6094" rx="2.5" ry="2.5" style="stroke:#181818;stroke-width:0.5;" width="73" x="1706" y="1089.1563"/><text fill="#000000" font-family="sans-serif" font-size="14" lengthAdjust="spacing" textLength="59" x="1713" y="1110.6895">AGVDTO</text><rect fill="#FFFFFF" height="335.8672" style="stroke:#181818;stroke-width:1.0;" width="10" x="314.5" y="114.9609"/><rect fill="#FFFFFF" height="335.8672" style="stroke:#181818;stroke-width:1.0;" width="10" x="314.5" y="481.1797"/><rect fill="#FFFFFF" height="233.7578" style="stroke:#181818;stroke-width:1.0;" width="10" x="314.5" y="847.3984"/><rect fill="#FFFFFF" height="275.1641" style="stroke:#181818;stroke-width:1.0;" width="10" x="615.5" y="145.3125"/><rect fill="#FFFFFF" height="275.1641" style="stroke:#181818;stroke-width:1.0;" width="10" x="615.5" y="511.5313"/><rect fill="#FFFFFF" height="194.4063" style="stroke:#181818;stroke-width:1.0;" width="10" x="615.5" y="877.75"/><rect fill="#FFFFFF" height="214.4609" style="stroke:#181818;stroke-width:1.0;" width="10" x="902.5" y="175.6641"/><rect fill="#FFFFFF" height="214.4609" style="stroke:#181818;stroke-width:1.0;" width="10" x="902.5" y="541.8828"/><rect fill="#FFFFFF" height="30" style="stroke:#181818;stroke-width:1.0;" width="10" x="902.5" y="951.4531"/><rect fill="#FFFFFF" height="30" style="stroke:#181818;stroke-width:1.0;" width="10" x="902.5" y="1011.8047"/><rect fill="#FFFFFF" height="30.3516" style="stroke:#181818;stroke-width:1.0;" width="10" x="1083" y="206.0156"/><rect fill="#FFFFFF" height="60.7031" style="stroke:#181818;stroke-width:1.0;" width="10" x="1227" y="292.0703"/><rect fill="#FFFFFF" height="30.3516" style="stroke:#181818;stroke-width:1.0;" width="10" x="1525" y="572.2344"/><rect fill="#FFFFFF" height="60.7031" style="stroke:#181818;stroke-width:1.0;" width="10" x="1654.5" y="658.2891"/><polygon fill="#181818" points="302.5,110.9609,312.5,114.9609,302.5,118.9609,306.5,114.9609" style="stroke:#181818;stroke-width:1.0;"/><line style="stroke:#181818;stroke-width:1.0;" x1="75.5" x2="308.5" y1="114.9609" y2="114.9609"/><text fill="#000000" font-family="sans-serif" font-size="13" font-weight="bold" lengthAdjust="spacing" textLength="7" x="82.5" y="110.1045">1</text><text fill="#000000" font-family="sans-serif" font-size="13" lengthAdjust="spacing" textLength="118" x="93.5" y="110.1045">"Give Order to AGV"</text><polygon fill="#181818" points="603.5,141.3125,613.5,145.3125,603.5,149.3125,607.5,145.3125" style="stroke:#181818;stroke-width:1.0;"/><line style="stroke:#181818;stroke-width:1.0;" x1="324.5" x2="609.5" y1="145.3125" y2="145.3125"/><text fill="#000000" font-family="sans-serif" font-size="13" font-weight="bold" lengthAdjust="spacing" textLength="7" x="331.5" y="140.4561">2</text><text fill="#000000" font-family="sans-serif" font-size="13" lengthAdjust="spacing" textLength="142" x="342.5" y="140.4561">allToBePreparedOrders()</text><polygon fill="#181818" points="890.5,171.6641,900.5,175.6641,890.5,179.6641,894.5,175.6641" style="stroke:#181818;stroke-width:1.0;"/><line style="stroke:#181818;stroke-width:1.0;" x1="625.5" x2="896.5" y1="175.6641" y2="175.6641"/><text fill="#000000" font-family="sans-serif" font-size="13" font-weight="bold" lengthAdjust="spacing" textLength="7" x="632.5" y="170.8076">3</text><text fill="#000000" font-family="sans-serif" font-size="13" lengthAdjust="spacing" textLength="142" x="643.5" y="170.8076">allToBePreparedOrders()</text><polygon fill="#181818" points="1071,202.0156,1081,206.0156,1071,210.0156,1075,206.0156" style="stroke:#181818;stroke-width:1.0;"/><line style="stroke:#181818;stroke-width:1.0;" x1="912.5" x2="1077" y1="206.0156" y2="206.0156"/><text fill="#000000" font-family="sans-serif" font-size="13" font-weight="bold" lengthAdjust="spacing" textLength="7" x="919.5" y="201.1592">4</text><text fill="#000000" font-family="sans-serif" font-size="13" lengthAdjust="spacing" textLength="110" x="930.5" y="201.1592">findToBePrepared()</text><polygon fill="#181818" points="923.5,232.3672,913.5,236.3672,923.5,240.3672,919.5,236.3672" style="stroke:#181818;stroke-width:1.0;"/><line style="stroke:#181818;stroke-width:1.0;stroke-dasharray:2.0,2.0;" x1="917.5" x2="1087" y1="236.3672" y2="236.3672"/><text fill="#000000" font-family="sans-serif" font-size="13" font-weight="bold" lengthAdjust="spacing" textLength="7" x="929.5" y="231.5107">5</text><text fill="#000000" font-family="sans-serif" font-size="13" lengthAdjust="spacing" textLength="135" x="940.5" y="231.5107">Iterable&lt;ProductOrder&gt;</text><path d="M811,251.3672 L884,251.3672 L884,259.7188 L874,269.7188 L811,269.7188 L811,251.3672 " fill="#EEEEEE" style="stroke:#000000;stroke-width:1.5;"/><rect fill="none" height="109.4063" style="stroke:#000000;stroke-width:1.5;" width="621" x="811" y="251.3672"/><text fill="#000000" font-family="sans-serif" font-size="13" font-weight="bold" lengthAdjust="spacing" textLength="28" x="826" y="265.8623">loop</text><text fill="#000000" font-family="sans-serif" font-size="11" font-weight="bold" lengthAdjust="spacing" textLength="128" x="899" y="264.7861">[foreach ProductOrder]</text><polygon fill="#181818" points="1215,288.0703,1225,292.0703,1215,296.0703,1219,292.0703" style="stroke:#181818;stroke-width:1.0;"/><line style="stroke:#181818;stroke-width:1.0;" x1="912.5" x2="1221" y1="292.0703" y2="292.0703"/><text fill="#000000" font-family="sans-serif" font-size="13" font-weight="bold" lengthAdjust="spacing" textLength="7" x="919.5" y="287.2139">6</text><text fill="#000000" font-family="sans-serif" font-size="13" lengthAdjust="spacing" textLength="77" x="930.5" y="287.2139">toOrderDTO()</text><polygon fill="#181818" points="1345,318.4219,1355,322.4219,1345,326.4219,1349,322.4219" style="stroke:#181818;stroke-width:1.0;"/><line style="stroke:#181818;stroke-width:1.0;" x1="1237" x2="1351" y1="322.4219" y2="322.4219"/><text fill="#000000" font-family="sans-serif" font-size="13" font-weight="bold" lengthAdjust="spacing" textLength="7" x="1244" y="317.5654">7</text><text fill="#000000" font-family="sans-serif" font-size="13" lengthAdjust="spacing" textLength="36" x="1255" y="317.5654">create</text><polygon fill="#181818" points="923.5,348.7734,913.5,352.7734,923.5,356.7734,919.5,352.7734" style="stroke:#181818;stroke-width:1.0;"/><line style="stroke:#181818;stroke-width:1.0;stroke-dasharray:2.0,2.0;" x1="917.5" x2="1231" y1="352.7734" y2="352.7734"/><text fill="#000000" font-family="sans-serif" font-size="13" font-weight="bold" lengthAdjust="spacing" textLength="7" x="929.5" y="347.917">8</text><text fill="#000000" font-family="sans-serif" font-size="13" lengthAdjust="spacing" textLength="103" x="940.5" y="347.917">ProductOrderDTO</text><polygon fill="#181818" points="636.5,386.125,626.5,390.125,636.5,394.125,632.5,390.125" style="stroke:#181818;stroke-width:1.0;"/><line style="stroke:#181818;stroke-width:1.0;" x1="630.5" x2="906.5" y1="390.125" y2="390.125"/><text fill="#000000" font-family="sans-serif" font-size="13" font-weight="bold" lengthAdjust="spacing" textLength="7" x="642.5" y="385.2686">9</text><text fill="#000000" font-family="sans-serif" font-size="13" lengthAdjust="spacing" textLength="161" x="653.5" y="385.2686">Iterable&lt;ProductOrderDTO&gt;</text><polygon fill="#181818" points="335.5,416.4766,325.5,420.4766,335.5,424.4766,331.5,420.4766" style="stroke:#181818;stroke-width:1.0;"/><line style="stroke:#181818;stroke-width:1.0;stroke-dasharray:2.0,2.0;" x1="329.5" x2="619.5" y1="420.4766" y2="420.4766"/><text fill="#000000" font-family="sans-serif" font-size="13" font-weight="bold" lengthAdjust="spacing" textLength="14" x="341.5" y="415.6201">10</text><text fill="#000000" font-family="sans-serif" font-size="13" lengthAdjust="spacing" textLength="161" x="359.5" y="415.6201">Iterable&lt;ProductOrderDTO&gt;</text><polygon fill="#181818" points="86.5,446.8281,76.5,450.8281,86.5,454.8281,82.5,450.8281" style="stroke:#181818;stroke-width:1.0;"/><line style="stroke:#181818;stroke-width:1.0;stroke-dasharray:2.0,2.0;" x1="80.5" x2="318.5" y1="450.8281" y2="450.8281"/><text fill="#000000" font-family="sans-serif" font-size="13" font-weight="bold" lengthAdjust="spacing" textLength="14" x="92.5" y="445.9717">11</text><text fill="#000000" font-family="sans-serif" font-size="13" lengthAdjust="spacing" textLength="121" x="110.5" y="445.9717">Shows List of Orders</text><polygon fill="#181818" points="302.5,477.1797,312.5,481.1797,302.5,485.1797,306.5,481.1797" style="stroke:#181818;stroke-width:1.0;"/><line style="stroke:#181818;stroke-width:1.0;" x1="75.5" x2="308.5" y1="481.1797" y2="481.1797"/><text fill="#000000" font-family="sans-serif" font-size="13" font-weight="bold" lengthAdjust="spacing" textLength="14" x="82.5" y="476.3232">12</text><text fill="#000000" font-family="sans-serif" font-size="13" lengthAdjust="spacing" textLength="91" x="100.5" y="476.3232">Selects 1 Order</text><polygon fill="#181818" points="603.5,507.5313,613.5,511.5313,603.5,515.5313,607.5,511.5313" style="stroke:#181818;stroke-width:1.0;"/><line style="stroke:#181818;stroke-width:1.0;" x1="324.5" x2="609.5" y1="511.5313" y2="511.5313"/><text fill="#000000" font-family="sans-serif" font-size="13" font-weight="bold" lengthAdjust="spacing" textLength="14" x="331.5" y="506.6748">13</text><text fill="#000000" font-family="sans-serif" font-size="13" lengthAdjust="spacing" textLength="107" x="349.5" y="506.6748">allAvailableAGVs()</text><polygon fill="#181818" points="890.5,537.8828,900.5,541.8828,890.5,545.8828,894.5,541.8828" style="stroke:#181818;stroke-width:1.0;"/><line style="stroke:#181818;stroke-width:1.0;" x1="625.5" x2="896.5" y1="541.8828" y2="541.8828"/><text fill="#000000" font-family="sans-serif" font-size="13" font-weight="bold" lengthAdjust="spacing" textLength="14" x="632.5" y="537.0264">14</text><text fill="#000000" font-family="sans-serif" font-size="13" lengthAdjust="spacing" textLength="107" x="650.5" y="537.0264">allAvailableAGVs()</text><polygon fill="#181818" points="1513,568.2344,1523,572.2344,1513,576.2344,1517,572.2344" style="stroke:#181818;stroke-width:1.0;"/><line style="stroke:#181818;stroke-width:1.0;" x1="912.5" x2="1519" y1="572.2344" y2="572.2344"/><text fill="#000000" font-family="sans-serif" font-size="13" font-weight="bold" lengthAdjust="spacing" textLength="14" x="919.5" y="567.3779">15</text><text fill="#000000" font-family="sans-serif" font-size="13" lengthAdjust="spacing" textLength="79" x="937.5" y="567.3779">findAvailable()</text><polygon fill="#181818" points="923.5,598.5859,913.5,602.5859,923.5,606.5859,919.5,602.5859" style="stroke:#181818;stroke-width:1.0;"/><line style="stroke:#181818;stroke-width:1.0;stroke-dasharray:2.0,2.0;" x1="917.5" x2="1529" y1="602.5859" y2="602.5859"/><text fill="#000000" font-family="sans-serif" font-size="13" font-weight="bold" lengthAdjust="spacing" textLength="14" x="929.5" y="597.7295">16</text><text fill="#000000" font-family="sans-serif" font-size="13" lengthAdjust="spacing" textLength="86" x="947.5" y="597.7295">Iterable&lt;AGV&gt;</text><path d="M811,617.5859 L884,617.5859 L884,625.9375 L874,635.9375 L811,635.9375 L811,617.5859 " fill="#EEEEEE" style="stroke:#000000;stroke-width:1.5;"/><rect fill="none" height="109.4063" style="stroke:#000000;stroke-width:1.5;" width="978" x="811" y="617.5859"/><text fill="#000000" font-family="sans-serif" font-size="13" font-weight="bold" lengthAdjust="spacing" textLength="28" x="826" y="632.0811">loop</text><text fill="#000000" font-family="sans-serif" font-size="11" font-weight="bold" lengthAdjust="spacing" textLength="77" x="899" y="631.0049">[foreach AGV]</text><polygon fill="#181818" points="1642.5,654.2891,1652.5,658.2891,1642.5,662.2891,1646.5,658.2891" style="stroke:#181818;stroke-width:1.0;"/><line style="stroke:#181818;stroke-width:1.0;" x1="912.5" x2="1648.5" y1="658.2891" y2="658.2891"/><text fill="#000000" font-family="sans-serif" font-size="13" font-weight="bold" lengthAdjust="spacing" textLength="14" x="919.5" y="653.4326">17</text><text fill="#000000" font-family="sans-serif" font-size="13" lengthAdjust="spacing" textLength="73" x="937.5" y="653.4326">toAGVDTO()</text><polygon fill="#181818" points="1730.5,684.6406,1740.5,688.6406,1730.5,692.6406,1734.5,688.6406" style="stroke:#181818;stroke-width:1.0;"/><line style="stroke:#181818;stroke-width:1.0;" x1="1664.5" x2="1736.5" y1="688.6406" y2="688.6406"/><text fill="#000000" font-family="sans-serif" font-size="13" font-weight="bold" lengthAdjust="spacing" textLength="14" x="1671.5" y="683.7842">18</text><text fill="#000000" font-family="sans-serif" font-size="13" lengthAdjust="spacing" textLength="36" x="1689.5" y="683.7842">create</text><polygon fill="#181818" points="923.5,714.9922,913.5,718.9922,923.5,722.9922,919.5,718.9922" style="stroke:#181818;stroke-width:1.0;"/><line style="stroke:#181818;stroke-width:1.0;stroke-dasharray:2.0,2.0;" x1="917.5" x2="1658.5" y1="718.9922" y2="718.9922"/><text fill="#000000" font-family="sans-serif" font-size="13" font-weight="bold" lengthAdjust="spacing" textLength="14" x="929.5" y="714.1357">19</text><text fill="#000000" font-family="sans-serif" font-size="13" lengthAdjust="spacing" textLength="54" x="947.5" y="714.1357">AGVDTO</text><polygon fill="#181818" points="636.5,752.3438,626.5,756.3438,636.5,760.3438,632.5,756.3438" style="stroke:#181818;stroke-width:1.0;"/><line style="stroke:#181818;stroke-width:1.0;" x1="630.5" x2="906.5" y1="756.3438" y2="756.3438"/><text fill="#000000" font-family="sans-serif" font-size="13" font-weight="bold" lengthAdjust="spacing" textLength="14" x="642.5" y="751.4873">20</text><text fill="#000000" font-family="sans-serif" font-size="13" lengthAdjust="spacing" textLength="112" x="660.5" y="751.4873">Iterable&lt;AGVDTO&gt;</text><polygon fill="#181818" points="335.5,782.6953,325.5,786.6953,335.5,790.6953,331.5,786.6953" style="stroke:#181818;stroke-width:1.0;"/><line style="stroke:#181818;stroke-width:1.0;stroke-dasharray:2.0,2.0;" x1="329.5" x2="619.5" y1="786.6953" y2="786.6953"/><text fill="#000000" font-family="sans-serif" font-size="13" font-weight="bold" lengthAdjust="spacing" textLength="14" x="341.5" y="781.8389">21</text><text fill="#000000" font-family="sans-serif" font-size="13" lengthAdjust="spacing" textLength="112" x="359.5" y="781.8389">Iterable&lt;AGVDTO&gt;</text><polygon fill="#181818" points="86.5,813.0469,76.5,817.0469,86.5,821.0469,82.5,817.0469" style="stroke:#181818;stroke-width:1.0;"/><line style="stroke:#181818;stroke-width:1.0;stroke-dasharray:2.0,2.0;" x1="80.5" x2="318.5" y1="817.0469" y2="817.0469"/><text fill="#000000" font-family="sans-serif" font-size="13" font-weight="bold" lengthAdjust="spacing" textLength="14" x="92.5" y="812.1904">22</text><text fill="#000000" font-family="sans-serif" font-size="13" lengthAdjust="spacing" textLength="117" x="110.5" y="812.1904">Shows List of AGVs</text><polygon fill="#181818" points="302.5,843.3984,312.5,847.3984,302.5,851.3984,306.5,847.3984" style="stroke:#181818;stroke-width:1.0;"/><line style="stroke:#181818;stroke-width:1.0;" x1="75.5" x2="308.5" y1="847.3984" y2="847.3984"/><text fill="#000000" font-family="sans-serif" font-size="13" font-weight="bold" lengthAdjust="spacing" textLength="14" x="82.5" y="842.542">23</text><text fill="#000000" font-family="sans-serif" font-size="13" lengthAdjust="spacing" textLength="87" x="100.5" y="842.542">Selects 1 AGV</text><polygon fill="#181818" points="603.5,873.75,613.5,877.75,603.5,881.75,607.5,877.75" style="stroke:#181818;stroke-width:1.0;"/><line style="stroke:#181818;stroke-width:1.0;" x1="324.5" x2="609.5" y1="877.75" y2="877.75"/><text fill="#000000" font-family="sans-serif" font-size="13" font-weight="bold" lengthAdjust="spacing" textLength="14" x="331.5" y="872.8936">24</text><text fill="#000000" font-family="sans-serif" font-size="13" lengthAdjust="spacing" textLength="254" x="349.5" y="872.8936">giveOrderToAGV(agvDTO,productOrderDTO)</text><line style="stroke:#181818;stroke-width:1.0;" x1="625.5" x2="667.5" y1="908.1016" y2="908.1016"/><line style="stroke:#181818;stroke-width:1.0;" x1="667.5" x2="667.5" y1="908.1016" y2="921.1016"/><line style="stroke:#181818;stroke-width:1.0;" x1="626.5" x2="667.5" y1="921.1016" y2="921.1016"/><polygon fill="#181818" points="636.5,917.1016,626.5,921.1016,636.5,925.1016,632.5,921.1016" style="stroke:#181818;stroke-width:1.0;"/><text fill="#000000" font-family="sans-serif" font-size="13" font-weight="bold" lengthAdjust="spacing" textLength="14" x="632.5" y="903.2451">25</text><text fill="#000000" font-family="sans-serif" font-size="13" lengthAdjust="spacing" textLength="223" x="650.5" y="903.2451">transforms (agvDTO,productOrderDTO)</text><polygon fill="#181818" points="890.5,947.4531,900.5,951.4531,890.5,955.4531,894.5,951.4531" style="stroke:#181818;stroke-width:1.0;"/><line style="stroke:#181818;stroke-width:1.0;" x1="625.5" x2="896.5" y1="951.4531" y2="951.4531"/><text fill="#000000" font-family="sans-serif" font-size="13" font-weight="bold" lengthAdjust="spacing" textLength="14" x="632.5" y="946.5967">26</text><text fill="#000000" font-family="sans-serif" font-size="13" lengthAdjust="spacing" textLength="163" x="650.5" y="946.5967">changeAGVTaskStatus(agv)</text><polygon fill="#181818" points="890.5,1007.8047,900.5,1011.8047,890.5,1015.8047,894.5,1011.8047" style="stroke:#181818;stroke-width:1.0;"/><line style="stroke:#181818;stroke-width:1.0;" x1="625.5" x2="896.5" y1="1011.8047" y2="1011.8047"/><text fill="#000000" font-family="sans-serif" font-size="13" font-weight="bold" lengthAdjust="spacing" textLength="14" x="632.5" y="1006.9482">27</text><text fill="#000000" font-family="sans-serif" font-size="13" lengthAdjust="spacing" textLength="240" x="650.5" y="1006.9482">changeProductOrderStatus(productOrder)</text><polygon fill="#181818" points="86.5,1068.1563,76.5,1072.1563,86.5,1076.1563,82.5,1072.1563" style="stroke:#181818;stroke-width:1.0;"/><line style="stroke:#181818;stroke-width:1.0;stroke-dasharray:2.0,2.0;" x1="80.5" x2="313.5" y1="1072.1563" y2="1072.1563"/><text fill="#000000" font-family="sans-serif" font-size="13" font-weight="bold" lengthAdjust="spacing" textLength="14" x="92.5" y="1067.2998">28</text><text fill="#000000" font-family="sans-serif" font-size="13" lengthAdjust="spacing" textLength="197" x="110.5" y="1067.2998">Show that AGV is preparing Order</text><!--MD5=[fac43259a05bfc217f6a2fd7f5b7675a]
@startuml
'https://plantuml.com/sequence-diagram

autonumber
actor WarehouseEmployee

participant GiveOrderToAGVUI as UI

participant GiveOrderToAGVController as C

participant GiveOrderToAGVService as S

participant ProductOrderRepository as OR

participant ProductOrder as PO

participant ProductOrderDTO as DTO1

participant AGVConfigurationRepository as CR

participant AGV

participant AGVDTO as DTO2



WarehouseEmployee -> UI: "Give Order to AGV"
activate UI

UI -> C :allToBePreparedOrders()

activate C

C -> S:allToBePreparedOrders()

activate S

S -> OR :findToBePrepared()

activate OR

OR - -> S:Iterable<ProductOrder>
deactivate OR


loop foreach ProductOrder

S -> PO: toOrderDTO()
activate PO
PO -> DTO1: create
PO - -> S: ProductOrderDTO
deactivate PO
end
S -> C : Iterable<ProductOrderDTO>
deactivate S
C - -> UI: Iterable<ProductOrderDTO>
deactivate C
UI - -> WarehouseEmployee: Shows List of Orders
deactivate UI


WarehouseEmployee -> UI: Selects 1 Order
activate UI

UI -> C :allAvailableAGVs()

activate C

C -> S: allAvailableAGVs()

activate S

S -> CR :findAvailable()

activate CR

CR - -> S:Iterable<AGV>
deactivate CR


loop foreach AGV

S -> AGV: toAGVDTO()
activate AGV
AGV -> DTO2: create
AGV - -> S: AGVDTO
deactivate AGV
end
S -> C : Iterable<AGVDTO>
deactivate S
C - -> UI: Iterable<AGVDTO>
deactivate C




WarehouseEmployee <- - UI: Shows List of AGVs
deactivate
WarehouseEmployee -> UI: Selects 1 AGV
activate UI

UI -> C :giveOrderToAGV(agvDTO,productOrderDTO)
activate C

C -> C:transforms (agvDTO,productOrderDTO)

C -> S:changeAGVTaskStatus(agv)
activate S

deactivate S

C -> S:changeProductOrderStatus(productOrder)
activate S

deactivate S

WarehouseEmployee <- - UI: Show that AGV is preparing Order
deactivate
@enduml

@startuml

autonumber
actor WarehouseEmployee

participant GiveOrderToAGVUI as UI

participant GiveOrderToAGVController as C

participant GiveOrderToAGVService as S

participant ProductOrderRepository as OR

participant ProductOrder as PO

participant ProductOrderDTO as DTO1

participant AGVConfigurationRepository as CR

participant AGV

participant AGVDTO as DTO2



WarehouseEmployee -> UI: "Give Order to AGV"
activate UI

UI -> C :allToBePreparedOrders()

activate C

C -> S:allToBePreparedOrders()

activate S

S -> OR :findToBePrepared()

activate OR

OR - -> S:Iterable<ProductOrder>
deactivate OR


loop foreach ProductOrder

S -> PO: toOrderDTO()
activate PO
PO -> DTO1: create
PO - -> S: ProductOrderDTO
deactivate PO
end
S -> C : Iterable<ProductOrderDTO>
deactivate S
C - -> UI: Iterable<ProductOrderDTO>
deactivate C
UI - -> WarehouseEmployee: Shows List of Orders
deactivate UI


WarehouseEmployee -> UI: Selects 1 Order
activate UI

UI -> C :allAvailableAGVs()

activate C

C -> S: allAvailableAGVs()

activate S

S -> CR :findAvailable()

activate CR

CR - -> S:Iterable<AGV>
deactivate CR


loop foreach AGV

S -> AGV: toAGVDTO()
activate AGV
AGV -> DTO2: create
AGV - -> S: AGVDTO
deactivate AGV
end
S -> C : Iterable<AGVDTO>
deactivate S
C - -> UI: Iterable<AGVDTO>
deactivate C




WarehouseEmployee <- - UI: Shows List of AGVs
deactivate
WarehouseEmployee -> UI: Selects 1 AGV
activate UI

UI -> C :giveOrderToAGV(agvDTO,productOrderDTO)
activate C

C -> C:transforms (agvDTO,productOrderDTO)

C -> S:changeAGVTaskStatus(agv)
activate S

deactivate S

C -> S:changeProductOrderStatus(productOrder)
activate S

deactivate S

WarehouseEmployee <- - UI: Show that AGV is preparing Order
deactivate
@enduml

PlantUML version 1.2022.4(Sat Apr 09 14:29:17 BST 2022)
(GPL source distribution)
Java Runtime: OpenJDK Runtime Environment
JVM: OpenJDK 64-Bit Server VM
Default Encoding: Cp1252
Language: pt
Country: PT
--></g></svg>