<?xml version="1.0" encoding="UTF-8" standalone="no"?><svg xmlns="http://www.w3.org/2000/svg" xmlns:xlink="http://www.w3.org/1999/xlink" contentStyleType="text/css" height="1795px" preserveAspectRatio="none" style="width:1825px;height:1795px;background:#FFFFFF;" version="1.1" viewBox="0 0 1825 1795" width="1825px" zoomAndPan="magnify"><defs/><g><rect fill="#FFFFFF" height="335.8672" style="stroke:#181818;stroke-width:1.0;" width="10" x="314.5" y="114.9609"/><rect fill="#FFFFFF" height="335.8672" style="stroke:#181818;stroke-width:1.0;" width="10" x="314.5" y="481.1797"/><rect fill="#FFFFFF" height="857.0859" style="stroke:#181818;stroke-width:1.0;" width="10" x="314.5" y="847.3984"/><rect fill="#FFFFFF" height="275.1641" style="stroke:#181818;stroke-width:1.0;" width="10" x="615.5" y="145.3125"/><rect fill="#FFFFFF" height="275.1641" style="stroke:#181818;stroke-width:1.0;" width="10" x="615.5" y="511.5313"/><rect fill="#FFFFFF" height="817.7344" style="stroke:#181818;stroke-width:1.0;" width="10" x="615.5" y="877.75"/><rect fill="#FFFFFF" height="214.4609" style="stroke:#181818;stroke-width:1.0;" width="10" x="932.5" y="175.6641"/><rect fill="#FFFFFF" height="214.4609" style="stroke:#181818;stroke-width:1.0;" width="10" x="932.5" y="541.8828"/><rect fill="#FFFFFF" height="91.0547" style="stroke:#181818;stroke-width:1.0;" width="10" x="932.5" y="908.1016"/><rect fill="#FFFFFF" height="91.0547" style="stroke:#181818;stroke-width:1.0;" width="10" x="932.5" y="1029.5078"/><rect fill="#FFFFFF" height="182.1094" style="stroke:#181818;stroke-width:1.0;" width="10" x="932.5" y="1452.6719"/><rect fill="#FFFFFF" height="30.3516" style="stroke:#181818;stroke-width:1.0;" width="10" x="1113" y="206.0156"/><rect fill="#FFFFFF" height="30" style="stroke:#181818;stroke-width:1.0;" width="10" x="1113" y="1392.3203"/><rect fill="#FFFFFF" height="60.7031" style="stroke:#181818;stroke-width:1.0;" width="10" x="1257" y="292.0703"/><rect fill="#FFFFFF" height="30" style="stroke:#181818;stroke-width:1.0;" width="10" x="1257" y="1331.9688"/><rect fill="#FFFFFF" height="30.3516" style="stroke:#181818;stroke-width:1.0;" width="10" x="1555" y="572.2344"/><rect fill="#FFFFFF" height="30.3516" style="stroke:#181818;stroke-width:1.0;" width="10" x="1555" y="938.4531"/><rect fill="#FFFFFF" height="30.3516" style="stroke:#181818;stroke-width:1.0;" width="10" x="1555" y="1059.8594"/><rect fill="#FFFFFF" height="30" style="stroke:#181818;stroke-width:1.0;" width="10" x="1555" y="1271.6172"/><rect fill="#FFFFFF" height="30.3516" style="stroke:#181818;stroke-width:1.0;" width="10" x="1555" y="1483.0234"/><rect fill="#FFFFFF" height="60.7031" style="stroke:#181818;stroke-width:1.0;" width="10" x="1684.5" y="658.2891"/><rect fill="#FFFFFF" height="30" style="stroke:#181818;stroke-width:1.0;" width="10" x="1684.5" y="1150.9141"/><rect fill="#FFFFFF" height="30" style="stroke:#181818;stroke-width:1.0;" width="10" x="1684.5" y="1211.2656"/><rect fill="#FFFFFF" height="60.7031" style="stroke:#181818;stroke-width:1.0;" width="10" x="1684.5" y="1543.7266"/><rect height="109.4063" style="stroke:#000000;stroke-width:1.5;fill:none;" width="621" x="841" y="251.3672"/><rect height="109.4063" style="stroke:#000000;stroke-width:1.5;fill:none;" width="978" x="841" y="617.5859"/><line style="stroke:#181818;stroke-width:0.5;fill:none;stroke-dasharray:5.0,5.0;" x1="75" x2="75" y1="82.6094" y2="1713.4844"/><line style="stroke:#181818;stroke-width:0.5;fill:none;stroke-dasharray:5.0,5.0;" x1="319.5" x2="319.5" y1="82.6094" y2="1713.4844"/><line style="stroke:#181818;stroke-width:0.5;fill:none;stroke-dasharray:5.0,5.0;" x1="620.5" x2="620.5" y1="82.6094" y2="1713.4844"/><line style="stroke:#181818;stroke-width:0.5;fill:none;stroke-dasharray:5.0,5.0;" x1="937" x2="937" y1="82.6094" y2="1713.4844"/><line style="stroke:#181818;stroke-width:0.5;fill:none;stroke-dasharray:5.0,5.0;" x1="1118" x2="1118" y1="82.6094" y2="1713.4844"/><line style="stroke:#181818;stroke-width:0.5;fill:none;stroke-dasharray:5.0,5.0;" x1="1262" x2="1262" y1="82.6094" y2="1713.4844"/><line style="stroke:#181818;stroke-width:0.5;fill:none;stroke-dasharray:5.0,5.0;" x1="1387" x2="1387" y1="82.6094" y2="1713.4844"/><line style="stroke:#181818;stroke-width:0.5;fill:none;stroke-dasharray:5.0,5.0;" x1="1560" x2="1560" y1="82.6094" y2="1713.4844"/><line style="stroke:#181818;stroke-width:0.5;fill:none;stroke-dasharray:5.0,5.0;" x1="1689" x2="1689" y1="82.6094" y2="1713.4844"/><line style="stroke:#181818;stroke-width:0.5;fill:none;stroke-dasharray:5.0,5.0;" x1="1772" x2="1772" y1="82.6094" y2="1713.4844"/><text fill="#000000" font-family="sans-serif" font-size="14" lengthAdjust="spacing" textLength="135" x="5" y="79.5332">WarehouseEmployee</text><ellipse cx="75.5" cy="13.5" fill="#E2E2F0" rx="8" ry="8" style="stroke:#181818;stroke-width:0.5;"/><path d="M75.5,21.5 L75.5,48.5 M62.5,29.5 L88.5,29.5 M75.5,48.5 L62.5,63.5 M75.5,48.5 L88.5,63.5 " fill="none" style="stroke:#181818;stroke-width:0.5;"/><text fill="#000000" font-family="sans-serif" font-size="14" lengthAdjust="spacing" textLength="135" x="5" y="1727.0176">WarehouseEmployee</text><ellipse cx="75.5" cy="1738.5938" fill="#E2E2F0" rx="8" ry="8" style="stroke:#181818;stroke-width:0.5;"/><path d="M75.5,1746.5938 L75.5,1773.5938 M62.5,1754.5938 L88.5,1754.5938 M75.5,1773.5938 L62.5,1788.5938 M75.5,1773.5938 L88.5,1788.5938 " fill="none" style="stroke:#181818;stroke-width:0.5;"/><rect fill="#E2E2F0" height="31.6094" rx="2.5" ry="2.5" style="stroke:#181818;stroke-width:0.5;" width="138" x="250.5" y="50"/><text fill="#000000" font-family="sans-serif" font-size="14" lengthAdjust="spacing" textLength="124" x="257.5" y="71.5332">GiveOrderToAGVUI</text><rect fill="#E2E2F0" height="31.6094" rx="2.5" ry="2.5" style="stroke:#181818;stroke-width:0.5;" width="138" x="250.5" y="1712.4844"/><text fill="#000000" font-family="sans-serif" font-size="14" lengthAdjust="spacing" textLength="124" x="257.5" y="1734.0176">GiveOrderToAGVUI</text><rect fill="#E2E2F0" height="31.6094" rx="2.5" ry="2.5" style="stroke:#181818;stroke-width:0.5;" width="188" x="526.5" y="50"/><text fill="#000000" font-family="sans-serif" font-size="14" lengthAdjust="spacing" textLength="174" x="533.5" y="71.5332">GiveOrderToAGVController</text><rect fill="#E2E2F0" height="31.6094" rx="2.5" ry="2.5" style="stroke:#181818;stroke-width:0.5;" width="188" x="526.5" y="1712.4844"/><text fill="#000000" font-family="sans-serif" font-size="14" lengthAdjust="spacing" textLength="174" x="533.5" y="1734.0176">GiveOrderToAGVController</text><rect fill="#E2E2F0" height="31.6094" rx="2.5" ry="2.5" style="stroke:#181818;stroke-width:0.5;" width="173" x="851" y="50"/><text fill="#000000" font-family="sans-serif" font-size="14" lengthAdjust="spacing" textLength="159" x="858" y="71.5332">GiveOrderToAGVService</text><rect fill="#E2E2F0" height="31.6094" rx="2.5" ry="2.5" style="stroke:#181818;stroke-width:0.5;" width="173" x="851" y="1712.4844"/><text fill="#000000" font-family="sans-serif" font-size="14" lengthAdjust="spacing" textLength="159" x="858" y="1734.0176">GiveOrderToAGVService</text><rect fill="#E2E2F0" height="31.6094" rx="2.5" ry="2.5" style="stroke:#181818;stroke-width:0.5;" width="168" x="1034" y="50"/><text fill="#000000" font-family="sans-serif" font-size="14" lengthAdjust="spacing" textLength="154" x="1041" y="71.5332">ProductOrderRepository</text><rect fill="#E2E2F0" height="31.6094" rx="2.5" ry="2.5" style="stroke:#181818;stroke-width:0.5;" width="168" x="1034" y="1712.4844"/><text fill="#000000" font-family="sans-serif" font-size="14" lengthAdjust="spacing" textLength="154" x="1041" y="1734.0176">ProductOrderRepository</text><rect fill="#E2E2F0" height="31.6094" rx="2.5" ry="2.5" style="stroke:#181818;stroke-width:0.5;" width="100" x="1212" y="50"/><text fill="#000000" font-family="sans-serif" font-size="14" lengthAdjust="spacing" textLength="86" x="1219" y="71.5332">ProductOrder</text><rect fill="#E2E2F0" height="31.6094" rx="2.5" ry="2.5" style="stroke:#181818;stroke-width:0.5;" width="100" x="1212" y="1712.4844"/><text fill="#000000" font-family="sans-serif" font-size="14" lengthAdjust="spacing" textLength="86" x="1219" y="1734.0176">ProductOrder</text><rect fill="#E2E2F0" height="31.6094" rx="2.5" ry="2.5" style="stroke:#181818;stroke-width:0.5;" width="130" x="1322" y="50"/><text fill="#000000" font-family="sans-serif" font-size="14" lengthAdjust="spacing" textLength="116" x="1329" y="71.5332">ProductOrderDTO</text><rect fill="#E2E2F0" height="31.6094" rx="2.5" ry="2.5" style="stroke:#181818;stroke-width:0.5;" width="130" x="1322" y="1712.4844"/><text fill="#000000" font-family="sans-serif" font-size="14" lengthAdjust="spacing" textLength="116" x="1329" y="1734.0176">ProductOrderDTO</text><rect fill="#E2E2F0" height="31.6094" rx="2.5" ry="2.5" style="stroke:#181818;stroke-width:0.5;" width="196" x="1462" y="50"/><text fill="#000000" font-family="sans-serif" font-size="14" lengthAdjust="spacing" textLength="182" x="1469" y="71.5332">AGVConfigurationRepository</text><rect fill="#E2E2F0" height="31.6094" rx="2.5" ry="2.5" style="stroke:#181818;stroke-width:0.5;" width="196" x="1462" y="1712.4844"/><text fill="#000000" font-family="sans-serif" font-size="14" lengthAdjust="spacing" textLength="182" x="1469" y="1734.0176">AGVConfigurationRepository</text><rect fill="#E2E2F0" height="31.6094" rx="2.5" ry="2.5" style="stroke:#181818;stroke-width:0.5;" width="43" x="1668" y="50"/><text fill="#000000" font-family="sans-serif" font-size="14" lengthAdjust="spacing" textLength="29" x="1675" y="71.5332">AGV</text><rect fill="#E2E2F0" height="31.6094" rx="2.5" ry="2.5" style="stroke:#181818;stroke-width:0.5;" width="43" x="1668" y="1712.4844"/><text fill="#000000" font-family="sans-serif" font-size="14" lengthAdjust="spacing" textLength="29" x="1675" y="1734.0176">AGV</text><rect fill="#E2E2F0" height="31.6094" rx="2.5" ry="2.5" style="stroke:#181818;stroke-width:0.5;" width="73" x="1736" y="50"/><text fill="#000000" font-family="sans-serif" font-size="14" lengthAdjust="spacing" textLength="59" x="1743" y="71.5332">AGVDTO</text><rect fill="#E2E2F0" height="31.6094" rx="2.5" ry="2.5" style="stroke:#181818;stroke-width:0.5;" width="73" x="1736" y="1712.4844"/><text fill="#000000" font-family="sans-serif" font-size="14" lengthAdjust="spacing" textLength="59" x="1743" y="1734.0176">AGVDTO</text><rect fill="#FFFFFF" height="335.8672" style="stroke:#181818;stroke-width:1.0;" width="10" x="314.5" y="114.9609"/><rect fill="#FFFFFF" height="335.8672" style="stroke:#181818;stroke-width:1.0;" width="10" x="314.5" y="481.1797"/><rect fill="#FFFFFF" height="857.0859" style="stroke:#181818;stroke-width:1.0;" width="10" x="314.5" y="847.3984"/><rect fill="#FFFFFF" height="275.1641" style="stroke:#181818;stroke-width:1.0;" width="10" x="615.5" y="145.3125"/><rect fill="#FFFFFF" height="275.1641" style="stroke:#181818;stroke-width:1.0;" width="10" x="615.5" y="511.5313"/><rect fill="#FFFFFF" height="817.7344" style="stroke:#181818;stroke-width:1.0;" width="10" x="615.5" y="877.75"/><rect fill="#FFFFFF" height="214.4609" style="stroke:#181818;stroke-width:1.0;" width="10" x="932.5" y="175.6641"/><rect fill="#FFFFFF" height="214.4609" style="stroke:#181818;stroke-width:1.0;" width="10" x="932.5" y="541.8828"/><rect fill="#FFFFFF" height="91.0547" style="stroke:#181818;stroke-width:1.0;" width="10" x="932.5" y="908.1016"/><rect fill="#FFFFFF" height="91.0547" style="stroke:#181818;stroke-width:1.0;" width="10" x="932.5" y="1029.5078"/><rect fill="#FFFFFF" height="182.1094" style="stroke:#181818;stroke-width:1.0;" width="10" x="932.5" y="1452.6719"/><rect fill="#FFFFFF" height="30.3516" style="stroke:#181818;stroke-width:1.0;" width="10" x="1113" y="206.0156"/><rect fill="#FFFFFF" height="30" style="stroke:#181818;stroke-width:1.0;" width="10" x="1113" y="1392.3203"/><rect fill="#FFFFFF" height="60.7031" style="stroke:#181818;stroke-width:1.0;" width="10" x="1257" y="292.0703"/><rect fill="#FFFFFF" height="30" style="stroke:#181818;stroke-width:1.0;" width="10" x="1257" y="1331.9688"/><rect fill="#FFFFFF" height="30.3516" style="stroke:#181818;stroke-width:1.0;" width="10" x="1555" y="572.2344"/><rect fill="#FFFFFF" height="30.3516" style="stroke:#181818;stroke-width:1.0;" width="10" x="1555" y="938.4531"/><rect fill="#FFFFFF" height="30.3516" style="stroke:#181818;stroke-width:1.0;" width="10" x="1555" y="1059.8594"/><rect fill="#FFFFFF" height="30" style="stroke:#181818;stroke-width:1.0;" width="10" x="1555" y="1271.6172"/><rect fill="#FFFFFF" height="30.3516" style="stroke:#181818;stroke-width:1.0;" width="10" x="1555" y="1483.0234"/><rect fill="#FFFFFF" height="60.7031" style="stroke:#181818;stroke-width:1.0;" width="10" x="1684.5" y="658.2891"/><rect fill="#FFFFFF" height="30" style="stroke:#181818;stroke-width:1.0;" width="10" x="1684.5" y="1150.9141"/><rect fill="#FFFFFF" height="30" style="stroke:#181818;stroke-width:1.0;" width="10" x="1684.5" y="1211.2656"/><rect fill="#FFFFFF" height="60.7031" style="stroke:#181818;stroke-width:1.0;" width="10" x="1684.5" y="1543.7266"/><polygon fill="#181818" points="302.5,110.9609,312.5,114.9609,302.5,118.9609,306.5,114.9609" style="stroke:#181818;stroke-width:1.0;"/><line style="stroke:#181818;stroke-width:1.0;" x1="75.5" x2="308.5" y1="114.9609" y2="114.9609"/><text fill="#000000" font-family="sans-serif" font-size="13" font-weight="bold" lengthAdjust="spacing" textLength="7" x="82.5" y="110.1045">1</text><text fill="#000000" font-family="sans-serif" font-size="13" lengthAdjust="spacing" textLength="118" x="93.5" y="110.1045">"Give Order to AGV"</text><polygon fill="#181818" points="603.5,141.3125,613.5,145.3125,603.5,149.3125,607.5,145.3125" style="stroke:#181818;stroke-width:1.0;"/><line style="stroke:#181818;stroke-width:1.0;" x1="324.5" x2="609.5" y1="145.3125" y2="145.3125"/><text fill="#000000" font-family="sans-serif" font-size="13" font-weight="bold" lengthAdjust="spacing" textLength="7" x="331.5" y="140.4561">2</text><text fill="#000000" font-family="sans-serif" font-size="13" lengthAdjust="spacing" textLength="142" x="342.5" y="140.4561">allToBePreparedOrders()</text><polygon fill="#181818" points="920.5,171.6641,930.5,175.6641,920.5,179.6641,924.5,175.6641" style="stroke:#181818;stroke-width:1.0;"/><line style="stroke:#181818;stroke-width:1.0;" x1="625.5" x2="926.5" y1="175.6641" y2="175.6641"/><text fill="#000000" font-family="sans-serif" font-size="13" font-weight="bold" lengthAdjust="spacing" textLength="7" x="632.5" y="170.8076">3</text><text fill="#000000" font-family="sans-serif" font-size="13" lengthAdjust="spacing" textLength="142" x="643.5" y="170.8076">allToBePreparedOrders()</text><polygon fill="#181818" points="1101,202.0156,1111,206.0156,1101,210.0156,1105,206.0156" style="stroke:#181818;stroke-width:1.0;"/><line style="stroke:#181818;stroke-width:1.0;" x1="942.5" x2="1107" y1="206.0156" y2="206.0156"/><text fill="#000000" font-family="sans-serif" font-size="13" font-weight="bold" lengthAdjust="spacing" textLength="7" x="949.5" y="201.1592">4</text><text fill="#000000" font-family="sans-serif" font-size="13" lengthAdjust="spacing" textLength="110" x="960.5" y="201.1592">findToBePrepared()</text><polygon fill="#181818" points="953.5,232.3672,943.5,236.3672,953.5,240.3672,949.5,236.3672" style="stroke:#181818;stroke-width:1.0;"/><line style="stroke:#181818;stroke-width:1.0;stroke-dasharray:2.0,2.0;" x1="947.5" x2="1117" y1="236.3672" y2="236.3672"/><text fill="#000000" font-family="sans-serif" font-size="13" font-weight="bold" lengthAdjust="spacing" textLength="7" x="959.5" y="231.5107">5</text><text fill="#000000" font-family="sans-serif" font-size="13" lengthAdjust="spacing" textLength="135" x="970.5" y="231.5107">Iterable&lt;ProductOrder&gt;</text><path d="M841,251.3672 L914,251.3672 L914,259.7188 L904,269.7188 L841,269.7188 L841,251.3672 " fill="#EEEEEE" style="stroke:#000000;stroke-width:1.5;"/><rect fill="none" height="109.4063" style="stroke:#000000;stroke-width:1.5;" width="621" x="841" y="251.3672"/><text fill="#000000" font-family="sans-serif" font-size="13" font-weight="bold" lengthAdjust="spacing" textLength="28" x="856" y="265.8623">loop</text><text fill="#000000" font-family="sans-serif" font-size="11" font-weight="bold" lengthAdjust="spacing" textLength="128" x="929" y="264.7861">[foreach ProductOrder]</text><polygon fill="#181818" points="1245,288.0703,1255,292.0703,1245,296.0703,1249,292.0703" style="stroke:#181818;stroke-width:1.0;"/><line style="stroke:#181818;stroke-width:1.0;" x1="942.5" x2="1251" y1="292.0703" y2="292.0703"/><text fill="#000000" font-family="sans-serif" font-size="13" font-weight="bold" lengthAdjust="spacing" textLength="7" x="949.5" y="287.2139">6</text><text fill="#000000" font-family="sans-serif" font-size="13" lengthAdjust="spacing" textLength="77" x="960.5" y="287.2139">toOrderDTO()</text><polygon fill="#181818" points="1375,318.4219,1385,322.4219,1375,326.4219,1379,322.4219" style="stroke:#181818;stroke-width:1.0;"/><line style="stroke:#181818;stroke-width:1.0;" x1="1267" x2="1381" y1="322.4219" y2="322.4219"/><text fill="#000000" font-family="sans-serif" font-size="13" font-weight="bold" lengthAdjust="spacing" textLength="7" x="1274" y="317.5654">7</text><text fill="#000000" font-family="sans-serif" font-size="13" lengthAdjust="spacing" textLength="36" x="1285" y="317.5654">create</text><polygon fill="#181818" points="953.5,348.7734,943.5,352.7734,953.5,356.7734,949.5,352.7734" style="stroke:#181818;stroke-width:1.0;"/><line style="stroke:#181818;stroke-width:1.0;stroke-dasharray:2.0,2.0;" x1="947.5" x2="1261" y1="352.7734" y2="352.7734"/><text fill="#000000" font-family="sans-serif" font-size="13" font-weight="bold" lengthAdjust="spacing" textLength="7" x="959.5" y="347.917">8</text><text fill="#000000" font-family="sans-serif" font-size="13" lengthAdjust="spacing" textLength="103" x="970.5" y="347.917">ProductOrderDTO</text><polygon fill="#181818" points="636.5,386.125,626.5,390.125,636.5,394.125,632.5,390.125" style="stroke:#181818;stroke-width:1.0;"/><line style="stroke:#181818;stroke-width:1.0;" x1="630.5" x2="936.5" y1="390.125" y2="390.125"/><text fill="#000000" font-family="sans-serif" font-size="13" font-weight="bold" lengthAdjust="spacing" textLength="7" x="642.5" y="385.2686">9</text><text fill="#000000" font-family="sans-serif" font-size="13" lengthAdjust="spacing" textLength="161" x="653.5" y="385.2686">Iterable&lt;ProductOrderDTO&gt;</text><polygon fill="#181818" points="335.5,416.4766,325.5,420.4766,335.5,424.4766,331.5,420.4766" style="stroke:#181818;stroke-width:1.0;"/><line style="stroke:#181818;stroke-width:1.0;stroke-dasharray:2.0,2.0;" x1="329.5" x2="619.5" y1="420.4766" y2="420.4766"/><text fill="#000000" font-family="sans-serif" font-size="13" font-weight="bold" lengthAdjust="spacing" textLength="14" x="341.5" y="415.6201">10</text><text fill="#000000" font-family="sans-serif" font-size="13" lengthAdjust="spacing" textLength="161" x="359.5" y="415.6201">Iterable&lt;ProductOrderDTO&gt;</text><polygon fill="#181818" points="86.5,446.8281,76.5,450.8281,86.5,454.8281,82.5,450.8281" style="stroke:#181818;stroke-width:1.0;"/><line style="stroke:#181818;stroke-width:1.0;stroke-dasharray:2.0,2.0;" x1="80.5" x2="318.5" y1="450.8281" y2="450.8281"/><text fill="#000000" font-family="sans-serif" font-size="13" font-weight="bold" lengthAdjust="spacing" textLength="14" x="92.5" y="445.9717">11</text><text fill="#000000" font-family="sans-serif" font-size="13" lengthAdjust="spacing" textLength="121" x="110.5" y="445.9717">Shows List of Orders</text><polygon fill="#181818" points="302.5,477.1797,312.5,481.1797,302.5,485.1797,306.5,481.1797" style="stroke:#181818;stroke-width:1.0;"/><line style="stroke:#181818;stroke-width:1.0;" x1="75.5" x2="308.5" y1="481.1797" y2="481.1797"/><text fill="#000000" font-family="sans-serif" font-size="13" font-weight="bold" lengthAdjust="spacing" textLength="14" x="82.5" y="476.3232">12</text><text fill="#000000" font-family="sans-serif" font-size="13" lengthAdjust="spacing" textLength="91" x="100.5" y="476.3232">Selects 1 Order</text><polygon fill="#181818" points="603.5,507.5313,613.5,511.5313,603.5,515.5313,607.5,511.5313" style="stroke:#181818;stroke-width:1.0;"/><line style="stroke:#181818;stroke-width:1.0;" x1="324.5" x2="609.5" y1="511.5313" y2="511.5313"/><text fill="#000000" font-family="sans-serif" font-size="13" font-weight="bold" lengthAdjust="spacing" textLength="14" x="331.5" y="506.6748">13</text><text fill="#000000" font-family="sans-serif" font-size="13" lengthAdjust="spacing" textLength="107" x="349.5" y="506.6748">allAvailableAGVs()</text><polygon fill="#181818" points="920.5,537.8828,930.5,541.8828,920.5,545.8828,924.5,541.8828" style="stroke:#181818;stroke-width:1.0;"/><line style="stroke:#181818;stroke-width:1.0;" x1="625.5" x2="926.5" y1="541.8828" y2="541.8828"/><text fill="#000000" font-family="sans-serif" font-size="13" font-weight="bold" lengthAdjust="spacing" textLength="14" x="632.5" y="537.0264">14</text><text fill="#000000" font-family="sans-serif" font-size="13" lengthAdjust="spacing" textLength="107" x="650.5" y="537.0264">allAvailableAGVs()</text><polygon fill="#181818" points="1543,568.2344,1553,572.2344,1543,576.2344,1547,572.2344" style="stroke:#181818;stroke-width:1.0;"/><line style="stroke:#181818;stroke-width:1.0;" x1="942.5" x2="1549" y1="572.2344" y2="572.2344"/><text fill="#000000" font-family="sans-serif" font-size="13" font-weight="bold" lengthAdjust="spacing" textLength="14" x="949.5" y="567.3779">15</text><text fill="#000000" font-family="sans-serif" font-size="13" lengthAdjust="spacing" textLength="79" x="967.5" y="567.3779">findAvailable()</text><polygon fill="#181818" points="953.5,598.5859,943.5,602.5859,953.5,606.5859,949.5,602.5859" style="stroke:#181818;stroke-width:1.0;"/><line style="stroke:#181818;stroke-width:1.0;stroke-dasharray:2.0,2.0;" x1="947.5" x2="1559" y1="602.5859" y2="602.5859"/><text fill="#000000" font-family="sans-serif" font-size="13" font-weight="bold" lengthAdjust="spacing" textLength="14" x="959.5" y="597.7295">16</text><text fill="#000000" font-family="sans-serif" font-size="13" lengthAdjust="spacing" textLength="86" x="977.5" y="597.7295">Iterable&lt;AGV&gt;</text><path d="M841,617.5859 L914,617.5859 L914,625.9375 L904,635.9375 L841,635.9375 L841,617.5859 " fill="#EEEEEE" style="stroke:#000000;stroke-width:1.5;"/><rect fill="none" height="109.4063" style="stroke:#000000;stroke-width:1.5;" width="978" x="841" y="617.5859"/><text fill="#000000" font-family="sans-serif" font-size="13" font-weight="bold" lengthAdjust="spacing" textLength="28" x="856" y="632.0811">loop</text><text fill="#000000" font-family="sans-serif" font-size="11" font-weight="bold" lengthAdjust="spacing" textLength="77" x="929" y="631.0049">[foreach AGV]</text><polygon fill="#181818" points="1672.5,654.2891,1682.5,658.2891,1672.5,662.2891,1676.5,658.2891" style="stroke:#181818;stroke-width:1.0;"/><line style="stroke:#181818;stroke-width:1.0;" x1="942.5" x2="1678.5" y1="658.2891" y2="658.2891"/><text fill="#000000" font-family="sans-serif" font-size="13" font-weight="bold" lengthAdjust="spacing" textLength="14" x="949.5" y="653.4326">17</text><text fill="#000000" font-family="sans-serif" font-size="13" lengthAdjust="spacing" textLength="73" x="967.5" y="653.4326">toAGVDTO()</text><polygon fill="#181818" points="1760.5,684.6406,1770.5,688.6406,1760.5,692.6406,1764.5,688.6406" style="stroke:#181818;stroke-width:1.0;"/><line style="stroke:#181818;stroke-width:1.0;" x1="1694.5" x2="1766.5" y1="688.6406" y2="688.6406"/><text fill="#000000" font-family="sans-serif" font-size="13" font-weight="bold" lengthAdjust="spacing" textLength="14" x="1701.5" y="683.7842">18</text><text fill="#000000" font-family="sans-serif" font-size="13" lengthAdjust="spacing" textLength="36" x="1719.5" y="683.7842">create</text><polygon fill="#181818" points="953.5,714.9922,943.5,718.9922,953.5,722.9922,949.5,718.9922" style="stroke:#181818;stroke-width:1.0;"/><line style="stroke:#181818;stroke-width:1.0;stroke-dasharray:2.0,2.0;" x1="947.5" x2="1688.5" y1="718.9922" y2="718.9922"/><text fill="#000000" font-family="sans-serif" font-size="13" font-weight="bold" lengthAdjust="spacing" textLength="14" x="959.5" y="714.1357">19</text><text fill="#000000" font-family="sans-serif" font-size="13" lengthAdjust="spacing" textLength="54" x="977.5" y="714.1357">AGVDTO</text><polygon fill="#181818" points="636.5,752.3438,626.5,756.3438,636.5,760.3438,632.5,756.3438" style="stroke:#181818;stroke-width:1.0;"/><line style="stroke:#181818;stroke-width:1.0;" x1="630.5" x2="936.5" y1="756.3438" y2="756.3438"/><text fill="#000000" font-family="sans-serif" font-size="13" font-weight="bold" lengthAdjust="spacing" textLength="14" x="642.5" y="751.4873">20</text><text fill="#000000" font-family="sans-serif" font-size="13" lengthAdjust="spacing" textLength="112" x="660.5" y="751.4873">Iterable&lt;AGVDTO&gt;</text><polygon fill="#181818" points="335.5,782.6953,325.5,786.6953,335.5,790.6953,331.5,786.6953" style="stroke:#181818;stroke-width:1.0;"/><line style="stroke:#181818;stroke-width:1.0;stroke-dasharray:2.0,2.0;" x1="329.5" x2="619.5" y1="786.6953" y2="786.6953"/><text fill="#000000" font-family="sans-serif" font-size="13" font-weight="bold" lengthAdjust="spacing" textLength="14" x="341.5" y="781.8389">21</text><text fill="#000000" font-family="sans-serif" font-size="13" lengthAdjust="spacing" textLength="112" x="359.5" y="781.8389">Iterable&lt;AGVDTO&gt;</text><polygon fill="#181818" points="86.5,813.0469,76.5,817.0469,86.5,821.0469,82.5,817.0469" style="stroke:#181818;stroke-width:1.0;"/><line style="stroke:#181818;stroke-width:1.0;stroke-dasharray:2.0,2.0;" x1="80.5" x2="318.5" y1="817.0469" y2="817.0469"/><text fill="#000000" font-family="sans-serif" font-size="13" font-weight="bold" lengthAdjust="spacing" textLength="14" x="92.5" y="812.1904">22</text><text fill="#000000" font-family="sans-serif" font-size="13" lengthAdjust="spacing" textLength="117" x="110.5" y="812.1904">Shows List of AGVs</text><polygon fill="#181818" points="302.5,843.3984,312.5,847.3984,302.5,851.3984,306.5,847.3984" style="stroke:#181818;stroke-width:1.0;"/><line style="stroke:#181818;stroke-width:1.0;" x1="75.5" x2="308.5" y1="847.3984" y2="847.3984"/><text fill="#000000" font-family="sans-serif" font-size="13" font-weight="bold" lengthAdjust="spacing" textLength="14" x="82.5" y="842.542">23</text><text fill="#000000" font-family="sans-serif" font-size="13" lengthAdjust="spacing" textLength="87" x="100.5" y="842.542">Selects 1 AGV</text><polygon fill="#181818" points="603.5,873.75,613.5,877.75,603.5,881.75,607.5,877.75" style="stroke:#181818;stroke-width:1.0;"/><line style="stroke:#181818;stroke-width:1.0;" x1="324.5" x2="609.5" y1="877.75" y2="877.75"/><text fill="#000000" font-family="sans-serif" font-size="13" font-weight="bold" lengthAdjust="spacing" textLength="14" x="331.5" y="872.8936">24</text><text fill="#000000" font-family="sans-serif" font-size="13" lengthAdjust="spacing" textLength="254" x="349.5" y="872.8936">giveOrderToAGV(agvDTO,productOrderDTO)</text><polygon fill="#181818" points="920.5,904.1016,930.5,908.1016,920.5,912.1016,924.5,908.1016" style="stroke:#181818;stroke-width:1.0;"/><line style="stroke:#181818;stroke-width:1.0;" x1="625.5" x2="926.5" y1="908.1016" y2="908.1016"/><text fill="#000000" font-family="sans-serif" font-size="13" font-weight="bold" lengthAdjust="spacing" textLength="14" x="632.5" y="903.2451">25</text><text fill="#000000" font-family="sans-serif" font-size="13" lengthAdjust="spacing" textLength="165" x="650.5" y="903.2451">grabRealValueAGV(agvDTO)</text><polygon fill="#181818" points="1543,934.4531,1553,938.4531,1543,942.4531,1547,938.4531" style="stroke:#181818;stroke-width:1.0;"/><line style="stroke:#181818;stroke-width:1.0;" x1="942.5" x2="1549" y1="938.4531" y2="938.4531"/><text fill="#000000" font-family="sans-serif" font-size="13" font-weight="bold" lengthAdjust="spacing" textLength="14" x="949.5" y="933.5967">26</text><text fill="#000000" font-family="sans-serif" font-size="13" lengthAdjust="spacing" textLength="85" x="967.5" y="933.5967">findById(agvID)</text><polygon fill="#181818" points="953.5,964.8047,943.5,968.8047,953.5,972.8047,949.5,968.8047" style="stroke:#181818;stroke-width:1.0;"/><line style="stroke:#181818;stroke-width:1.0;stroke-dasharray:2.0,2.0;" x1="947.5" x2="1559" y1="968.8047" y2="968.8047"/><text fill="#000000" font-family="sans-serif" font-size="13" font-weight="bold" lengthAdjust="spacing" textLength="14" x="959.5" y="963.9482">27</text><text fill="#000000" font-family="sans-serif" font-size="13" lengthAdjust="spacing" textLength="86" x="977.5" y="963.9482">Iterable&lt;AGV&gt;</text><polygon fill="#181818" points="636.5,995.1563,626.5,999.1563,636.5,1003.1563,632.5,999.1563" style="stroke:#181818;stroke-width:1.0;"/><line style="stroke:#181818;stroke-width:1.0;stroke-dasharray:2.0,2.0;" x1="630.5" x2="936.5" y1="999.1563" y2="999.1563"/><text fill="#000000" font-family="sans-serif" font-size="13" font-weight="bold" lengthAdjust="spacing" textLength="14" x="642.5" y="994.2998">28</text><text fill="#000000" font-family="sans-serif" font-size="13" lengthAdjust="spacing" textLength="86" x="660.5" y="994.2998">Iterable&lt;AGV&gt;</text><polygon fill="#181818" points="920.5,1025.5078,930.5,1029.5078,920.5,1033.5078,924.5,1029.5078" style="stroke:#181818;stroke-width:1.0;"/><line style="stroke:#181818;stroke-width:1.0;" x1="625.5" x2="926.5" y1="1029.5078" y2="1029.5078"/><text fill="#000000" font-family="sans-serif" font-size="13" font-weight="bold" lengthAdjust="spacing" textLength="14" x="632.5" y="1024.6514">29</text><text fill="#000000" font-family="sans-serif" font-size="13" lengthAdjust="spacing" textLength="270" x="650.5" y="1024.6514">grabRealValueProductOrder(productOrderDTO)</text><polygon fill="#181818" points="1543,1055.8594,1553,1059.8594,1543,1063.8594,1547,1059.8594" style="stroke:#181818;stroke-width:1.0;"/><line style="stroke:#181818;stroke-width:1.0;" x1="942.5" x2="1549" y1="1059.8594" y2="1059.8594"/><text fill="#000000" font-family="sans-serif" font-size="13" font-weight="bold" lengthAdjust="spacing" textLength="14" x="949.5" y="1055.0029">30</text><text fill="#000000" font-family="sans-serif" font-size="13" lengthAdjust="spacing" textLength="96" x="967.5" y="1055.0029">findById(OrderId)</text><polygon fill="#181818" points="953.5,1086.2109,943.5,1090.2109,953.5,1094.2109,949.5,1090.2109" style="stroke:#181818;stroke-width:1.0;"/><line style="stroke:#181818;stroke-width:1.0;stroke-dasharray:2.0,2.0;" x1="947.5" x2="1559" y1="1090.2109" y2="1090.2109"/><text fill="#000000" font-family="sans-serif" font-size="13" font-weight="bold" lengthAdjust="spacing" textLength="14" x="959.5" y="1085.3545">31</text><text fill="#000000" font-family="sans-serif" font-size="13" lengthAdjust="spacing" textLength="135" x="977.5" y="1085.3545">Iterable&lt;ProductOrder&gt;</text><polygon fill="#181818" points="636.5,1116.5625,626.5,1120.5625,636.5,1124.5625,632.5,1120.5625" style="stroke:#181818;stroke-width:1.0;"/><line style="stroke:#181818;stroke-width:1.0;stroke-dasharray:2.0,2.0;" x1="630.5" x2="936.5" y1="1120.5625" y2="1120.5625"/><text fill="#000000" font-family="sans-serif" font-size="13" font-weight="bold" lengthAdjust="spacing" textLength="14" x="642.5" y="1115.7061">32</text><text fill="#000000" font-family="sans-serif" font-size="13" lengthAdjust="spacing" textLength="135" x="660.5" y="1115.7061">Iterable&lt;ProductOrder&gt;</text><polygon fill="#181818" points="1672.5,1146.9141,1682.5,1150.9141,1672.5,1154.9141,1676.5,1150.9141" style="stroke:#181818;stroke-width:1.0;"/><line style="stroke:#181818;stroke-width:1.0;" x1="625.5" x2="1678.5" y1="1150.9141" y2="1150.9141"/><text fill="#000000" font-family="sans-serif" font-size="13" font-weight="bold" lengthAdjust="spacing" textLength="14" x="632.5" y="1146.0576">33</text><text fill="#000000" font-family="sans-serif" font-size="13" lengthAdjust="spacing" textLength="251" x="650.5" y="1146.0576">changeTaskTo("Preparing Order :"+OrderId)</text><polygon fill="#181818" points="1672.5,1207.2656,1682.5,1211.2656,1672.5,1215.2656,1676.5,1211.2656" style="stroke:#181818;stroke-width:1.0;"/><line style="stroke:#181818;stroke-width:1.0;" x1="625.5" x2="1678.5" y1="1211.2656" y2="1211.2656"/><text fill="#000000" font-family="sans-serif" font-size="13" font-weight="bold" lengthAdjust="spacing" textLength="14" x="632.5" y="1206.4092">34</text><text fill="#000000" font-family="sans-serif" font-size="13" lengthAdjust="spacing" textLength="138" x="650.5" y="1206.4092">changeStatusTo(status)</text><polygon fill="#181818" points="1543,1267.6172,1553,1271.6172,1543,1275.6172,1547,1271.6172" style="stroke:#181818;stroke-width:1.0;"/><line style="stroke:#181818;stroke-width:1.0;" x1="625.5" x2="1549" y1="1271.6172" y2="1271.6172"/><text fill="#000000" font-family="sans-serif" font-size="13" font-weight="bold" lengthAdjust="spacing" textLength="14" x="632.5" y="1266.7607">35</text><text fill="#000000" font-family="sans-serif" font-size="13" lengthAdjust="spacing" textLength="53" x="650.5" y="1266.7607">save(agv)</text><polygon fill="#181818" points="1245,1327.9688,1255,1331.9688,1245,1335.9688,1249,1331.9688" style="stroke:#181818;stroke-width:1.0;"/><line style="stroke:#181818;stroke-width:1.0;" x1="625.5" x2="1251" y1="1331.9688" y2="1331.9688"/><text fill="#000000" font-family="sans-serif" font-size="13" font-weight="bold" lengthAdjust="spacing" textLength="14" x="632.5" y="1327.1123">36</text><text fill="#000000" font-family="sans-serif" font-size="13" lengthAdjust="spacing" textLength="138" x="650.5" y="1327.1123">changeStatusTo(status)</text><polygon fill="#181818" points="1101,1388.3203,1111,1392.3203,1101,1396.3203,1105,1392.3203" style="stroke:#181818;stroke-width:1.0;"/><line style="stroke:#181818;stroke-width:1.0;" x1="625.5" x2="1107" y1="1392.3203" y2="1392.3203"/><text fill="#000000" font-family="sans-serif" font-size="13" font-weight="bold" lengthAdjust="spacing" textLength="14" x="632.5" y="1387.4639">37</text><text fill="#000000" font-family="sans-serif" font-size="13" lengthAdjust="spacing" textLength="109" x="650.5" y="1387.4639">save(productOrder)</text><polygon fill="#181818" points="920.5,1448.6719,930.5,1452.6719,920.5,1456.6719,924.5,1452.6719" style="stroke:#181818;stroke-width:1.0;"/><line style="stroke:#181818;stroke-width:1.0;" x1="625.5" x2="926.5" y1="1452.6719" y2="1452.6719"/><text fill="#000000" font-family="sans-serif" font-size="13" font-weight="bold" lengthAdjust="spacing" textLength="14" x="632.5" y="1447.8154">38</text><text fill="#000000" font-family="sans-serif" font-size="13" lengthAdjust="spacing" textLength="97" x="650.5" y="1447.8154">showAGV(agvID)</text><polygon fill="#181818" points="1543,1479.0234,1553,1483.0234,1543,1487.0234,1547,1483.0234" style="stroke:#181818;stroke-width:1.0;"/><line style="stroke:#181818;stroke-width:1.0;" x1="942.5" x2="1549" y1="1483.0234" y2="1483.0234"/><text fill="#000000" font-family="sans-serif" font-size="13" font-weight="bold" lengthAdjust="spacing" textLength="14" x="949.5" y="1478.167">39</text><text fill="#000000" font-family="sans-serif" font-size="13" lengthAdjust="spacing" textLength="85" x="967.5" y="1478.167">findById(agvID)</text><polygon fill="#181818" points="953.5,1509.375,943.5,1513.375,953.5,1517.375,949.5,1513.375" style="stroke:#181818;stroke-width:1.0;"/><line style="stroke:#181818;stroke-width:1.0;stroke-dasharray:2.0,2.0;" x1="947.5" x2="1559" y1="1513.375" y2="1513.375"/><text fill="#000000" font-family="sans-serif" font-size="13" font-weight="bold" lengthAdjust="spacing" textLength="14" x="959.5" y="1508.5186">40</text><text fill="#000000" font-family="sans-serif" font-size="13" lengthAdjust="spacing" textLength="86" x="977.5" y="1508.5186">Iterable&lt;AGV&gt;</text><polygon fill="#181818" points="1672.5,1539.7266,1682.5,1543.7266,1672.5,1547.7266,1676.5,1543.7266" style="stroke:#181818;stroke-width:1.0;"/><line style="stroke:#181818;stroke-width:1.0;" x1="942.5" x2="1678.5" y1="1543.7266" y2="1543.7266"/><text fill="#000000" font-family="sans-serif" font-size="13" font-weight="bold" lengthAdjust="spacing" textLength="14" x="949.5" y="1538.8701">41</text><text fill="#000000" font-family="sans-serif" font-size="13" lengthAdjust="spacing" textLength="73" x="967.5" y="1538.8701">toAGVDTO()</text><polygon fill="#181818" points="1760.5,1570.0781,1770.5,1574.0781,1760.5,1578.0781,1764.5,1574.0781" style="stroke:#181818;stroke-width:1.0;"/><line style="stroke:#181818;stroke-width:1.0;" x1="1694.5" x2="1766.5" y1="1574.0781" y2="1574.0781"/><text fill="#000000" font-family="sans-serif" font-size="13" font-weight="bold" lengthAdjust="spacing" textLength="14" x="1701.5" y="1569.2217">42</text><text fill="#000000" font-family="sans-serif" font-size="13" lengthAdjust="spacing" textLength="36" x="1719.5" y="1569.2217">create</text><polygon fill="#181818" points="953.5,1600.4297,943.5,1604.4297,953.5,1608.4297,949.5,1604.4297" style="stroke:#181818;stroke-width:1.0;"/><line style="stroke:#181818;stroke-width:1.0;stroke-dasharray:2.0,2.0;" x1="947.5" x2="1688.5" y1="1604.4297" y2="1604.4297"/><text fill="#000000" font-family="sans-serif" font-size="13" font-weight="bold" lengthAdjust="spacing" textLength="14" x="959.5" y="1599.5732">43</text><text fill="#000000" font-family="sans-serif" font-size="13" lengthAdjust="spacing" textLength="54" x="977.5" y="1599.5732">AGVDTO</text><polygon fill="#181818" points="636.5,1630.7813,626.5,1634.7813,636.5,1638.7813,632.5,1634.7813" style="stroke:#181818;stroke-width:1.0;"/><line style="stroke:#181818;stroke-width:1.0;stroke-dasharray:2.0,2.0;" x1="630.5" x2="936.5" y1="1634.7813" y2="1634.7813"/><text fill="#000000" font-family="sans-serif" font-size="13" font-weight="bold" lengthAdjust="spacing" textLength="14" x="642.5" y="1629.9248">44</text><text fill="#000000" font-family="sans-serif" font-size="13" lengthAdjust="spacing" textLength="54" x="660.5" y="1629.9248">AGVDTO</text><polygon fill="#181818" points="335.5,1661.1328,325.5,1665.1328,335.5,1669.1328,331.5,1665.1328" style="stroke:#181818;stroke-width:1.0;"/><line style="stroke:#181818;stroke-width:1.0;stroke-dasharray:2.0,2.0;" x1="329.5" x2="614.5" y1="1665.1328" y2="1665.1328"/><text fill="#000000" font-family="sans-serif" font-size="13" font-weight="bold" lengthAdjust="spacing" textLength="14" x="341.5" y="1660.2764">45</text><text fill="#000000" font-family="sans-serif" font-size="13" lengthAdjust="spacing" textLength="54" x="359.5" y="1660.2764">AGVDTO</text><polygon fill="#181818" points="86.5,1691.4844,76.5,1695.4844,86.5,1699.4844,82.5,1695.4844" style="stroke:#181818;stroke-width:1.0;"/><line style="stroke:#181818;stroke-width:1.0;stroke-dasharray:2.0,2.0;" x1="80.5" x2="313.5" y1="1695.4844" y2="1695.4844"/><text fill="#000000" font-family="sans-serif" font-size="13" font-weight="bold" lengthAdjust="spacing" textLength="14" x="92.5" y="1690.6279">46</text><text fill="#000000" font-family="sans-serif" font-size="13" lengthAdjust="spacing" textLength="197" x="110.5" y="1690.6279">Show that AGV is preparing Order</text><!--MD5=[349cc7704fa7a72022ef1abd0fa4b231]
@startuml
'https://plantuml.com/sequence-diagram

autonumber
actor WarehouseEmployee

participant GiveOrderToAGVUI as UI

participant GiveOrderToAGVController as C

participant GiveOrderToAGVService as S

participant ProductOrderRepository as OR

participant ProductOrder as PO

participant ProductOrderDTO as DTO1

participant AGVConfigurationRepository as CR

participant AGV

participant AGVDTO as DTO2



WarehouseEmployee -> UI: "Give Order to AGV"
activate UI

UI -> C :allToBePreparedOrders()

activate C

C -> S:allToBePreparedOrders()

activate S

S -> OR :findToBePrepared()

activate OR

OR - -> S:Iterable<ProductOrder>
deactivate OR


loop foreach ProductOrder

S -> PO: toOrderDTO()
activate PO
PO -> DTO1: create
PO - -> S: ProductOrderDTO
deactivate PO
end
S -> C : Iterable<ProductOrderDTO>
deactivate S
C - -> UI: Iterable<ProductOrderDTO>
deactivate C
UI - -> WarehouseEmployee: Shows List of Orders
deactivate UI


WarehouseEmployee -> UI: Selects 1 Order
activate UI

UI -> C :allAvailableAGVs()

activate C

C -> S: allAvailableAGVs()

activate S

S -> CR :findAvailable()

activate CR

CR - -> S:Iterable<AGV>
deactivate CR


loop foreach AGV

S -> AGV: toAGVDTO()
activate AGV
AGV -> DTO2: create
AGV - -> S: AGVDTO
deactivate AGV
end
S -> C : Iterable<AGVDTO>
deactivate S
C - -> UI: Iterable<AGVDTO>
deactivate C




WarehouseEmployee <- - UI: Shows List of AGVs
deactivate
WarehouseEmployee -> UI: Selects 1 AGV
activate UI

UI -> C :giveOrderToAGV(agvDTO,productOrderDTO)
activate C

C -> S:grabRealValueAGV(agvDTO)
activate S

S->CR:findById(agvID)
activate CR
CR- ->S:Iterable<AGV>
deactivate CR

S - -> C: Iterable<AGV>



deactivate S

C -> S:grabRealValueProductOrder(productOrderDTO)
activate S

S->CR:findById(OrderId)
activate CR
CR- ->S:Iterable<ProductOrder>
deactivate CR

S - -> C: Iterable<ProductOrder>

deactivate S

'C -> S:changeAGVTaskStatus(agv)
'activate S
C->AGV:changeTaskTo("Preparing Order :"+OrderId)
activate AGV
deactivate AGV
C->AGV:changeStatusTo(status)
activate AGV
deactivate AGV
C->CR :save(agv)
activate CR
deactivate CR
'deactivate S

'C -> S:changeProductOrderStatus(productOrder)
'activate S
C-> PO:changeStatusTo(status)

activate PO
deactivate PO

C->OR :save(productOrder)
activate OR
deactivate OR
'deactivate C

C->S:showAGV(agvID)
activate S

S->CR:findById(agvID)
activate CR
CR- ->S:Iterable<AGV>
deactivate CR

S -> AGV: toAGVDTO()
activate AGV
AGV -> DTO2: create
AGV - -> S: AGVDTO
deactivate AGV

S- ->C :AGVDTO
deactivate S

C- ->UI:AGVDTO

'C- ->UI:AGVDTO
'deactivate S

WarehouseEmployee <- - UI: Show that AGV is preparing Order
deactivate
@enduml

@startuml

autonumber
actor WarehouseEmployee

participant GiveOrderToAGVUI as UI

participant GiveOrderToAGVController as C

participant GiveOrderToAGVService as S

participant ProductOrderRepository as OR

participant ProductOrder as PO

participant ProductOrderDTO as DTO1

participant AGVConfigurationRepository as CR

participant AGV

participant AGVDTO as DTO2



WarehouseEmployee -> UI: "Give Order to AGV"
activate UI

UI -> C :allToBePreparedOrders()

activate C

C -> S:allToBePreparedOrders()

activate S

S -> OR :findToBePrepared()

activate OR

OR - -> S:Iterable<ProductOrder>
deactivate OR


loop foreach ProductOrder

S -> PO: toOrderDTO()
activate PO
PO -> DTO1: create
PO - -> S: ProductOrderDTO
deactivate PO
end
S -> C : Iterable<ProductOrderDTO>
deactivate S
C - -> UI: Iterable<ProductOrderDTO>
deactivate C
UI - -> WarehouseEmployee: Shows List of Orders
deactivate UI


WarehouseEmployee -> UI: Selects 1 Order
activate UI

UI -> C :allAvailableAGVs()

activate C

C -> S: allAvailableAGVs()

activate S

S -> CR :findAvailable()

activate CR

CR - -> S:Iterable<AGV>
deactivate CR


loop foreach AGV

S -> AGV: toAGVDTO()
activate AGV
AGV -> DTO2: create
AGV - -> S: AGVDTO
deactivate AGV
end
S -> C : Iterable<AGVDTO>
deactivate S
C - -> UI: Iterable<AGVDTO>
deactivate C




WarehouseEmployee <- - UI: Shows List of AGVs
deactivate
WarehouseEmployee -> UI: Selects 1 AGV
activate UI

UI -> C :giveOrderToAGV(agvDTO,productOrderDTO)
activate C

C -> S:grabRealValueAGV(agvDTO)
activate S

S->CR:findById(agvID)
activate CR
CR- ->S:Iterable<AGV>
deactivate CR

S - -> C: Iterable<AGV>



deactivate S

C -> S:grabRealValueProductOrder(productOrderDTO)
activate S

S->CR:findById(OrderId)
activate CR
CR- ->S:Iterable<ProductOrder>
deactivate CR

S - -> C: Iterable<ProductOrder>

deactivate S

C->AGV:changeTaskTo("Preparing Order :"+OrderId)
activate AGV
deactivate AGV
C->AGV:changeStatusTo(status)
activate AGV
deactivate AGV
C->CR :save(agv)
activate CR
deactivate CR

C-> PO:changeStatusTo(status)

activate PO
deactivate PO

C->OR :save(productOrder)
activate OR
deactivate OR

C->S:showAGV(agvID)
activate S

S->CR:findById(agvID)
activate CR
CR- ->S:Iterable<AGV>
deactivate CR

S -> AGV: toAGVDTO()
activate AGV
AGV -> DTO2: create
AGV - -> S: AGVDTO
deactivate AGV

S- ->C :AGVDTO
deactivate S

C- ->UI:AGVDTO


WarehouseEmployee <- - UI: Show that AGV is preparing Order
deactivate
@enduml

PlantUML version 1.2022.4(Sat Apr 09 14:29:17 BST 2022)
(GPL source distribution)
Java Runtime: OpenJDK Runtime Environment
JVM: OpenJDK 64-Bit Server VM
Default Encoding: Cp1252
Language: pt
Country: PT
--></g></svg>