<?xml version="1.0" encoding="UTF-8" standalone="no"?><svg xmlns="http://www.w3.org/2000/svg" xmlns:xlink="http://www.w3.org/1999/xlink" contentStyleType="text/css" height="366px" preserveAspectRatio="none" style="width:1004px;height:366px;background:#FFFFFF;" version="1.1" viewBox="0 0 1004 366" width="1004px" zoomAndPan="magnify"><defs/><g><rect fill="#FFFFFF" height="30.3516" style="stroke:#181818;stroke-width:1.0;" width="10" x="963.5" y="114.9609"/><rect fill="#FFFFFF" height="30.3516" style="stroke:#181818;stroke-width:1.0;" width="10" x="963.5" y="175.6641"/><rect fill="#FFFFFF" height="30.3516" style="stroke:#181818;stroke-width:1.0;" width="10" x="963.5" y="236.3672"/><line style="stroke:#181818;stroke-width:0.5;stroke-dasharray:5.0,5.0;" x1="75" x2="75" y1="82.6094" y2="284.7188"/><line style="stroke:#181818;stroke-width:0.5;stroke-dasharray:5.0,5.0;" x1="968.5" x2="968.5" y1="82.6094" y2="284.7188"/><text fill="#000000" font-family="sans-serif" font-size="14" lengthAdjust="spacing" textLength="135" x="5" y="79.5332">WarehouseEmployee</text><ellipse cx="75.5" cy="13.5" fill="#E2E2F0" rx="8" ry="8" style="stroke:#181818;stroke-width:0.5;"/><path d="M75.5,21.5 L75.5,48.5 M62.5,29.5 L88.5,29.5 M75.5,48.5 L62.5,63.5 M75.5,48.5 L88.5,63.5 " fill="none" style="stroke:#181818;stroke-width:0.5;"/><text fill="#000000" font-family="sans-serif" font-size="14" lengthAdjust="spacing" textLength="135" x="5" y="298.252">WarehouseEmployee</text><ellipse cx="75.5" cy="309.8281" fill="#E2E2F0" rx="8" ry="8" style="stroke:#181818;stroke-width:0.5;"/><path d="M75.5,317.8281 L75.5,344.8281 M62.5,325.8281 L88.5,325.8281 M75.5,344.8281 L62.5,359.8281 M75.5,344.8281 L88.5,359.8281 " fill="none" style="stroke:#181818;stroke-width:0.5;"/><rect fill="#E2E2F0" height="31.6094" rx="2.5" ry="2.5" style="stroke:#181818;stroke-width:0.5;" width="60" x="938.5" y="50"/><text fill="#000000" font-family="sans-serif" font-size="14" lengthAdjust="spacing" textLength="46" x="945.5" y="71.5332">System</text><rect fill="#E2E2F0" height="31.6094" rx="2.5" ry="2.5" style="stroke:#181818;stroke-width:0.5;" width="60" x="938.5" y="283.7188"/><text fill="#000000" font-family="sans-serif" font-size="14" lengthAdjust="spacing" textLength="46" x="945.5" y="305.252">System</text><rect fill="#FFFFFF" height="30.3516" style="stroke:#181818;stroke-width:1.0;" width="10" x="963.5" y="114.9609"/><rect fill="#FFFFFF" height="30.3516" style="stroke:#181818;stroke-width:1.0;" width="10" x="963.5" y="175.6641"/><rect fill="#FFFFFF" height="30.3516" style="stroke:#181818;stroke-width:1.0;" width="10" x="963.5" y="236.3672"/><polygon fill="#181818" points="951.5,110.9609,961.5,114.9609,951.5,118.9609,955.5,114.9609" style="stroke:#181818;stroke-width:1.0;"/><line style="stroke:#181818;stroke-width:1.0;" x1="75.5" x2="957.5" y1="114.9609" y2="114.9609"/><text fill="#000000" font-family="sans-serif" font-size="13" font-weight="bold" lengthAdjust="spacing" textLength="7" x="82.5" y="110.1045">1</text><text fill="#000000" font-family="sans-serif" font-size="13" lengthAdjust="spacing" textLength="118" x="93.5" y="110.1045">"Give Order to AGV"</text><polygon fill="#181818" points="86.5,141.3125,76.5,145.3125,86.5,149.3125,82.5,145.3125" style="stroke:#181818;stroke-width:1.0;"/><line style="stroke:#181818;stroke-width:1.0;stroke-dasharray:2.0,2.0;" x1="80.5" x2="967.5" y1="145.3125" y2="145.3125"/><text fill="#000000" font-family="sans-serif" font-size="13" font-weight="bold" lengthAdjust="spacing" textLength="7" x="92.5" y="140.4561">2</text><text fill="#000000" font-family="sans-serif" font-size="13" lengthAdjust="spacing" textLength="853" x="103.5" y="140.4561">Shows List of [TO BE PREPARED] Orders (Order ID,Order date,Products name/quantity,Order volume/weight,Customer ID/name,ClerkResponsible)</text><polygon fill="#181818" points="951.5,171.6641,961.5,175.6641,951.5,179.6641,955.5,175.6641" style="stroke:#181818;stroke-width:1.0;"/><line style="stroke:#181818;stroke-width:1.0;" x1="75.5" x2="957.5" y1="175.6641" y2="175.6641"/><text fill="#000000" font-family="sans-serif" font-size="13" font-weight="bold" lengthAdjust="spacing" textLength="7" x="82.5" y="170.8076">3</text><text fill="#000000" font-family="sans-serif" font-size="13" lengthAdjust="spacing" textLength="91" x="93.5" y="170.8076">Selects 1 Order</text><polygon fill="#181818" points="86.5,202.0156,76.5,206.0156,86.5,210.0156,82.5,206.0156" style="stroke:#181818;stroke-width:1.0;"/><line style="stroke:#181818;stroke-width:1.0;stroke-dasharray:2.0,2.0;" x1="80.5" x2="967.5" y1="206.0156" y2="206.0156"/><text fill="#000000" font-family="sans-serif" font-size="13" font-weight="bold" lengthAdjust="spacing" textLength="7" x="92.5" y="201.1592">4</text><text fill="#000000" font-family="sans-serif" font-size="13" lengthAdjust="spacing" textLength="172" x="103.5" y="201.1592">Shows List of Available AGVs</text><polygon fill="#181818" points="951.5,232.3672,961.5,236.3672,951.5,240.3672,955.5,236.3672" style="stroke:#181818;stroke-width:1.0;"/><line style="stroke:#181818;stroke-width:1.0;" x1="75.5" x2="957.5" y1="236.3672" y2="236.3672"/><text fill="#000000" font-family="sans-serif" font-size="13" font-weight="bold" lengthAdjust="spacing" textLength="7" x="82.5" y="231.5107">5</text><text fill="#000000" font-family="sans-serif" font-size="13" lengthAdjust="spacing" textLength="423" x="93.5" y="231.5107">Selects 1 AGV (AGV ID,Autonomy,MaxVolume/MaxWeight,Status,Task)</text><polygon fill="#181818" points="86.5,262.7188,76.5,266.7188,86.5,270.7188,82.5,266.7188" style="stroke:#181818;stroke-width:1.0;"/><line style="stroke:#181818;stroke-width:1.0;stroke-dasharray:2.0,2.0;" x1="80.5" x2="967.5" y1="266.7188" y2="266.7188"/><text fill="#000000" font-family="sans-serif" font-size="13" font-weight="bold" lengthAdjust="spacing" textLength="7" x="92.5" y="261.8623">6</text><text fill="#000000" font-family="sans-serif" font-size="13" lengthAdjust="spacing" textLength="197" x="103.5" y="261.8623">Show that AGV is preparing Order</text><!--MD5=[5fa1c4dd914a0fb675789f25f2f6fabd]
@startuml
'https://plantuml.com/sequence-diagram

autonumber
actor WarehouseEmployee
WarehouseEmployee -> System: "Give Order to AGV"
activate System

System - -> WarehouseEmployee: Shows List of [TO BE PREPARED] Orders (Order ID,Order date,Products name/quantity,Order volume/weight,Customer ID/name,ClerkResponsible)
deactivate


WarehouseEmployee -> System: Selects 1 Order
activate System


WarehouseEmployee <- - System: Shows List of Available AGVs
deactivate
WarehouseEmployee -> System: Selects 1 AGV (AGV ID,Autonomy,MaxVolume/MaxWeight,Status,Task)
activate System
WarehouseEmployee <- - System: Show that AGV is preparing Order
deactivate
@enduml

@startuml

autonumber
actor WarehouseEmployee
WarehouseEmployee -> System: "Give Order to AGV"
activate System

System - -> WarehouseEmployee: Shows List of [TO BE PREPARED] Orders (Order ID,Order date,Products name/quantity,Order volume/weight,Customer ID/name,ClerkResponsible)
deactivate


WarehouseEmployee -> System: Selects 1 Order
activate System


WarehouseEmployee <- - System: Shows List of Available AGVs
deactivate
WarehouseEmployee -> System: Selects 1 AGV (AGV ID,Autonomy,MaxVolume/MaxWeight,Status,Task)
activate System
WarehouseEmployee <- - System: Show that AGV is preparing Order
deactivate
@enduml

PlantUML version 1.2022.4(Sat Apr 09 14:29:17 BST 2022)
(GPL source distribution)
Java Runtime: OpenJDK Runtime Environment
JVM: OpenJDK 64-Bit Server VM
Default Encoding: Cp1252
Language: pt
Country: PT
--></g></svg>