<?xml version="1.0" encoding="UTF-8" standalone="no"?><svg xmlns="http://www.w3.org/2000/svg" xmlns:xlink="http://www.w3.org/1999/xlink" contentScriptType="application/ecmascript" contentStyleType="text/css" height="624px" preserveAspectRatio="none" style="width:639px;height:624px;background:#FFFFFF;" version="1.1" viewBox="0 0 639 624" width="639px" zoomAndPan="magnify"><defs><filter height="300%" id="f1l2373oldktgg" width="300%" x="-1" y="-1"><feGaussianBlur result="blurOut" stdDeviation="2.0"/><feColorMatrix in="blurOut" result="blurOut2" type="matrix" values="0 0 0 0 0 0 0 0 0 0 0 0 0 0 0 0 0 0 .4 0"/><feOffset dx="4.0" dy="4.0" in="blurOut2" result="blurOut3"/><feBlend in="SourceGraphic" in2="blurOut3" mode="normal"/></filter></defs><g><rect fill="#FFFFFF" filter="url(#f1l2373oldktgg)" height="285.6484" style="stroke:#A80036;stroke-width:1.0;" width="10" x="441.5" y="121.9609"/><rect fill="#FFFFFF" filter="url(#f1l2373oldktgg)" height="30.3516" style="stroke:#A80036;stroke-width:1.0;" width="10" x="441.5" y="429.9609"/><rect fill="#FFFFFF" filter="url(#f1l2373oldktgg)" height="30.3516" style="stroke:#A80036;stroke-width:1.0;" width="10" x="441.5" y="490.6641"/><rect fill="#FFFFFF" filter="url(#f1l2373oldktgg)" height="220.2969" style="stroke:#000000;stroke-width:2.0;" width="487.5" x="10" y="180.3125"/><rect fill="#FFFFFF" height="171.5938" style="stroke:none;stroke-width:1.0;" width="487.5" x="10" y="229.0156"/><rect fill="#FFFFFF" filter="url(#f1l2373oldktgg)" height="48.7031" style="stroke:#000000;stroke-width:2.0;" width="467.5" x="20" y="282.2031"/><rect fill="#FFFFFF" filter="url(#f1l2373oldktgg)" height="48.7031" style="stroke:#000000;stroke-width:2.0;" width="467.5" x="20" y="344.9063"/><line style="stroke:#A80036;stroke-width:1.0;stroke-dasharray:5.0,5.0;" x1="100" x2="100" y1="89.6094" y2="539.0156"/><line style="stroke:#A80036;stroke-width:1.0;stroke-dasharray:5.0,5.0;" x1="446.5" x2="446.5" y1="89.6094" y2="539.0156"/><text fill="#000000" font-family="sans-serif" font-size="14" lengthAdjust="spacing" textLength="135" x="30" y="86.5332">WarehouseEmployee</text><ellipse cx="100.5" cy="15" fill="#FEFECE" filter="url(#f1l2373oldktgg)" rx="8" ry="8" style="stroke:#A80036;stroke-width:2.0;"/><path d="M100.5,23 L100.5,50 M87.5,31 L113.5,31 M100.5,50 L87.5,65 M100.5,50 L113.5,65 " fill="none" filter="url(#f1l2373oldktgg)" style="stroke:#A80036;stroke-width:2.0;"/><text fill="#000000" font-family="sans-serif" font-size="14" lengthAdjust="spacing" textLength="135" x="30" y="552.5488">WarehouseEmployee</text><ellipse cx="100.5" cy="565.625" fill="#FEFECE" filter="url(#f1l2373oldktgg)" rx="8" ry="8" style="stroke:#A80036;stroke-width:2.0;"/><path d="M100.5,573.625 L100.5,600.625 M87.5,581.625 L113.5,581.625 M100.5,600.625 L87.5,615.625 M100.5,600.625 L113.5,615.625 " fill="none" filter="url(#f1l2373oldktgg)" style="stroke:#A80036;stroke-width:2.0;"/><rect fill="#FEFECE" filter="url(#f1l2373oldktgg)" height="31.6094" style="stroke:#A80036;stroke-width:1.5;" width="58" x="415.5" y="53"/><text fill="#000000" font-family="sans-serif" font-size="14" lengthAdjust="spacing" textLength="44" x="422.5" y="74.5332">system</text><rect fill="#FEFECE" filter="url(#f1l2373oldktgg)" height="31.6094" style="stroke:#A80036;stroke-width:1.5;" width="58" x="415.5" y="538.0156"/><text fill="#000000" font-family="sans-serif" font-size="14" lengthAdjust="spacing" textLength="44" x="422.5" y="559.5488">system</text><rect fill="#FFFFFF" filter="url(#f1l2373oldktgg)" height="285.6484" style="stroke:#A80036;stroke-width:1.0;" width="10" x="441.5" y="121.9609"/><rect fill="#FFFFFF" filter="url(#f1l2373oldktgg)" height="30.3516" style="stroke:#A80036;stroke-width:1.0;" width="10" x="441.5" y="429.9609"/><rect fill="#FFFFFF" filter="url(#f1l2373oldktgg)" height="30.3516" style="stroke:#A80036;stroke-width:1.0;" width="10" x="441.5" y="490.6641"/><polygon fill="#A80036" points="429.5,117.9609,439.5,121.9609,429.5,125.9609,433.5,121.9609" style="stroke:#A80036;stroke-width:1.0;"/><line style="stroke:#A80036;stroke-width:1.0;" x1="100.5" x2="435.5" y1="121.9609" y2="121.9609"/><text fill="#000000" font-family="sans-serif" font-size="13" font-weight="bold" lengthAdjust="spacing" textLength="7" x="107.5" y="117.1045">1</text><text fill="#000000" font-family="sans-serif" font-size="13" lengthAdjust="spacing" textLength="311" x="118.5" y="117.1045">request upload/update JSON file with warehouse plant</text><line style="stroke:#A80036;stroke-width:1.0;stroke-dasharray:2.0,2.0;" x1="451.5" x2="493.5" y1="152.3125" y2="152.3125"/><line style="stroke:#A80036;stroke-width:1.0;stroke-dasharray:2.0,2.0;" x1="493.5" x2="493.5" y1="152.3125" y2="165.3125"/><line style="stroke:#A80036;stroke-width:1.0;stroke-dasharray:2.0,2.0;" x1="452.5" x2="493.5" y1="165.3125" y2="165.3125"/><polygon fill="#A80036" points="462.5,161.3125,452.5,165.3125,462.5,169.3125,458.5,165.3125" style="stroke:#A80036;stroke-width:1.0;"/><text fill="#000000" font-family="sans-serif" font-size="13" font-weight="bold" lengthAdjust="spacing" textLength="7" x="458.5" y="147.4561">2</text><text fill="#000000" font-family="sans-serif" font-size="13" lengthAdjust="spacing" textLength="163" x="469.5" y="147.4561">sees if it as a json file saved</text><path d="M10,180.3125 L71,180.3125 L71,188.3125 L61,198.3125 L10,198.3125 L10,180.3125 " fill="#EEEEEE" style="stroke:#000000;stroke-width:1.0;"/><rect fill="none" height="220.2969" style="stroke:#000000;stroke-width:2.0;" width="487.5" x="10" y="180.3125"/><text fill="#000000" font-family="sans-serif" font-size="13" font-weight="bold" lengthAdjust="spacing" textLength="16" x="25" y="194.8076">alt</text><text fill="#000000" font-family="sans-serif" font-size="11" font-weight="bold" lengthAdjust="spacing" textLength="140" x="86" y="193.7314">[if doesn't have JSON file]</text><polygon fill="#A80036" points="111.5,217.0156,101.5,221.0156,111.5,225.0156,107.5,221.0156" style="stroke:#A80036;stroke-width:1.0;"/><line style="stroke:#A80036;stroke-width:1.0;stroke-dasharray:2.0,2.0;" x1="105.5" x2="440.5" y1="221.0156" y2="221.0156"/><text fill="#000000" font-family="sans-serif" font-size="13" font-weight="bold" lengthAdjust="spacing" textLength="7" x="117.5" y="216.1592">3</text><text fill="#000000" font-family="sans-serif" font-size="13" lengthAdjust="spacing" textLength="155" x="128.5" y="216.1592">request to chose JSON file</text><line style="stroke:#000000;stroke-width:1.0;stroke-dasharray:2.0,2.0;" x1="10" x2="497.5" y1="230.0156" y2="230.0156"/><text fill="#000000" font-family="sans-serif" font-size="11" font-weight="bold" lengthAdjust="spacing" textLength="89" x="15" y="241.4346">[if has JSON file]</text><polygon fill="#A80036" points="111.5,263.2031,101.5,267.2031,111.5,271.2031,107.5,267.2031" style="stroke:#A80036;stroke-width:1.0;"/><line style="stroke:#A80036;stroke-width:1.0;stroke-dasharray:2.0,2.0;" x1="105.5" x2="440.5" y1="267.2031" y2="267.2031"/><text fill="#000000" font-family="sans-serif" font-size="13" font-weight="bold" lengthAdjust="spacing" textLength="7" x="117.5" y="262.3467">4</text><text fill="#000000" font-family="sans-serif" font-size="13" lengthAdjust="spacing" textLength="122" x="128.5" y="262.3467">says it has JSON file</text><path d="M20,282.2031 L85,282.2031 L85,290.2031 L75,300.2031 L20,300.2031 L20,282.2031 " fill="#EEEEEE" style="stroke:#000000;stroke-width:1.0;"/><rect fill="none" height="48.7031" style="stroke:#000000;stroke-width:2.0;" width="467.5" x="20" y="282.2031"/><text fill="#000000" font-family="sans-serif" font-size="13" font-weight="bold" lengthAdjust="spacing" textLength="20" x="35" y="296.6982">opt</text><text fill="#000000" font-family="sans-serif" font-size="11" font-weight="bold" lengthAdjust="spacing" textLength="52" x="100" y="295.6221">[option 1]</text><polygon fill="#A80036" points="111.5,318.9063,101.5,322.9063,111.5,326.9063,107.5,322.9063" style="stroke:#A80036;stroke-width:1.0;"/><line style="stroke:#A80036;stroke-width:1.0;stroke-dasharray:2.0,2.0;" x1="105.5" x2="440.5" y1="322.9063" y2="322.9063"/><text fill="#000000" font-family="sans-serif" font-size="13" font-weight="bold" lengthAdjust="spacing" textLength="7" x="117.5" y="318.0498">5</text><text fill="#000000" font-family="sans-serif" font-size="13" lengthAdjust="spacing" textLength="155" x="128.5" y="318.0498">request to chose JSON file</text><path d="M20,344.9063 L85,344.9063 L85,352.9063 L75,362.9063 L20,362.9063 L20,344.9063 " fill="#EEEEEE" style="stroke:#000000;stroke-width:1.0;"/><rect fill="none" height="48.7031" style="stroke:#000000;stroke-width:2.0;" width="467.5" x="20" y="344.9063"/><text fill="#000000" font-family="sans-serif" font-size="13" font-weight="bold" lengthAdjust="spacing" textLength="20" x="35" y="359.4014">opt</text><text fill="#000000" font-family="sans-serif" font-size="11" font-weight="bold" lengthAdjust="spacing" textLength="52" x="100" y="358.3252">[option 2]</text><polygon fill="#A80036" points="111.5,381.6094,101.5,385.6094,111.5,389.6094,107.5,385.6094" style="stroke:#A80036;stroke-width:1.0;"/><line style="stroke:#A80036;stroke-width:1.0;stroke-dasharray:2.0,2.0;" x1="105.5" x2="440.5" y1="385.6094" y2="385.6094"/><text fill="#000000" font-family="sans-serif" font-size="13" font-weight="bold" lengthAdjust="spacing" textLength="7" x="117.5" y="380.7529">6</text><text fill="#000000" font-family="sans-serif" font-size="13" lengthAdjust="spacing" textLength="21" x="128.5" y="380.7529">exit</text><polygon fill="#A80036" points="429.5,425.9609,439.5,429.9609,429.5,433.9609,433.5,429.9609" style="stroke:#A80036;stroke-width:1.0;"/><line style="stroke:#A80036;stroke-width:1.0;" x1="100.5" x2="435.5" y1="429.9609" y2="429.9609"/><text fill="#000000" font-family="sans-serif" font-size="13" font-weight="bold" lengthAdjust="spacing" textLength="7" x="107.5" y="425.1045">7</text><text fill="#000000" font-family="sans-serif" font-size="13" lengthAdjust="spacing" textLength="232" x="118.5" y="425.1045">chooses JSON file with warehouse plant</text><polygon fill="#A80036" points="111.5,456.3125,101.5,460.3125,111.5,464.3125,107.5,460.3125" style="stroke:#A80036;stroke-width:1.0;"/><line style="stroke:#A80036;stroke-width:1.0;stroke-dasharray:2.0,2.0;" x1="105.5" x2="445.5" y1="460.3125" y2="460.3125"/><text fill="#000000" font-family="sans-serif" font-size="13" font-weight="bold" lengthAdjust="spacing" textLength="7" x="117.5" y="455.4561">8</text><text fill="#000000" font-family="sans-serif" font-size="13" lengthAdjust="spacing" textLength="232" x="128.5" y="455.4561">shows information requests confirmation</text><polygon fill="#A80036" points="429.5,486.6641,439.5,490.6641,429.5,494.6641,433.5,490.6641" style="stroke:#A80036;stroke-width:1.0;"/><line style="stroke:#A80036;stroke-width:1.0;" x1="100.5" x2="435.5" y1="490.6641" y2="490.6641"/><text fill="#000000" font-family="sans-serif" font-size="13" font-weight="bold" lengthAdjust="spacing" textLength="7" x="107.5" y="485.8076">9</text><text fill="#000000" font-family="sans-serif" font-size="13" lengthAdjust="spacing" textLength="100" x="118.5" y="485.8076">confirms the data</text><polygon fill="#A80036" points="111.5,517.0156,101.5,521.0156,111.5,525.0156,107.5,521.0156" style="stroke:#A80036;stroke-width:1.0;"/><line style="stroke:#A80036;stroke-width:1.0;stroke-dasharray:2.0,2.0;" x1="105.5" x2="445.5" y1="521.0156" y2="521.0156"/><text fill="#000000" font-family="sans-serif" font-size="13" font-weight="bold" lengthAdjust="spacing" textLength="14" x="117.5" y="516.1592">10</text><text fill="#000000" font-family="sans-serif" font-size="13" lengthAdjust="spacing" textLength="104" x="135.5" y="516.1592">shows information</text><!--MD5=[7862e9b8ba56bfea1d084659a9189935]
@startuml
'https://plantuml.com/sequence-diagram

autonumber

actor WarehouseEmployee

WarehouseEmployee -> system: request upload/update JSON file with warehouse plant
activate system
 

system - -> system: sees if it as a json file saved
alt if doesn't have JSON file
system - -> WarehouseEmployee : request to chose JSON file
else if has JSON file
system - -> WarehouseEmployee : says it has JSON file
opt option 1
system - -> WarehouseEmployee : request to chose JSON file
end
opt option 2
system - -> WarehouseEmployee : exit
end

end
deactivate system

WarehouseEmployee -> system: chooses JSON file with warehouse plant
activate system

WarehouseEmployee <- - system: shows information requests confirmation
deactivate system
WarehouseEmployee -> system: confirms the data
activate system

WarehouseEmployee <- - system: shows information
deactivate system
@enduml

@startuml

autonumber

actor WarehouseEmployee

WarehouseEmployee -> system: request upload/update JSON file with warehouse plant
activate system
 

system - -> system: sees if it as a json file saved
alt if doesn't have JSON file
system - -> WarehouseEmployee : request to chose JSON file
else if has JSON file
system - -> WarehouseEmployee : says it has JSON file
opt option 1
system - -> WarehouseEmployee : request to chose JSON file
end
opt option 2
system - -> WarehouseEmployee : exit
end

end
deactivate system

WarehouseEmployee -> system: chooses JSON file with warehouse plant
activate system

WarehouseEmployee <- - system: shows information requests confirmation
deactivate system
WarehouseEmployee -> system: confirms the data
activate system

WarehouseEmployee <- - system: shows information
deactivate system
@enduml

PlantUML version 1.2022.1(Tue Feb 01 18:19:58 GMT 2022)
(GPL source distribution)
Java Runtime: OpenJDK Runtime Environment
JVM: OpenJDK 64-Bit Server VM
Default Encoding: Cp1252
Language: pt
Country: PT
--></g></svg>