<?xml version="1.0" encoding="UTF-8" standalone="no"?><svg xmlns="http://www.w3.org/2000/svg" xmlns:xlink="http://www.w3.org/1999/xlink" contentScriptType="application/ecmascript" contentStyleType="text/css" height="435px" preserveAspectRatio="none" style="width:1033px;height:435px;background:#FFFFFF;" version="1.1" viewBox="0 0 1033 435" width="1033px" zoomAndPan="magnify"><defs><filter height="300%" id="f5oz46qwmxptc" width="300%" x="-1" y="-1"><feGaussianBlur result="blurOut" stdDeviation="2.0"/><feColorMatrix in="blurOut" result="blurOut2" type="matrix" values="0 0 0 0 0 0 0 0 0 0 0 0 0 0 0 0 0 0 .4 0"/><feOffset dx="4.0" dy="4.0" in="blurOut2" result="blurOut3"/><feBlend in="SourceGraphic" in2="blurOut3" mode="normal"/></filter></defs><g><rect fill="#FFFFFF" filter="url(#f5oz46qwmxptc)" height="271.8125" style="stroke:#A80036;stroke-width:1.0;" width="10" x="62.5" y="147.3125"/><rect fill="#FFFFFF" filter="url(#f5oz46qwmxptc)" height="271.8125" style="stroke:#A80036;stroke-width:1.0;" width="10" x="260.5" y="147.3125"/><rect fill="#FFFFFF" filter="url(#f5oz46qwmxptc)" height="271.8125" style="stroke:#A80036;stroke-width:1.0;" width="10" x="418.5" y="147.3125"/><rect fill="#FFFFFF" filter="url(#f5oz46qwmxptc)" height="60.7031" style="stroke:#A80036;stroke-width:1.0;" width="10" x="616" y="177.6641"/><rect fill="#FFFFFF" filter="url(#f5oz46qwmxptc)" height="60.7031" style="stroke:#A80036;stroke-width:1.0;" width="10" x="814" y="238.3672"/><rect fill="#FFFFFF" filter="url(#f5oz46qwmxptc)" height="65.7031" style="stroke:#A80036;stroke-width:1.0;" width="10" x="957.5" y="337.4219"/><rect fill="#FFFFFF" filter="url(#f5oz46qwmxptc)" height="304.5156" style="stroke:#000000;stroke-width:2.0;" width="1009" x="10" y="106.6094"/><line style="stroke:#A80036;stroke-width:1.0;stroke-dasharray:5.0,5.0;" x1="67" x2="67" y1="89.6094" y2="428.125"/><line style="stroke:#A80036;stroke-width:1.0;stroke-dasharray:5.0,5.0;" x1="265" x2="265" y1="89.6094" y2="428.125"/><line style="stroke:#A80036;stroke-width:1.0;stroke-dasharray:5.0,5.0;" x1="423" x2="423" y1="89.6094" y2="428.125"/><line style="stroke:#A80036;stroke-width:1.0;stroke-dasharray:5.0,5.0;" x1="621" x2="621" y1="89.6094" y2="428.125"/><line style="stroke:#A80036;stroke-width:1.0;stroke-dasharray:5.0,5.0;" x1="819" x2="819" y1="89.6094" y2="428.125"/><line style="stroke:#A80036;stroke-width:1.0;stroke-dasharray:5.0,5.0;" x1="962" x2="962" y1="89.6094" y2="428.125"/><text fill="#000000" font-family="sans-serif" font-size="14" lengthAdjust="spacing" textLength="89" x="20" y="86.5332">AGV Manager</text><ellipse cx="67.5" cy="15" fill="#FEFECE" filter="url(#f5oz46qwmxptc)" rx="8" ry="8" style="stroke:#A80036;stroke-width:2.0;"/><path d="M67.5,23 L67.5,50 M54.5,31 L80.5,31 M67.5,50 L54.5,65 M67.5,50 L80.5,65 " fill="none" filter="url(#f5oz46qwmxptc)" style="stroke:#A80036;stroke-width:2.0;"/><rect fill="#FEFECE" filter="url(#f5oz46qwmxptc)" height="31.6094" style="stroke:#A80036;stroke-width:1.5;" width="119" x="204" y="53"/><text fill="#000000" font-family="sans-serif" font-size="14" lengthAdjust="spacing" textLength="105" x="211" y="74.5332">: AGVManagerUI</text><rect fill="#FEFECE" filter="url(#f5oz46qwmxptc)" height="31.6094" style="stroke:#A80036;stroke-width:1.5;" width="169" x="337" y="53"/><text fill="#000000" font-family="sans-serif" font-size="14" lengthAdjust="spacing" textLength="155" x="344" y="74.5332">: AGVManagerController</text><rect fill="#FEFECE" filter="url(#f5oz46qwmxptc)" height="31.6094" style="stroke:#A80036;stroke-width:1.5;" width="198" x="520" y="53"/><text fill="#000000" font-family="sans-serif" font-size="14" lengthAdjust="spacing" textLength="184" x="527" y="74.5332">: AGVConfigurationController</text><rect fill="#FEFECE" filter="url(#f5oz46qwmxptc)" height="31.6094" style="stroke:#A80036;stroke-width:1.5;" width="170" x="732" y="53"/><text fill="#000000" font-family="sans-serif" font-size="14" lengthAdjust="spacing" textLength="156" x="739" y="74.5332">: ProductOrderController</text><rect fill="#FEFECE" filter="url(#f5oz46qwmxptc)" height="31.6094" style="stroke:#A80036;stroke-width:1.5;" width="89" x="916" y="53"/><text fill="#000000" font-family="sans-serif" font-size="14" lengthAdjust="spacing" textLength="75" x="923" y="74.5332">: TaskTimer</text><rect fill="#FFFFFF" filter="url(#f5oz46qwmxptc)" height="271.8125" style="stroke:#A80036;stroke-width:1.0;" width="10" x="62.5" y="147.3125"/><rect fill="#FFFFFF" filter="url(#f5oz46qwmxptc)" height="271.8125" style="stroke:#A80036;stroke-width:1.0;" width="10" x="260.5" y="147.3125"/><rect fill="#FFFFFF" filter="url(#f5oz46qwmxptc)" height="271.8125" style="stroke:#A80036;stroke-width:1.0;" width="10" x="418.5" y="147.3125"/><rect fill="#FFFFFF" filter="url(#f5oz46qwmxptc)" height="60.7031" style="stroke:#A80036;stroke-width:1.0;" width="10" x="616" y="177.6641"/><rect fill="#FFFFFF" filter="url(#f5oz46qwmxptc)" height="60.7031" style="stroke:#A80036;stroke-width:1.0;" width="10" x="814" y="238.3672"/><rect fill="#FFFFFF" filter="url(#f5oz46qwmxptc)" height="65.7031" style="stroke:#A80036;stroke-width:1.0;" width="10" x="957.5" y="337.4219"/><path d="M10,106.6094 L83,106.6094 L83,114.6094 L73,124.6094 L10,124.6094 L10,106.6094 " fill="#EEEEEE" style="stroke:#000000;stroke-width:1.0;"/><rect fill="none" height="304.5156" style="stroke:#000000;stroke-width:2.0;" width="1009" x="10" y="106.6094"/><text fill="#000000" font-family="sans-serif" font-size="13" font-weight="bold" lengthAdjust="spacing" textLength="28" x="25" y="121.1045">loop</text><text fill="#000000" font-family="sans-serif" font-size="11" font-weight="bold" lengthAdjust="spacing" textLength="103" x="98" y="120.0283">[Give Task to AGV]</text><polygon fill="#A80036" points="248.5,143.3125,258.5,147.3125,248.5,151.3125,252.5,147.3125" style="stroke:#A80036;stroke-width:1.0;"/><line style="stroke:#A80036;stroke-width:1.0;" x1="72.5" x2="254.5" y1="147.3125" y2="147.3125"/><text fill="#000000" font-family="sans-serif" font-size="13" font-weight="bold" lengthAdjust="spacing" textLength="7" x="79.5" y="142.4561">1</text><text fill="#000000" font-family="sans-serif" font-size="13" lengthAdjust="spacing" textLength="163" x="90.5" y="142.4561">Automatic sign task to AGV</text><polygon fill="#A80036" points="406.5,173.6641,416.5,177.6641,406.5,181.6641,410.5,177.6641" style="stroke:#A80036;stroke-width:1.0;"/><line style="stroke:#A80036;stroke-width:1.0;" x1="270.5" x2="412.5" y1="177.6641" y2="177.6641"/><text fill="#000000" font-family="sans-serif" font-size="13" font-weight="bold" lengthAdjust="spacing" textLength="7" x="277.5" y="172.8076">2</text><text fill="#000000" font-family="sans-serif" font-size="13" lengthAdjust="spacing" textLength="56" x="288.5" y="172.8076">mainLoop</text><polygon fill="#A80036" points="604,204.0156,614,208.0156,604,212.0156,608,208.0156" style="stroke:#A80036;stroke-width:1.0;"/><line style="stroke:#A80036;stroke-width:1.0;" x1="428.5" x2="610" y1="208.0156" y2="208.0156"/><text fill="#000000" font-family="sans-serif" font-size="13" font-weight="bold" lengthAdjust="spacing" textLength="7" x="435.5" y="203.1592">3</text><text fill="#000000" font-family="sans-serif" font-size="13" lengthAdjust="spacing" textLength="63" x="446.5" y="203.1592">findAllAGV</text><polygon fill="#A80036" points="439.5,234.3672,429.5,238.3672,439.5,242.3672,435.5,238.3672" style="stroke:#A80036;stroke-width:1.0;"/><line style="stroke:#A80036;stroke-width:1.0;" x1="433.5" x2="620" y1="238.3672" y2="238.3672"/><text fill="#000000" font-family="sans-serif" font-size="13" font-weight="bold" lengthAdjust="spacing" textLength="7" x="445.5" y="233.5107">4</text><text fill="#000000" font-family="sans-serif" font-size="13" lengthAdjust="spacing" textLength="113" x="456.5" y="233.5107">gives all found AGV</text><polygon fill="#A80036" points="802,264.7188,812,268.7188,802,272.7188,806,268.7188" style="stroke:#A80036;stroke-width:1.0;"/><line style="stroke:#A80036;stroke-width:1.0;" x1="428.5" x2="808" y1="268.7188" y2="268.7188"/><text fill="#000000" font-family="sans-serif" font-size="13" font-weight="bold" lengthAdjust="spacing" textLength="7" x="435.5" y="263.8623">5</text><text fill="#000000" font-family="sans-serif" font-size="13" lengthAdjust="spacing" textLength="112" x="446.5" y="263.8623">findAllProductOrder</text><polygon fill="#A80036" points="439.5,295.0703,429.5,299.0703,439.5,303.0703,435.5,299.0703" style="stroke:#A80036;stroke-width:1.0;"/><line style="stroke:#A80036;stroke-width:1.0;" x1="433.5" x2="818" y1="299.0703" y2="299.0703"/><text fill="#000000" font-family="sans-serif" font-size="13" font-weight="bold" lengthAdjust="spacing" textLength="7" x="445.5" y="294.2139">6</text><text fill="#000000" font-family="sans-serif" font-size="13" lengthAdjust="spacing" textLength="166" x="456.5" y="294.2139">gives all found Product Order</text><line style="stroke:#A80036;stroke-width:1.0;" x1="428.5" x2="475.5" y1="324.4219" y2="324.4219"/><line style="stroke:#A80036;stroke-width:1.0;" x1="475.5" x2="475.5" y1="324.4219" y2="337.4219"/><line style="stroke:#A80036;stroke-width:1.0;" x1="434.5" x2="475.5" y1="337.4219" y2="337.4219"/><polygon fill="#A80036" points="444.5,333.4219,434.5,337.4219,444.5,341.4219,440.5,337.4219" style="stroke:#A80036;stroke-width:1.0;"/><text fill="#000000" font-family="sans-serif" font-size="13" font-weight="bold" lengthAdjust="spacing" textLength="7" x="440.5" y="319.5654">7</text><text fill="#000000" font-family="sans-serif" font-size="13" lengthAdjust="spacing" textLength="84" x="451.5" y="319.5654">addTaskToAgv</text><polygon fill="#A80036" points="945.5,368.7734,955.5,372.7734,945.5,376.7734,949.5,372.7734" style="stroke:#A80036;stroke-width:1.0;"/><line style="stroke:#A80036;stroke-width:1.0;" x1="428.5" x2="951.5" y1="372.7734" y2="372.7734"/><text fill="#000000" font-family="sans-serif" font-size="13" font-weight="bold" lengthAdjust="spacing" textLength="7" x="435.5" y="367.917">8</text><text fill="#000000" font-family="sans-serif" font-size="13" lengthAdjust="spacing" textLength="95" x="446.5" y="367.917">gives agv a Task</text><polygon fill="#A80036" points="439.5,399.125,429.5,403.125,439.5,407.125,435.5,403.125" style="stroke:#A80036;stroke-width:1.0;"/><line style="stroke:#A80036;stroke-width:1.0;" x1="433.5" x2="961.5" y1="403.125" y2="403.125"/><text fill="#000000" font-family="sans-serif" font-size="13" font-weight="bold" lengthAdjust="spacing" textLength="7" x="445.5" y="398.2686">9</text><text fill="#000000" font-family="sans-serif" font-size="13" lengthAdjust="spacing" textLength="64" x="456.5" y="398.2686">task ended</text><!--MD5=[249fdc92625b4c184e470afc39e8d922]
@startuml

autonumber
hide footbox

actor "AGV Manager" as actor
participant ": AGVManagerUI" as ui
participant ": AGVManagerController" as ctrl
participant ": AGVConfigurationController" as ctrlAGV
participant ": ProductOrderController" as ctrlOrder
participant ": TaskTimer" as timer


loop Give Task to AGV
actor -> ui: Automatic sign task to AGV
activate ui
activate actor
activate ctrl
ui-> ctrl: mainLoop
activate ctrlAGV
ctrl -> ctrlAGV: findAllAGV
ctrlAGV -> ctrl: gives all found AGV
deactivate ctrlAGV

activate ctrlOrder
ctrl -> ctrlOrder: findAllProductOrder
ctrlOrder -> ctrl: gives all found Product Order
deactivate ctrlOrder
ctrl -> ctrl: addTaskToAgv
activate timer
ctrl -> timer: gives agv a Task
timer-> ctrl: task ended
deactivate timer



end
@enduml

PlantUML version 1.2022.0(Tue Jan 11 16:16:42 GMT 2022)
(GPL source distribution)
Java Runtime: OpenJDK Runtime Environment
JVM: OpenJDK 64-Bit Server VM
Default Encoding: Cp1252
Language: pt
Country: PT
--></g></svg>