<?xml version="1.0" encoding="UTF-8" standalone="no"?><svg xmlns="http://www.w3.org/2000/svg" xmlns:xlink="http://www.w3.org/1999/xlink" contentStyleType="text/css" height="681px" preserveAspectRatio="none" style="width:2174px;height:681px;background:#FFFFFF;" version="1.1" viewBox="0 0 2174 681" width="2174px" zoomAndPan="magnify"><defs/><g><rect fill="#FFFFFF" height="550.9766" style="stroke:#181818;stroke-width:1.0;" width="10" x="50.5" y="114.9609"/><rect fill="#FFFFFF" height="541.9766" style="stroke:#181818;stroke-width:1.0;" width="10" x="344.5" y="114.9609"/><rect fill="#FFFFFF" height="450.9219" style="stroke:#181818;stroke-width:1.0;" width="10" x="700.5" y="145.3125"/><rect fill="#FFFFFF" height="30.3516" style="stroke:#181818;stroke-width:1.0;" width="10" x="1433.5" y="145.3125"/><rect fill="#FFFFFF" height="30.3516" style="stroke:#181818;stroke-width:1.0;" width="10" x="1584.5" y="175.6641"/><rect fill="#FFFFFF" height="30.3516" style="stroke:#181818;stroke-width:1.0;" width="10" x="1811" y="565.8828"/><line style="stroke:#181818;stroke-width:0.5;stroke-dasharray:5.0,5.0;" x1="55" x2="55" y1="82.6094" y2="674.9375"/><line style="stroke:#181818;stroke-width:0.5;stroke-dasharray:5.0,5.0;" x1="349" x2="349" y1="82.6094" y2="674.9375"/><line style="stroke:#181818;stroke-width:0.5;stroke-dasharray:5.0,5.0;" x1="705" x2="705" y1="82.6094" y2="674.9375"/><line style="stroke:#181818;stroke-width:0.5;stroke-dasharray:5.0,5.0;" x1="1083.5" x2="1083.5" y1="82.6094" y2="674.9375"/><line style="stroke:#181818;stroke-width:0.5;stroke-dasharray:5.0,5.0;" x1="1273.5" x2="1273.5" y1="82.6094" y2="674.9375"/><line style="stroke:#181818;stroke-width:0.5;stroke-dasharray:5.0,5.0;" x1="1438.5" x2="1438.5" y1="82.6094" y2="674.9375"/><line style="stroke:#181818;stroke-width:0.5;stroke-dasharray:5.0,5.0;" x1="1589.5" x2="1589.5" y1="82.6094" y2="674.9375"/><line style="stroke:#181818;stroke-width:0.5;stroke-dasharray:5.0,5.0;" x1="1815.5" x2="1815.5" y1="82.6094" y2="674.9375"/><line style="stroke:#181818;stroke-width:0.5;stroke-dasharray:5.0,5.0;" x1="2070.5" x2="2070.5" y1="82.6094" y2="674.9375"/><text fill="#000000" font-family="sans-serif" font-size="14" lengthAdjust="spacing" textLength="95" x="5" y="79.5332">Sales Manager</text><ellipse cx="55.5" cy="13.5" fill="#E2E2F0" rx="8" ry="8" style="stroke:#181818;stroke-width:0.5;"/><path d="M55.5,21.5 L55.5,48.5 M42.5,29.5 L68.5,29.5 M55.5,48.5 L42.5,63.5 M55.5,48.5 L68.5,63.5 " fill="none" style="stroke:#181818;stroke-width:0.5;"/><rect fill="#E2E2F0" height="31.6094" rx="2.5" ry="2.5" style="stroke:#181818;stroke-width:0.5;" width="137" x="281" y="50"/><text fill="#000000" font-family="sans-serif" font-size="14" lengthAdjust="spacing" textLength="123" x="288" y="71.5332">: StatisticalReportUI</text><rect fill="#E2E2F0" height="31.6094" rx="2.5" ry="2.5" style="stroke:#181818;stroke-width:0.5;" width="187" x="612" y="50"/><text fill="#000000" font-family="sans-serif" font-size="14" lengthAdjust="spacing" textLength="173" x="619" y="71.5332">: StatisticalReportController</text><rect fill="#E2E2F0" height="31.6094" rx="2.5" ry="2.5" style="stroke:#181818;stroke-width:0.5;" width="196" x="985.5" y="50"/><text fill="#000000" font-family="sans-serif" font-size="14" lengthAdjust="spacing" textLength="182" x="992.5" y="71.5332">: QuestionnaireInfoController</text><rect fill="#E2E2F0" height="31.6094" rx="2.5" ry="2.5" style="stroke:#181818;stroke-width:0.5;" width="165" x="1191.5" y="50"/><text fill="#000000" font-family="sans-serif" font-size="14" lengthAdjust="spacing" textLength="151" x="1198.5" y="71.5332">: QuestionnaireServices</text><rect fill="#E2E2F0" height="49.2188" rx="2.5" ry="2.5" style="stroke:#181818;stroke-width:0.5;" width="144" x="1366.5" y="32.3906"/><text fill="#000000" font-family="sans-serif" font-size="14" font-style="italic" lengthAdjust="spacing" textLength="89" x="1394" y="53.9238">«persistence»</text><text fill="#000000" font-family="sans-serif" font-size="14" lengthAdjust="spacing" textLength="130" x="1373.5" y="71.5332">: PersistenceContext</text><rect fill="#E2E2F0" height="49.2188" rx="2.5" ry="2.5" style="stroke:#181818;stroke-width:0.5;" width="138" x="1520.5" y="32.3906"/><text fill="#000000" font-family="sans-serif" font-size="14" font-style="italic" lengthAdjust="spacing" textLength="59" x="1560" y="53.9238">«factory»</text><text fill="#000000" font-family="sans-serif" font-size="14" lengthAdjust="spacing" textLength="124" x="1527.5" y="71.5332">: RepositoryFactory</text><rect fill="#E2E2F0" height="49.2188" rx="2.5" ry="2.5" style="stroke:#181818;stroke-width:0.5;" width="295" x="1668.5" y="32.3906"/><text fill="#000000" font-family="sans-serif" font-size="14" font-style="italic" lengthAdjust="spacing" textLength="89" x="1771.5" y="53.9238">«persistence»</text><text fill="#000000" font-family="sans-serif" font-size="14" lengthAdjust="spacing" textLength="281" x="1675.5" y="71.5332">repoStatisticalReport : RepoStatisticalReport</text><rect fill="#E2E2F0" height="49.2188" rx="2.5" ry="2.5" style="stroke:#181818;stroke-width:0.5;" width="195" x="1973.5" y="32.3906"/><text fill="#000000" font-family="sans-serif" font-size="14" font-style="italic" lengthAdjust="spacing" textLength="89" x="2026.5" y="53.9238">«persistence»</text><text fill="#000000" font-family="sans-serif" font-size="14" lengthAdjust="spacing" textLength="181" x="1980.5" y="71.5332">repoAnswers : RepoAnswers</text><rect fill="#FFFFFF" height="550.9766" style="stroke:#181818;stroke-width:1.0;" width="10" x="50.5" y="114.9609"/><rect fill="#FFFFFF" height="541.9766" style="stroke:#181818;stroke-width:1.0;" width="10" x="344.5" y="114.9609"/><rect fill="#FFFFFF" height="450.9219" style="stroke:#181818;stroke-width:1.0;" width="10" x="700.5" y="145.3125"/><rect fill="#FFFFFF" height="30.3516" style="stroke:#181818;stroke-width:1.0;" width="10" x="1433.5" y="145.3125"/><rect fill="#FFFFFF" height="30.3516" style="stroke:#181818;stroke-width:1.0;" width="10" x="1584.5" y="175.6641"/><rect fill="#FFFFFF" height="30.3516" style="stroke:#181818;stroke-width:1.0;" width="10" x="1811" y="565.8828"/><polygon fill="#181818" points="332.5,110.9609,342.5,114.9609,332.5,118.9609,336.5,114.9609" style="stroke:#181818;stroke-width:1.0;"/><line style="stroke:#181818;stroke-width:1.0;" x1="60.5" x2="338.5" y1="114.9609" y2="114.9609"/><text fill="#000000" font-family="sans-serif" font-size="13" font-weight="bold" lengthAdjust="spacing" textLength="7" x="67.5" y="110.1045">1</text><text fill="#000000" font-family="sans-serif" font-size="13" lengthAdjust="spacing" textLength="259" x="78.5" y="110.1045">Check Statistical Report for Questionnaire ID</text><polygon fill="#181818" points="688.5,141.3125,698.5,145.3125,688.5,149.3125,692.5,145.3125" style="stroke:#181818;stroke-width:1.0;"/><line style="stroke:#181818;stroke-width:1.0;" x1="354.5" x2="694.5" y1="145.3125" y2="145.3125"/><text fill="#000000" font-family="sans-serif" font-size="13" font-weight="bold" lengthAdjust="spacing" textLength="7" x="361.5" y="140.4561">2</text><text fill="#000000" font-family="sans-serif" font-size="13" lengthAdjust="spacing" textLength="316" x="372.5" y="140.4561">Checks if there are any Questionnaire with the given ID</text><polygon fill="#181818" points="1426.5,171.6641,1436.5,175.6641,1426.5,179.6641,1430.5,175.6641" style="stroke:#181818;stroke-width:1.0;"/><line style="stroke:#181818;stroke-width:1.0;" x1="710.5" x2="1432.5" y1="175.6641" y2="175.6641"/><text fill="#000000" font-family="sans-serif" font-size="13" font-weight="bold" lengthAdjust="spacing" textLength="7" x="717.5" y="170.8076">3</text><text fill="#000000" font-family="sans-serif" font-size="13" lengthAdjust="spacing" textLength="75" x="728.5" y="170.8076">repositories()</text><polygon fill="#181818" points="1577.5,202.0156,1587.5,206.0156,1577.5,210.0156,1581.5,206.0156" style="stroke:#181818;stroke-width:1.0;"/><line style="stroke:#181818;stroke-width:1.0;" x1="1438.5" x2="1583.5" y1="206.0156" y2="206.0156"/><text fill="#000000" font-family="sans-serif" font-size="13" font-weight="bold" lengthAdjust="spacing" textLength="7" x="1445.5" y="201.1592">4</text><text fill="#000000" font-family="sans-serif" font-size="13" lengthAdjust="spacing" textLength="44" x="1456.5" y="201.1592">create()</text><polygon fill="#181818" points="2059,232.3672,2069,236.3672,2059,240.3672,2063,236.3672" style="stroke:#181818;stroke-width:1.0;"/><line style="stroke:#181818;stroke-width:1.0;" x1="710.5" x2="2065" y1="236.3672" y2="236.3672"/><text fill="#000000" font-family="sans-serif" font-size="13" font-weight="bold" lengthAdjust="spacing" textLength="7" x="717.5" y="231.5107">5</text><text fill="#000000" font-family="sans-serif" font-size="13" lengthAdjust="spacing" textLength="246" x="728.5" y="231.5107">Asks All the Answers to the Questionnaire</text><polygon fill="#181818" points="721.5,262.7188,711.5,266.7188,721.5,270.7188,717.5,266.7188" style="stroke:#181818;stroke-width:1.0;"/><line style="stroke:#181818;stroke-width:1.0;" x1="715.5" x2="2070" y1="266.7188" y2="266.7188"/><text fill="#000000" font-family="sans-serif" font-size="13" font-weight="bold" lengthAdjust="spacing" textLength="7" x="727.5" y="261.8623">6</text><text fill="#000000" font-family="sans-serif" font-size="13" lengthAdjust="spacing" textLength="248" x="738.5" y="261.8623">Gives All the Answers to the Questionnaire</text><line style="stroke:#181818;stroke-width:1.0;" x1="710.5" x2="752.5" y1="297.0703" y2="297.0703"/><line style="stroke:#181818;stroke-width:1.0;" x1="752.5" x2="752.5" y1="297.0703" y2="310.0703"/><line style="stroke:#181818;stroke-width:1.0;" x1="711.5" x2="752.5" y1="310.0703" y2="310.0703"/><polygon fill="#181818" points="721.5,306.0703,711.5,310.0703,721.5,314.0703,717.5,310.0703" style="stroke:#181818;stroke-width:1.0;"/><text fill="#000000" font-family="sans-serif" font-size="13" font-weight="bold" lengthAdjust="spacing" textLength="7" x="717.5" y="292.2139">7</text><text fill="#000000" font-family="sans-serif" font-size="13" lengthAdjust="spacing" textLength="167" x="728.5" y="292.2139">createsInfo(Questionnaire ID)</text><polygon fill="#181818" points="1262,336.4219,1272,340.4219,1262,344.4219,1266,340.4219" style="stroke:#181818;stroke-width:1.0;"/><line style="stroke:#181818;stroke-width:1.0;" x1="710.5" x2="1268" y1="340.4219" y2="340.4219"/><text fill="#000000" font-family="sans-serif" font-size="13" font-weight="bold" lengthAdjust="spacing" textLength="7" x="717.5" y="335.5654">8</text><text fill="#000000" font-family="sans-serif" font-size="13" lengthAdjust="spacing" textLength="94" x="728.5" y="335.5654">gets all answers</text><polygon fill="#181818" points="721.5,366.7734,711.5,370.7734,721.5,374.7734,717.5,370.7734" style="stroke:#181818;stroke-width:1.0;"/><line style="stroke:#181818;stroke-width:1.0;" x1="715.5" x2="1273" y1="370.7734" y2="370.7734"/><text fill="#000000" font-family="sans-serif" font-size="13" font-weight="bold" lengthAdjust="spacing" textLength="7" x="727.5" y="365.917">9</text><text fill="#000000" font-family="sans-serif" font-size="13" lengthAdjust="spacing" textLength="98" x="738.5" y="365.917">gives all answers</text><polygon fill="#181818" points="1071.5,397.125,1081.5,401.125,1071.5,405.125,1075.5,401.125" style="stroke:#181818;stroke-width:1.0;"/><line style="stroke:#181818;stroke-width:1.0;" x1="710.5" x2="1077.5" y1="401.125" y2="401.125"/><text fill="#000000" font-family="sans-serif" font-size="13" font-weight="bold" lengthAdjust="spacing" textLength="14" x="717.5" y="396.2686">10</text><text fill="#000000" font-family="sans-serif" font-size="13" lengthAdjust="spacing" textLength="331" x="735.5" y="396.2686">asks for answers and questions from the questionnaire ID</text><polygon fill="#181818" points="721.5,427.4766,711.5,431.4766,721.5,435.4766,717.5,431.4766" style="stroke:#181818;stroke-width:1.0;"/><line style="stroke:#181818;stroke-width:1.0;" x1="715.5" x2="1082.5" y1="431.4766" y2="431.4766"/><text fill="#000000" font-family="sans-serif" font-size="13" font-weight="bold" lengthAdjust="spacing" textLength="14" x="727.5" y="426.6201">11</text><text fill="#000000" font-family="sans-serif" font-size="13" lengthAdjust="spacing" textLength="318" x="745.5" y="426.6201">gives  answers and questions from the questionnaire ID</text><line style="stroke:#181818;stroke-width:1.0;" x1="710.5" x2="752.5" y1="461.8281" y2="461.8281"/><line style="stroke:#181818;stroke-width:1.0;" x1="752.5" x2="752.5" y1="461.8281" y2="474.8281"/><line style="stroke:#181818;stroke-width:1.0;" x1="711.5" x2="752.5" y1="474.8281" y2="474.8281"/><polygon fill="#181818" points="721.5,470.8281,711.5,474.8281,721.5,478.8281,717.5,474.8281" style="stroke:#181818;stroke-width:1.0;"/><text fill="#000000" font-family="sans-serif" font-size="13" font-weight="bold" lengthAdjust="spacing" textLength="14" x="717.5" y="456.9717">12</text><text fill="#000000" font-family="sans-serif" font-size="13" lengthAdjust="spacing" textLength="185" x="735.5" y="456.9717">createsReport(Questionnaire ID)</text><polygon fill="#181818" points="1071.5,501.1797,1081.5,505.1797,1071.5,509.1797,1075.5,505.1797" style="stroke:#181818;stroke-width:1.0;"/><line style="stroke:#181818;stroke-width:1.0;" x1="710.5" x2="1077.5" y1="505.1797" y2="505.1797"/><text fill="#000000" font-family="sans-serif" font-size="13" font-weight="bold" lengthAdjust="spacing" textLength="14" x="717.5" y="500.3232">13</text><text fill="#000000" font-family="sans-serif" font-size="13" lengthAdjust="spacing" textLength="198" x="735.5" y="500.3232">asks for answers to each question</text><polygon fill="#181818" points="721.5,531.5313,711.5,535.5313,721.5,539.5313,717.5,535.5313" style="stroke:#181818;stroke-width:1.0;"/><line style="stroke:#181818;stroke-width:1.0;" x1="715.5" x2="1082.5" y1="535.5313" y2="535.5313"/><text fill="#000000" font-family="sans-serif" font-size="13" font-weight="bold" lengthAdjust="spacing" textLength="14" x="727.5" y="530.6748">14</text><text fill="#000000" font-family="sans-serif" font-size="13" lengthAdjust="spacing" textLength="181" x="745.5" y="530.6748">gives answers to each question</text><polygon fill="#181818" points="365.5,561.8828,355.5,565.8828,365.5,569.8828,361.5,565.8828" style="stroke:#181818;stroke-width:1.0;"/><line style="stroke:#181818;stroke-width:1.0;" x1="359.5" x2="699.5" y1="565.8828" y2="565.8828"/><text fill="#000000" font-family="sans-serif" font-size="13" font-weight="bold" lengthAdjust="spacing" textLength="14" x="371.5" y="561.0264">15</text><text fill="#000000" font-family="sans-serif" font-size="13" lengthAdjust="spacing" textLength="88" x="389.5" y="561.0264">gives the report</text><polygon fill="#181818" points="1804,592.2344,1814,596.2344,1804,600.2344,1808,596.2344" style="stroke:#181818;stroke-width:1.0;"/><line style="stroke:#181818;stroke-width:1.0;" x1="705.5" x2="1810" y1="596.2344" y2="596.2344"/><text fill="#000000" font-family="sans-serif" font-size="13" font-weight="bold" lengthAdjust="spacing" textLength="14" x="712.5" y="591.3779">16</text><text fill="#000000" font-family="sans-serif" font-size="13" lengthAdjust="spacing" textLength="128" x="730.5" y="591.3779">save(statisticalReport)</text><polygon fill="#181818" points="71.5,622.5859,61.5,626.5859,71.5,630.5859,67.5,626.5859" style="stroke:#181818;stroke-width:1.0;"/><line style="stroke:#181818;stroke-width:1.0;" x1="65.5" x2="343.5" y1="626.5859" y2="626.5859"/><text fill="#000000" font-family="sans-serif" font-size="13" font-weight="bold" lengthAdjust="spacing" textLength="14" x="77.5" y="621.7295">17</text><text fill="#000000" font-family="sans-serif" font-size="13" lengthAdjust="spacing" textLength="143" x="95.5" y="621.7295">Shows Statistical Report</text><polygon fill="#181818" points="71.5,652.9375,61.5,656.9375,71.5,660.9375,67.5,656.9375" style="stroke:#181818;stroke-width:1.0;"/><line style="stroke:#181818;stroke-width:1.0;stroke-dasharray:2.0,2.0;" x1="65.5" x2="348.5" y1="656.9375" y2="656.9375"/><text fill="#000000" font-family="sans-serif" font-size="13" font-weight="bold" lengthAdjust="spacing" textLength="14" x="77.5" y="652.0811">18</text><text fill="#000000" font-family="sans-serif" font-size="13" lengthAdjust="spacing" textLength="191" x="95.5" y="652.0811">Statistical Report was a success</text><!--MD5=[529c46c095183373e91e4d8f25f543d6]
@startuml

autonumber
hide footbox

actor "Sales Manager" as actor
participant ": StatisticalReportUI" as ui
participant ": StatisticalReportController" as ctrl
participant ": QuestionnaireInfoController" as ctrlQ
participant ": QuestionnaireServices" as services
participant ": PersistenceContext" as persistence <<persistence>>
participant ": RepositoryFactory" as factory <<factory>>
participant "repoStatisticalReport : RepoStatisticalReport" as repo <<persistence>>
participant "repoAnswers : RepoAnswers" as repoA <<persistence>>

actor -> ui: Check Statistical Report for Questionnaire ID
activate ui
activate actor
ui -> ctrl: Checks if there are any Questionnaire with the given ID
activate ctrl
activate persistence
ctrl -> persistence: repositories()
deactivate persistence
activate factory
persistence -> factory: create()
deactivate factory

ctrl -> repoA: Asks All the Answers to the Questionnaire
repoA -> ctrl: Gives All the Answers to the Questionnaire
ctrl -> ctrl: createsInfo(Questionnaire ID)
ctrl -> services: gets all answers
services -> ctrl: gives all answers
ctrl -> ctrlQ: asks for answers and questions from the questionnaire ID
ctrlQ -> ctrl: gives  answers and questions from the questionnaire ID
ctrl -> ctrl: createsReport(Questionnaire ID)
ctrl -> ctrlQ: asks for answers to each question
ctrlQ -> ctrl: gives answers to each question
ctrl -> ui: gives the report

activate repo
ctrl -> repo : save(statisticalReport)

deactivate repo

deactivate ctrl



ui -> actor: Shows Statistical Report
ui - -> actor: Statistical Report was a success
deactivate ui
@enduml

PlantUML version 1.2022.5(Sat Apr 30 11:55:52 BST 2022)
(GPL source distribution)
Java Runtime: OpenJDK Runtime Environment
JVM: OpenJDK 64-Bit Server VM
Default Encoding: Cp1252
Language: pt
Country: PT
--></g></svg>