<?xml version="1.0" encoding="UTF-8" standalone="no"?><svg xmlns="http://www.w3.org/2000/svg" xmlns:xlink="http://www.w3.org/1999/xlink" contentStyleType="text/css" height="997px" preserveAspectRatio="none" style="width:811px;height:997px;background:#FFFFFF;" version="1.1" viewBox="0 0 811 997" width="811px" zoomAndPan="magnify"><defs/><g><rect fill="#FFFFFF" height="813.2969" style="stroke:#181818;stroke-width:1.0;" width="10" x="72" y="92.6094"/><rect fill="#FFFFFF" height="30.3516" style="stroke:#181818;stroke-width:1.0;" width="10" x="378" y="114.9609"/><rect fill="#FFFFFF" height="157.5938" style="stroke:#181818;stroke-width:1.0;" width="10" x="378" y="175.6641"/><rect fill="#FFFFFF" height="533.2969" style="stroke:#181818;stroke-width:1.0;" width="10" x="378" y="363.6094"/><rect fill="#FFFFFF" height="30.3516" style="stroke:#181818;stroke-width:1.0;" width="10" x="540" y="231.3672"/><rect fill="#FFFFFF" height="30.3516" style="stroke:#181818;stroke-width:1.0;" width="10" x="540" y="480.0156"/><rect fill="#FFFFFF" height="30.3516" style="stroke:#181818;stroke-width:1.0;" width="10" x="540" y="617.2578"/><rect fill="#FFFFFF" height="30.3516" style="stroke:#181818;stroke-width:1.0;" width="10" x="540" y="754.5"/><rect fill="#FFFFFF" height="644.1875" style="stroke:#181818;stroke-width:1.0;" width="10" x="704" y="261.7188"/><rect height="676.8906" style="stroke:#000000;stroke-width:1.5;fill:none;" width="794.5" x="10" y="190.6641"/><rect height="568" style="stroke:#000000;stroke-width:1.5;fill:none;" width="774.5" x="20" y="292.5547"/><rect height="414.2422" style="stroke:#000000;stroke-width:1.5;fill:none;" width="754.5" x="30" y="378.6094"/><line style="stroke:#181818;stroke-width:0.5;fill:none;stroke-dasharray:5.0,5.0;" x1="77" x2="77" y1="82.6094" y2="914.9063"/><line style="stroke:#181818;stroke-width:0.5;fill:none;stroke-dasharray:5.0,5.0;" x1="382.5" x2="382.5" y1="82.6094" y2="914.9063"/><line style="stroke:#181818;stroke-width:0.5;fill:none;stroke-dasharray:5.0,5.0;" x1="544.5" x2="544.5" y1="82.6094" y2="914.9063"/><line style="stroke:#181818;stroke-width:0.5;fill:none;stroke-dasharray:5.0,5.0;" x1="708.5" x2="708.5" y1="82.6094" y2="914.9063"/><text fill="#000000" font-family="sans-serif" font-size="14" lengthAdjust="spacing" textLength="68" x="40" y="79.5332">SalesClerk</text><ellipse cx="77" cy="13.5" fill="#E2E2F0" rx="8" ry="8" style="stroke:#181818;stroke-width:0.5;"/><path d="M77,21.5 L77,48.5 M64,29.5 L90,29.5 M77,48.5 L64,63.5 M77,48.5 L90,63.5 " fill="none" style="stroke:#181818;stroke-width:0.5;"/><text fill="#000000" font-family="sans-serif" font-size="14" lengthAdjust="spacing" textLength="68" x="40" y="928.4395">SalesClerk</text><ellipse cx="77" cy="940.0156" fill="#E2E2F0" rx="8" ry="8" style="stroke:#181818;stroke-width:0.5;"/><path d="M77,948.0156 L77,975.0156 M64,956.0156 L90,956.0156 M77,975.0156 L64,990.0156 M77,975.0156 L90,990.0156 " fill="none" style="stroke:#181818;stroke-width:0.5;"/><rect fill="#E2E2F0" height="31.6094" rx="2.5" ry="2.5" style="stroke:#181818;stroke-width:0.5;" width="127" x="319.5" y="50"/><text fill="#000000" font-family="sans-serif" font-size="14" lengthAdjust="spacing" textLength="113" x="326.5" y="71.5332">SearchProductsUI</text><rect fill="#E2E2F0" height="31.6094" rx="2.5" ry="2.5" style="stroke:#181818;stroke-width:0.5;" width="127" x="319.5" y="913.9063"/><text fill="#000000" font-family="sans-serif" font-size="14" lengthAdjust="spacing" textLength="113" x="326.5" y="935.4395">SearchProductsUI</text><rect fill="#E2E2F0" height="31.6094" rx="2.5" ry="2.5" style="stroke:#181818;stroke-width:0.5;" width="177" x="456.5" y="50"/><text fill="#000000" font-family="sans-serif" font-size="14" lengthAdjust="spacing" textLength="163" x="463.5" y="71.5332">SearchProductsController</text><rect fill="#E2E2F0" height="31.6094" rx="2.5" ry="2.5" style="stroke:#181818;stroke-width:0.5;" width="177" x="456.5" y="913.9063"/><text fill="#000000" font-family="sans-serif" font-size="14" lengthAdjust="spacing" textLength="163" x="463.5" y="935.4395">SearchProductsController</text><rect fill="#E2E2F0" height="31.6094" rx="2.5" ry="2.5" style="stroke:#181818;stroke-width:0.5;" width="131" x="643.5" y="50"/><text fill="#000000" font-family="sans-serif" font-size="14" lengthAdjust="spacing" textLength="117" x="650.5" y="71.5332">ProductRepository</text><rect fill="#E2E2F0" height="31.6094" rx="2.5" ry="2.5" style="stroke:#181818;stroke-width:0.5;" width="131" x="643.5" y="913.9063"/><text fill="#000000" font-family="sans-serif" font-size="14" lengthAdjust="spacing" textLength="117" x="650.5" y="935.4395">ProductRepository</text><rect fill="#FFFFFF" height="813.2969" style="stroke:#181818;stroke-width:1.0;" width="10" x="72" y="92.6094"/><rect fill="#FFFFFF" height="30.3516" style="stroke:#181818;stroke-width:1.0;" width="10" x="378" y="114.9609"/><rect fill="#FFFFFF" height="157.5938" style="stroke:#181818;stroke-width:1.0;" width="10" x="378" y="175.6641"/><rect fill="#FFFFFF" height="533.2969" style="stroke:#181818;stroke-width:1.0;" width="10" x="378" y="363.6094"/><rect fill="#FFFFFF" height="30.3516" style="stroke:#181818;stroke-width:1.0;" width="10" x="540" y="231.3672"/><rect fill="#FFFFFF" height="30.3516" style="stroke:#181818;stroke-width:1.0;" width="10" x="540" y="480.0156"/><rect fill="#FFFFFF" height="30.3516" style="stroke:#181818;stroke-width:1.0;" width="10" x="540" y="617.2578"/><rect fill="#FFFFFF" height="30.3516" style="stroke:#181818;stroke-width:1.0;" width="10" x="540" y="754.5"/><rect fill="#FFFFFF" height="644.1875" style="stroke:#181818;stroke-width:1.0;" width="10" x="704" y="261.7188"/><polygon fill="#181818" points="366,110.9609,376,114.9609,366,118.9609,370,114.9609" style="stroke:#181818;stroke-width:1.0;"/><line style="stroke:#181818;stroke-width:1.0;" x1="82" x2="372" y1="114.9609" y2="114.9609"/><text fill="#000000" font-family="sans-serif" font-size="13" font-weight="bold" lengthAdjust="spacing" textLength="7" x="89" y="110.1045">1</text><text fill="#000000" font-family="sans-serif" font-size="13" lengthAdjust="spacing" textLength="141" x="100" y="110.1045">Asks for product catalog</text><polygon fill="#181818" points="93,141.3125,83,145.3125,93,149.3125,89,145.3125" style="stroke:#181818;stroke-width:1.0;"/><line style="stroke:#181818;stroke-width:1.0;stroke-dasharray:2.0,2.0;" x1="87" x2="382" y1="145.3125" y2="145.3125"/><text fill="#000000" font-family="sans-serif" font-size="13" font-weight="bold" lengthAdjust="spacing" textLength="7" x="99" y="140.4561">2</text><text fill="#000000" font-family="sans-serif" font-size="13" lengthAdjust="spacing" textLength="149" x="110" y="140.4561">Asks for filters or show all</text><polygon fill="#181818" points="366,171.6641,376,175.6641,366,179.6641,370,175.6641" style="stroke:#181818;stroke-width:1.0;"/><line style="stroke:#181818;stroke-width:1.0;" x1="82" x2="372" y1="175.6641" y2="175.6641"/><text fill="#000000" font-family="sans-serif" font-size="13" font-weight="bold" lengthAdjust="spacing" textLength="7" x="89" y="170.8076">3</text><text fill="#000000" font-family="sans-serif" font-size="13" lengthAdjust="spacing" textLength="115" x="100" y="170.8076">Chooses one option</text><path d="M10,190.6641 L71,190.6641 L71,199.0156 L61,209.0156 L10,209.0156 L10,190.6641 " fill="#EEEEEE" style="stroke:#000000;stroke-width:1.5;"/><rect fill="none" height="676.8906" style="stroke:#000000;stroke-width:1.5;" width="794.5" x="10" y="190.6641"/><text fill="#000000" font-family="sans-serif" font-size="13" font-weight="bold" lengthAdjust="spacing" textLength="16" x="25" y="205.1592">alt</text><text fill="#000000" font-family="sans-serif" font-size="11" font-weight="bold" lengthAdjust="spacing" textLength="101" x="86" y="204.083">[option = show all]</text><polygon fill="#181818" points="528,227.3672,538,231.3672,528,235.3672,532,231.3672" style="stroke:#181818;stroke-width:1.0;"/><line style="stroke:#181818;stroke-width:1.0;" x1="388" x2="534" y1="231.3672" y2="231.3672"/><text fill="#000000" font-family="sans-serif" font-size="13" font-weight="bold" lengthAdjust="spacing" textLength="7" x="395" y="226.5107">4</text><text fill="#000000" font-family="sans-serif" font-size="13" lengthAdjust="spacing" textLength="53" x="406" y="226.5107">showAll()</text><polygon fill="#181818" points="692,257.7188,702,261.7188,692,265.7188,696,261.7188" style="stroke:#181818;stroke-width:1.0;"/><line style="stroke:#181818;stroke-width:1.0;" x1="545" x2="698" y1="261.7188" y2="261.7188"/><text fill="#000000" font-family="sans-serif" font-size="13" font-weight="bold" lengthAdjust="spacing" textLength="7" x="552" y="256.8623">5</text><text fill="#000000" font-family="sans-serif" font-size="13" lengthAdjust="spacing" textLength="43" x="563" y="256.8623">findAll()</text><line style="stroke:#000000;stroke-width:1.0;stroke-dasharray:2.0,2.0;" x1="10" x2="804.5" y1="270.7188" y2="270.7188"/><text fill="#000000" font-family="sans-serif" font-size="11" font-weight="bold" lengthAdjust="spacing" textLength="88" x="15" y="282.1377">[option = filters]</text><path d="M20,292.5547 L93,292.5547 L93,300.9063 L83,310.9063 L20,310.9063 L20,292.5547 " fill="#EEEEEE" style="stroke:#000000;stroke-width:1.5;"/><rect fill="none" height="568" style="stroke:#000000;stroke-width:1.5;" width="774.5" x="20" y="292.5547"/><text fill="#000000" font-family="sans-serif" font-size="13" font-weight="bold" lengthAdjust="spacing" textLength="28" x="35" y="307.0498">loop</text><text fill="#000000" font-family="sans-serif" font-size="11" font-weight="bold" lengthAdjust="spacing" textLength="154" x="108" y="305.9736">[while add another filter = 1]</text><polygon fill="#181818" points="93,329.2578,83,333.2578,93,337.2578,89,333.2578" style="stroke:#181818;stroke-width:1.0;"/><line style="stroke:#181818;stroke-width:1.0;stroke-dasharray:2.0,2.0;" x1="87" x2="382" y1="333.2578" y2="333.2578"/><text fill="#000000" font-family="sans-serif" font-size="13" font-weight="bold" lengthAdjust="spacing" textLength="7" x="99" y="328.4014">6</text><text fill="#000000" font-family="sans-serif" font-size="13" lengthAdjust="spacing" textLength="76" x="110" y="328.4014">Asks for filter</text><polygon fill="#181818" points="366,359.6094,376,363.6094,366,367.6094,370,363.6094" style="stroke:#181818;stroke-width:1.0;"/><line style="stroke:#181818;stroke-width:1.0;" x1="82" x2="372" y1="363.6094" y2="363.6094"/><text fill="#000000" font-family="sans-serif" font-size="13" font-weight="bold" lengthAdjust="spacing" textLength="7" x="89" y="358.7529">7</text><text fill="#000000" font-family="sans-serif" font-size="13" lengthAdjust="spacing" textLength="86" x="100" y="358.7529">Chooses filters</text><path d="M30,378.6094 L91,378.6094 L91,386.9609 L81,396.9609 L30,396.9609 L30,378.6094 " fill="#EEEEEE" style="stroke:#000000;stroke-width:1.5;"/><rect fill="none" height="414.2422" style="stroke:#000000;stroke-width:1.5;" width="754.5" x="30" y="378.6094"/><text fill="#000000" font-family="sans-serif" font-size="13" font-weight="bold" lengthAdjust="spacing" textLength="16" x="45" y="393.1045">alt</text><text fill="#000000" font-family="sans-serif" font-size="11" font-weight="bold" lengthAdjust="spacing" textLength="105" x="106" y="392.0283">[option = Category]</text><polygon fill="#181818" points="93,415.3125,83,419.3125,93,423.3125,89,419.3125" style="stroke:#181818;stroke-width:1.0;"/><line style="stroke:#181818;stroke-width:1.0;stroke-dasharray:2.0,2.0;" x1="87" x2="377" y1="419.3125" y2="419.3125"/><text fill="#000000" font-family="sans-serif" font-size="13" font-weight="bold" lengthAdjust="spacing" textLength="7" x="99" y="414.4561">8</text><text fill="#000000" font-family="sans-serif" font-size="13" lengthAdjust="spacing" textLength="243" x="110" y="414.4561">Show a list of Category's and asks for one</text><polygon fill="#181818" points="366,445.6641,376,449.6641,366,453.6641,370,449.6641" style="stroke:#181818;stroke-width:1.0;"/><line style="stroke:#181818;stroke-width:1.0;" x1="82" x2="372" y1="449.6641" y2="449.6641"/><text fill="#000000" font-family="sans-serif" font-size="13" font-weight="bold" lengthAdjust="spacing" textLength="7" x="89" y="444.8076">9</text><text fill="#000000" font-family="sans-serif" font-size="13" lengthAdjust="spacing" textLength="107" x="100" y="444.8076">Chooses Category</text><polygon fill="#181818" points="528,476.0156,538,480.0156,528,484.0156,532,480.0156" style="stroke:#181818;stroke-width:1.0;"/><line style="stroke:#181818;stroke-width:1.0;" x1="388" x2="534" y1="480.0156" y2="480.0156"/><text fill="#000000" font-family="sans-serif" font-size="13" font-weight="bold" lengthAdjust="spacing" textLength="14" x="395" y="475.1592">10</text><text fill="#000000" font-family="sans-serif" font-size="13" lengthAdjust="spacing" textLength="100" x="413" y="475.1592">filterByCategory()</text><polygon fill="#181818" points="692,506.3672,702,510.3672,692,514.3672,696,510.3672" style="stroke:#181818;stroke-width:1.0;"/><line style="stroke:#181818;stroke-width:1.0;" x1="545" x2="698" y1="510.3672" y2="510.3672"/><text fill="#000000" font-family="sans-serif" font-size="13" font-weight="bold" lengthAdjust="spacing" textLength="14" x="552" y="505.5107">11</text><text fill="#000000" font-family="sans-serif" font-size="13" lengthAdjust="spacing" textLength="96" x="570" y="505.5107">findByCategory()</text><line style="stroke:#000000;stroke-width:1.0;stroke-dasharray:2.0,2.0;" x1="30" x2="784.5" y1="519.3672" y2="519.3672"/><text fill="#000000" font-family="sans-serif" font-size="11" font-weight="bold" lengthAdjust="spacing" textLength="118" x="35" y="530.7861">[option = Description]</text><polygon fill="#181818" points="93,552.5547,83,556.5547,93,560.5547,89,556.5547" style="stroke:#181818;stroke-width:1.0;"/><line style="stroke:#181818;stroke-width:1.0;stroke-dasharray:2.0,2.0;" x1="87" x2="377" y1="556.5547" y2="556.5547"/><text fill="#000000" font-family="sans-serif" font-size="13" font-weight="bold" lengthAdjust="spacing" textLength="14" x="99" y="551.6982">12</text><text fill="#000000" font-family="sans-serif" font-size="13" lengthAdjust="spacing" textLength="254" x="117" y="551.6982">Show a list of Descriptions and asks for one</text><polygon fill="#181818" points="366,582.9063,376,586.9063,366,590.9063,370,586.9063" style="stroke:#181818;stroke-width:1.0;"/><line style="stroke:#181818;stroke-width:1.0;" x1="82" x2="372" y1="586.9063" y2="586.9063"/><text fill="#000000" font-family="sans-serif" font-size="13" font-weight="bold" lengthAdjust="spacing" textLength="14" x="89" y="582.0498">13</text><text fill="#000000" font-family="sans-serif" font-size="13" lengthAdjust="spacing" textLength="120" x="107" y="582.0498">Chooses Description</text><polygon fill="#181818" points="528,613.2578,538,617.2578,528,621.2578,532,617.2578" style="stroke:#181818;stroke-width:1.0;"/><line style="stroke:#181818;stroke-width:1.0;" x1="388" x2="534" y1="617.2578" y2="617.2578"/><text fill="#000000" font-family="sans-serif" font-size="13" font-weight="bold" lengthAdjust="spacing" textLength="14" x="395" y="612.4014">14</text><text fill="#000000" font-family="sans-serif" font-size="13" lengthAdjust="spacing" textLength="113" x="413" y="612.4014">filterByDescription()</text><polygon fill="#181818" points="692,643.6094,702,647.6094,692,651.6094,696,647.6094" style="stroke:#181818;stroke-width:1.0;"/><line style="stroke:#181818;stroke-width:1.0;" x1="545" x2="698" y1="647.6094" y2="647.6094"/><text fill="#000000" font-family="sans-serif" font-size="13" font-weight="bold" lengthAdjust="spacing" textLength="14" x="552" y="642.7529">15</text><text fill="#000000" font-family="sans-serif" font-size="13" lengthAdjust="spacing" textLength="109" x="570" y="642.7529">findByDescription()</text><line style="stroke:#000000;stroke-width:1.0;stroke-dasharray:2.0,2.0;" x1="30" x2="784.5" y1="656.6094" y2="656.6094"/><text fill="#000000" font-family="sans-serif" font-size="11" font-weight="bold" lengthAdjust="spacing" textLength="87" x="35" y="668.0283">[option = Brand]</text><polygon fill="#181818" points="93,689.7969,83,693.7969,93,697.7969,89,693.7969" style="stroke:#181818;stroke-width:1.0;"/><line style="stroke:#181818;stroke-width:1.0;stroke-dasharray:2.0,2.0;" x1="87" x2="377" y1="693.7969" y2="693.7969"/><text fill="#000000" font-family="sans-serif" font-size="13" font-weight="bold" lengthAdjust="spacing" textLength="14" x="99" y="688.9404">16</text><text fill="#000000" font-family="sans-serif" font-size="13" lengthAdjust="spacing" textLength="223" x="117" y="688.9404">Show a list of Brands and asks for one</text><polygon fill="#181818" points="366,720.1484,376,724.1484,366,728.1484,370,724.1484" style="stroke:#181818;stroke-width:1.0;"/><line style="stroke:#181818;stroke-width:1.0;" x1="82" x2="372" y1="724.1484" y2="724.1484"/><text fill="#000000" font-family="sans-serif" font-size="13" font-weight="bold" lengthAdjust="spacing" textLength="14" x="89" y="719.292">17</text><text fill="#000000" font-family="sans-serif" font-size="13" lengthAdjust="spacing" textLength="93" x="107" y="719.292">Chooses Brand;</text><polygon fill="#181818" points="528,750.5,538,754.5,528,758.5,532,754.5" style="stroke:#181818;stroke-width:1.0;"/><line style="stroke:#181818;stroke-width:1.0;" x1="388" x2="534" y1="754.5" y2="754.5"/><text fill="#000000" font-family="sans-serif" font-size="13" font-weight="bold" lengthAdjust="spacing" textLength="14" x="395" y="749.6436">18</text><text fill="#000000" font-family="sans-serif" font-size="13" lengthAdjust="spacing" textLength="82" x="413" y="749.6436">filterByBrand()</text><polygon fill="#181818" points="692,780.8516,702,784.8516,692,788.8516,696,784.8516" style="stroke:#181818;stroke-width:1.0;"/><line style="stroke:#181818;stroke-width:1.0;" x1="545" x2="698" y1="784.8516" y2="784.8516"/><text fill="#000000" font-family="sans-serif" font-size="13" font-weight="bold" lengthAdjust="spacing" textLength="14" x="552" y="779.9951">19</text><text fill="#000000" font-family="sans-serif" font-size="13" lengthAdjust="spacing" textLength="78" x="570" y="779.9951">findByBrand()</text><polygon fill="#181818" points="93,818.2031,83,822.2031,93,826.2031,89,822.2031" style="stroke:#181818;stroke-width:1.0;"/><line style="stroke:#181818;stroke-width:1.0;stroke-dasharray:2.0,2.0;" x1="87" x2="377" y1="822.2031" y2="822.2031"/><text fill="#000000" font-family="sans-serif" font-size="13" font-weight="bold" lengthAdjust="spacing" textLength="14" x="99" y="817.3467">20</text><text fill="#000000" font-family="sans-serif" font-size="13" lengthAdjust="spacing" textLength="179" x="117" y="817.3467">Add another filter (1.yes / 2.no)</text><polygon fill="#181818" points="366,848.5547,376,852.5547,366,856.5547,370,852.5547" style="stroke:#181818;stroke-width:1.0;"/><line style="stroke:#181818;stroke-width:1.0;" x1="82" x2="372" y1="852.5547" y2="852.5547"/><text fill="#000000" font-family="sans-serif" font-size="13" font-weight="bold" lengthAdjust="spacing" textLength="14" x="89" y="847.6982">21</text><text fill="#000000" font-family="sans-serif" font-size="13" lengthAdjust="spacing" textLength="115" x="107" y="847.6982">Chooses one option</text><polygon fill="#181818" points="93,892.9063,83,896.9063,93,900.9063,89,896.9063" style="stroke:#181818;stroke-width:1.0;"/><line style="stroke:#181818;stroke-width:1.0;stroke-dasharray:2.0,2.0;" x1="87" x2="382" y1="896.9063" y2="896.9063"/><text fill="#000000" font-family="sans-serif" font-size="13" font-weight="bold" lengthAdjust="spacing" textLength="14" x="99" y="892.0498">22</text><text fill="#000000" font-family="sans-serif" font-size="13" lengthAdjust="spacing" textLength="86" x="117" y="892.0498">Show products</text><!--MD5=[48420fb4e795dfc36f0caaba4d7cc986]
@startuml
'https://plantuml.com/sequence-diagram

autonumber
actor SalesClerk
activate SalesClerk

SalesClerk -> SearchProductsUI : Asks for product catalog
activate SearchProductsUI
SearchProductsUI - -> SalesClerk : Asks for filters or show all
deactivate SearchProductsUI
SalesClerk -> SearchProductsUI : Chooses one option
activate SearchProductsUI
alt option = show all

    SearchProductsUI -> SearchProductsController : showAll()
    activate SearchProductsController
    SearchProductsController -> ProductRepository : findAll()
    deactivate SearchProductsController
    activate ProductRepository







else option = filters


    loop while add another filter = 1

    SearchProductsUI - -> SalesClerk : Asks for filter
    deactivate SearchProductsUI
    SalesClerk -> SearchProductsUI : Chooses filters
    activate SearchProductsUI


    alt option = Category

         SearchProductsUI - -> SalesClerk : Show a list of Category's and asks for one
         SalesClerk -> SearchProductsUI : Chooses Category
         SearchProductsUI -> SearchProductsController : filterByCategory()
         activate SearchProductsController
         SearchProductsController -> ProductRepository : findByCategory()
         deactivate SearchProductsController

    else option = Description

        SearchProductsUI - -> SalesClerk : Show a list of Descriptions and asks for one
        SalesClerk -> SearchProductsUI : Chooses Description
        SearchProductsUI -> SearchProductsController : filterByDescription()
        activate SearchProductsController
        SearchProductsController -> ProductRepository : findByDescription()
        deactivate SearchProductsController

    else option = Brand

        SearchProductsUI - -> SalesClerk : Show a list of Brands and asks for one
        SalesClerk -> SearchProductsUI : Chooses Brand;
        SearchProductsUI -> SearchProductsController : filterByBrand()
        activate SearchProductsController
        SearchProductsController -> ProductRepository : findByBrand()
        deactivate SearchProductsController
    end


  SearchProductsUI - -> SalesClerk : Add another filter (1.yes / 2.no)
  SalesClerk -> SearchProductsUI : Chooses one option

  end


end







SearchProductsUI - -> SalesClerk : Show products
deactivate SearchProductsUI

@enduml

@startuml

autonumber
actor SalesClerk
activate SalesClerk

SalesClerk -> SearchProductsUI : Asks for product catalog
activate SearchProductsUI
SearchProductsUI - -> SalesClerk : Asks for filters or show all
deactivate SearchProductsUI
SalesClerk -> SearchProductsUI : Chooses one option
activate SearchProductsUI
alt option = show all

    SearchProductsUI -> SearchProductsController : showAll()
    activate SearchProductsController
    SearchProductsController -> ProductRepository : findAll()
    deactivate SearchProductsController
    activate ProductRepository







else option = filters


    loop while add another filter = 1

    SearchProductsUI - -> SalesClerk : Asks for filter
    deactivate SearchProductsUI
    SalesClerk -> SearchProductsUI : Chooses filters
    activate SearchProductsUI


    alt option = Category

         SearchProductsUI - -> SalesClerk : Show a list of Category's and asks for one
         SalesClerk -> SearchProductsUI : Chooses Category
         SearchProductsUI -> SearchProductsController : filterByCategory()
         activate SearchProductsController
         SearchProductsController -> ProductRepository : findByCategory()
         deactivate SearchProductsController

    else option = Description

        SearchProductsUI - -> SalesClerk : Show a list of Descriptions and asks for one
        SalesClerk -> SearchProductsUI : Chooses Description
        SearchProductsUI -> SearchProductsController : filterByDescription()
        activate SearchProductsController
        SearchProductsController -> ProductRepository : findByDescription()
        deactivate SearchProductsController

    else option = Brand

        SearchProductsUI - -> SalesClerk : Show a list of Brands and asks for one
        SalesClerk -> SearchProductsUI : Chooses Brand;
        SearchProductsUI -> SearchProductsController : filterByBrand()
        activate SearchProductsController
        SearchProductsController -> ProductRepository : findByBrand()
        deactivate SearchProductsController
    end


  SearchProductsUI - -> SalesClerk : Add another filter (1.yes / 2.no)
  SalesClerk -> SearchProductsUI : Chooses one option

  end


end







SearchProductsUI - -> SalesClerk : Show products
deactivate SearchProductsUI

@enduml

PlantUML version 1.2022.4(Sat Apr 09 14:29:17 BST 2022)
(GPL source distribution)
Java Runtime: OpenJDK Runtime Environment
JVM: OpenJDK 64-Bit Server VM
Default Encoding: Cp1252
Language: pt
Country: PT
--></g></svg>