<?xml version="1.0" encoding="UTF-8" standalone="no"?><svg xmlns="http://www.w3.org/2000/svg" xmlns:xlink="http://www.w3.org/1999/xlink" contentStyleType="text/css" height="1124px" preserveAspectRatio="none" style="width:1510px;height:1124px;background:#FFFFFF;" version="1.1" viewBox="0 0 1510 1124" width="1510px" zoomAndPan="magnify"><defs/><g><rect fill="#FFFFFF" height="255.8125" style="stroke:#181818;stroke-width:1.0;" width="10" x="456.5" y="114.9609"/><rect fill="#FFFFFF" height="273.1641" style="stroke:#181818;stroke-width:1.0;" width="10" x="456.5" y="401.125"/><rect fill="#FFFFFF" height="236.8125" style="stroke:#181818;stroke-width:1.0;" width="10" x="456.5" y="704.6406"/><rect fill="#FFFFFF" height="30" style="stroke:#181818;stroke-width:1.0;" width="10" x="456.5" y="982.9805"/><rect fill="#FFFFFF" height="195.1094" style="stroke:#181818;stroke-width:1.0;" width="10" x="639.5" y="145.3125"/><rect fill="#FFFFFF" height="212.4609" style="stroke:#181818;stroke-width:1.0;" width="10" x="639.5" y="431.4766"/><rect fill="#FFFFFF" height="41.5273" style="stroke:#181818;stroke-width:1.0;" width="10" x="639.5" y="821.0469"/><rect fill="#FFFFFF" height="91.0547" style="stroke:#181818;stroke-width:1.0;" width="10" x="862.5" y="175.6641"/><rect fill="#FFFFFF" height="91.0547" style="stroke:#181818;stroke-width:1.0;" width="10" x="862.5" y="461.8281"/><rect fill="#FFFFFF" height="30.3516" style="stroke:#181818;stroke-width:1.0;" width="10" x="1068.5" y="206.0156"/><rect fill="#FFFFFF" height="30.3516" style="stroke:#181818;stroke-width:1.0;" width="10" x="1068.5" y="492.1797"/><rect fill="#FFFFFF" height="30.3516" style="stroke:#181818;stroke-width:1.0;" width="10" x="1222.5" y="583.2344"/><rect height="192.4609" style="stroke:#000000;stroke-width:1.5;fill:none;" width="813.5" x="10" y="719.6406"/><line style="stroke:#181818;stroke-width:0.5;fill:none;stroke-dasharray:5.0,5.0;" x1="53" x2="53" y1="82.6094" y2="1042.1563"/><line style="stroke:#181818;stroke-width:0.5;fill:none;stroke-dasharray:5.0,5.0;" x1="461.5" x2="461.5" y1="82.6094" y2="1042.1563"/><line style="stroke:#181818;stroke-width:0.5;fill:none;stroke-dasharray:5.0,5.0;" x1="644.5" x2="644.5" y1="82.6094" y2="1042.1563"/><line style="stroke:#181818;stroke-width:0.5;fill:none;stroke-dasharray:5.0,5.0;" x1="867" x2="867" y1="82.6094" y2="1042.1563"/><line style="stroke:#181818;stroke-width:0.5;fill:none;stroke-dasharray:5.0,5.0;" x1="1073.5" x2="1073.5" y1="82.6094" y2="1042.1563"/><line style="stroke:#181818;stroke-width:0.5;fill:none;stroke-dasharray:5.0,5.0;" x1="1227.5" x2="1227.5" y1="82.6094" y2="1042.1563"/><line style="stroke:#181818;stroke-width:0.5;fill:none;stroke-dasharray:5.0,5.0;" x1="1325.5" x2="1325.5" y1="82.6094" y2="1042.1563"/><line style="stroke:#181818;stroke-width:0.5;fill:none;stroke-dasharray:5.0,5.0;" x1="1436.5" x2="1436.5" y1="82.6094" y2="1042.1563"/><text fill="#000000" font-family="sans-serif" font-size="14" lengthAdjust="spacing" textLength="61" x="20" y="79.5332">Customer</text><ellipse cx="53.5" cy="13.5" fill="#E2E2F0" rx="8" ry="8" style="stroke:#181818;stroke-width:0.5;"/><path d="M53.5,21.5 L53.5,48.5 M40.5,29.5 L66.5,29.5 M53.5,48.5 L40.5,63.5 M53.5,48.5 L66.5,63.5 " fill="none" style="stroke:#181818;stroke-width:0.5;"/><text fill="#000000" font-family="sans-serif" font-size="14" lengthAdjust="spacing" textLength="61" x="20" y="1055.6895">Customer</text><ellipse cx="53.5" cy="1067.2656" fill="#E2E2F0" rx="8" ry="8" style="stroke:#181818;stroke-width:0.5;"/><path d="M53.5,1075.2656 L53.5,1102.2656 M40.5,1083.2656 L66.5,1083.2656 M53.5,1102.2656 L40.5,1117.2656 M53.5,1102.2656 L66.5,1117.2656 " fill="none" style="stroke:#181818;stroke-width:0.5;"/><rect fill="#E2E2F0" height="31.6094" rx="2.5" ry="2.5" style="stroke:#181818;stroke-width:0.5;" width="122" x="400.5" y="50"/><text fill="#000000" font-family="sans-serif" font-size="14" lengthAdjust="spacing" textLength="108" x="407.5" y="71.5332">QuestionnairesUI</text><rect fill="#E2E2F0" height="31.6094" rx="2.5" ry="2.5" style="stroke:#181818;stroke-width:0.5;" width="122" x="400.5" y="1041.1563"/><text fill="#000000" font-family="sans-serif" font-size="14" lengthAdjust="spacing" textLength="108" x="407.5" y="1062.6895">QuestionnairesUI</text><rect fill="#E2E2F0" height="31.6094" rx="2.5" ry="2.5" style="stroke:#181818;stroke-width:0.5;" width="172" x="558.5" y="50"/><text fill="#000000" font-family="sans-serif" font-size="14" lengthAdjust="spacing" textLength="158" x="565.5" y="71.5332">QuestionnairesController</text><rect fill="#E2E2F0" height="31.6094" rx="2.5" ry="2.5" style="stroke:#181818;stroke-width:0.5;" width="172" x="558.5" y="1041.1563"/><text fill="#000000" font-family="sans-serif" font-size="14" lengthAdjust="spacing" textLength="158" x="565.5" y="1062.6895">QuestionnairesController</text><rect fill="#E2E2F0" height="31.6094" rx="2.5" ry="2.5" style="stroke:#181818;stroke-width:0.5;" width="157" x="789" y="50"/><text fill="#000000" font-family="sans-serif" font-size="14" lengthAdjust="spacing" textLength="143" x="796" y="71.5332">QuestionnairesService</text><rect fill="#E2E2F0" height="31.6094" rx="2.5" ry="2.5" style="stroke:#181818;stroke-width:0.5;" width="157" x="789" y="1041.1563"/><text fill="#000000" font-family="sans-serif" font-size="14" lengthAdjust="spacing" textLength="143" x="796" y="1062.6895">QuestionnairesService</text><rect fill="#E2E2F0" height="31.6094" rx="2.5" ry="2.5" style="stroke:#181818;stroke-width:0.5;" width="178" x="984.5" y="50"/><text fill="#000000" font-family="sans-serif" font-size="14" lengthAdjust="spacing" textLength="164" x="991.5" y="71.5332">QuestionnairesRepository</text><rect fill="#E2E2F0" height="31.6094" rx="2.5" ry="2.5" style="stroke:#181818;stroke-width:0.5;" width="178" x="984.5" y="1041.1563"/><text fill="#000000" font-family="sans-serif" font-size="14" lengthAdjust="spacing" textLength="164" x="991.5" y="1062.6895">QuestionnairesRepository</text><rect fill="#E2E2F0" height="31.6094" rx="2.5" ry="2.5" style="stroke:#181818;stroke-width:0.5;" width="110" x="1172.5" y="50"/><text fill="#000000" font-family="sans-serif" font-size="14" lengthAdjust="spacing" textLength="96" x="1179.5" y="71.5332">Questionnaires</text><rect fill="#E2E2F0" height="31.6094" rx="2.5" ry="2.5" style="stroke:#181818;stroke-width:0.5;" width="110" x="1172.5" y="1041.1563"/><text fill="#000000" font-family="sans-serif" font-size="14" lengthAdjust="spacing" textLength="96" x="1179.5" y="1062.6895">Questionnaires</text><rect fill="#E2E2F0" height="31.6094" rx="2.5" ry="2.5" style="stroke:#181818;stroke-width:0.5;" width="67" x="1292.5" y="50"/><text fill="#000000" font-family="sans-serif" font-size="14" lengthAdjust="spacing" textLength="53" x="1299.5" y="71.5332">Answers</text><rect fill="#E2E2F0" height="31.6094" rx="2.5" ry="2.5" style="stroke:#181818;stroke-width:0.5;" width="67" x="1292.5" y="1041.1563"/><text fill="#000000" font-family="sans-serif" font-size="14" lengthAdjust="spacing" textLength="53" x="1299.5" y="1062.6895">Answers</text><rect fill="#E2E2F0" height="31.6094" rx="2.5" ry="2.5" style="stroke:#181818;stroke-width:0.5;" width="135" x="1369.5" y="50"/><text fill="#000000" font-family="sans-serif" font-size="14" lengthAdjust="spacing" textLength="121" x="1376.5" y="71.5332">AnswersRepository</text><rect fill="#E2E2F0" height="31.6094" rx="2.5" ry="2.5" style="stroke:#181818;stroke-width:0.5;" width="135" x="1369.5" y="1041.1563"/><text fill="#000000" font-family="sans-serif" font-size="14" lengthAdjust="spacing" textLength="121" x="1376.5" y="1062.6895">AnswersRepository</text><rect fill="#FFFFFF" height="255.8125" style="stroke:#181818;stroke-width:1.0;" width="10" x="456.5" y="114.9609"/><rect fill="#FFFFFF" height="273.1641" style="stroke:#181818;stroke-width:1.0;" width="10" x="456.5" y="401.125"/><rect fill="#FFFFFF" height="236.8125" style="stroke:#181818;stroke-width:1.0;" width="10" x="456.5" y="704.6406"/><rect fill="#FFFFFF" height="30" style="stroke:#181818;stroke-width:1.0;" width="10" x="456.5" y="982.9805"/><rect fill="#FFFFFF" height="195.1094" style="stroke:#181818;stroke-width:1.0;" width="10" x="639.5" y="145.3125"/><rect fill="#FFFFFF" height="212.4609" style="stroke:#181818;stroke-width:1.0;" width="10" x="639.5" y="431.4766"/><rect fill="#FFFFFF" height="41.5273" style="stroke:#181818;stroke-width:1.0;" width="10" x="639.5" y="821.0469"/><rect fill="#FFFFFF" height="91.0547" style="stroke:#181818;stroke-width:1.0;" width="10" x="862.5" y="175.6641"/><rect fill="#FFFFFF" height="91.0547" style="stroke:#181818;stroke-width:1.0;" width="10" x="862.5" y="461.8281"/><rect fill="#FFFFFF" height="30.3516" style="stroke:#181818;stroke-width:1.0;" width="10" x="1068.5" y="206.0156"/><rect fill="#FFFFFF" height="30.3516" style="stroke:#181818;stroke-width:1.0;" width="10" x="1068.5" y="492.1797"/><rect fill="#FFFFFF" height="30.3516" style="stroke:#181818;stroke-width:1.0;" width="10" x="1222.5" y="583.2344"/><polygon fill="#181818" points="444.5,110.9609,454.5,114.9609,444.5,118.9609,448.5,114.9609" style="stroke:#181818;stroke-width:1.0;"/><line style="stroke:#181818;stroke-width:1.0;" x1="53.5" x2="450.5" y1="114.9609" y2="114.9609"/><text fill="#000000" font-family="sans-serif" font-size="13" font-weight="bold" lengthAdjust="spacing" textLength="7" x="60.5" y="110.1045">1</text><text fill="#000000" font-family="sans-serif" font-size="13" lengthAdjust="spacing" textLength="141" x="71.5" y="110.1045">Show list questionnaires</text><polygon fill="#181818" points="627.5,141.3125,637.5,145.3125,627.5,149.3125,631.5,145.3125" style="stroke:#181818;stroke-width:1.0;"/><line style="stroke:#181818;stroke-width:1.0;" x1="466.5" x2="633.5" y1="145.3125" y2="145.3125"/><text fill="#000000" font-family="sans-serif" font-size="13" font-weight="bold" lengthAdjust="spacing" textLength="7" x="473.5" y="140.4561">2</text><text fill="#000000" font-family="sans-serif" font-size="13" lengthAdjust="spacing" textLength="108" x="484.5" y="140.4561">allQuestionnaires()</text><polygon fill="#181818" points="850.5,171.6641,860.5,175.6641,850.5,179.6641,854.5,175.6641" style="stroke:#181818;stroke-width:1.0;"/><line style="stroke:#181818;stroke-width:1.0;" x1="649.5" x2="856.5" y1="175.6641" y2="175.6641"/><text fill="#000000" font-family="sans-serif" font-size="13" font-weight="bold" lengthAdjust="spacing" textLength="7" x="656.5" y="170.8076">3</text><text fill="#000000" font-family="sans-serif" font-size="13" lengthAdjust="spacing" textLength="108" x="667.5" y="170.8076">allQuestionnaires()</text><polygon fill="#181818" points="1056.5,202.0156,1066.5,206.0156,1056.5,210.0156,1060.5,206.0156" style="stroke:#181818;stroke-width:1.0;"/><line style="stroke:#181818;stroke-width:1.0;" x1="872.5" x2="1062.5" y1="206.0156" y2="206.0156"/><text fill="#000000" font-family="sans-serif" font-size="13" font-weight="bold" lengthAdjust="spacing" textLength="7" x="879.5" y="201.1592">4</text><text fill="#000000" font-family="sans-serif" font-size="13" lengthAdjust="spacing" textLength="115" x="890.5" y="201.1592">findQuestionnaires()</text><polygon fill="#181818" points="883.5,232.3672,873.5,236.3672,883.5,240.3672,879.5,236.3672" style="stroke:#181818;stroke-width:1.0;"/><line style="stroke:#181818;stroke-width:1.0;stroke-dasharray:2.0,2.0;" x1="877.5" x2="1072.5" y1="236.3672" y2="236.3672"/><text fill="#000000" font-family="sans-serif" font-size="13" font-weight="bold" lengthAdjust="spacing" textLength="7" x="889.5" y="231.5107">5</text><text fill="#000000" font-family="sans-serif" font-size="13" lengthAdjust="spacing" textLength="145" x="900.5" y="231.5107">Iterable&lt;Questionnaires&gt;</text><polygon fill="#181818" points="660.5,262.7188,650.5,266.7188,660.5,270.7188,656.5,266.7188" style="stroke:#181818;stroke-width:1.0;"/><line style="stroke:#181818;stroke-width:1.0;stroke-dasharray:2.0,2.0;" x1="654.5" x2="866.5" y1="266.7188" y2="266.7188"/><text fill="#000000" font-family="sans-serif" font-size="13" font-weight="bold" lengthAdjust="spacing" textLength="7" x="666.5" y="261.8623">6</text><text fill="#000000" font-family="sans-serif" font-size="13" lengthAdjust="spacing" textLength="145" x="677.5" y="261.8623">Iterable&lt;Questionnaires&gt;</text><line style="stroke:#181818;stroke-width:1.0;" x1="649.5" x2="691.5" y1="297.0703" y2="297.0703"/><line style="stroke:#181818;stroke-width:1.0;" x1="691.5" x2="691.5" y1="297.0703" y2="310.0703"/><line style="stroke:#181818;stroke-width:1.0;" x1="650.5" x2="691.5" y1="310.0703" y2="310.0703"/><polygon fill="#181818" points="660.5,306.0703,650.5,310.0703,660.5,314.0703,656.5,310.0703" style="stroke:#181818;stroke-width:1.0;"/><text fill="#000000" font-family="sans-serif" font-size="13" font-weight="bold" lengthAdjust="spacing" textLength="7" x="656.5" y="292.2139">7</text><text fill="#000000" font-family="sans-serif" font-size="13" lengthAdjust="spacing" textLength="188" x="667.5" y="292.2139">doList(Iterable&lt;Questionnaires&gt;)</text><polygon fill="#181818" points="477.5,336.4219,467.5,340.4219,477.5,344.4219,473.5,340.4219" style="stroke:#181818;stroke-width:1.0;"/><line style="stroke:#181818;stroke-width:1.0;stroke-dasharray:2.0,2.0;" x1="471.5" x2="643.5" y1="340.4219" y2="340.4219"/><text fill="#000000" font-family="sans-serif" font-size="13" font-weight="bold" lengthAdjust="spacing" textLength="7" x="483.5" y="335.5654">8</text><text fill="#000000" font-family="sans-serif" font-size="13" lengthAdjust="spacing" textLength="71" x="494.5" y="335.5654">List&lt;String&gt;</text><polygon fill="#181818" points="64.5,366.7734,54.5,370.7734,64.5,374.7734,60.5,370.7734" style="stroke:#181818;stroke-width:1.0;"/><line style="stroke:#181818;stroke-width:1.0;stroke-dasharray:2.0,2.0;" x1="58.5" x2="460.5" y1="370.7734" y2="370.7734"/><text fill="#000000" font-family="sans-serif" font-size="13" font-weight="bold" lengthAdjust="spacing" textLength="7" x="70.5" y="365.917">9</text><text fill="#000000" font-family="sans-serif" font-size="13" lengthAdjust="spacing" textLength="267" x="81.5" y="365.917">Show list and ask to view questionnaire or exit</text><polygon fill="#181818" points="444.5,397.125,454.5,401.125,444.5,405.125,448.5,401.125" style="stroke:#181818;stroke-width:1.0;"/><line style="stroke:#181818;stroke-width:1.0;" x1="53.5" x2="450.5" y1="401.125" y2="401.125"/><text fill="#000000" font-family="sans-serif" font-size="13" font-weight="bold" lengthAdjust="spacing" textLength="14" x="60.5" y="396.2686">10</text><text fill="#000000" font-family="sans-serif" font-size="13" lengthAdjust="spacing" textLength="172" x="78.5" y="396.2686">Selects 1 of the questionnaire</text><polygon fill="#181818" points="627.5,427.4766,637.5,431.4766,627.5,435.4766,631.5,431.4766" style="stroke:#181818;stroke-width:1.0;"/><line style="stroke:#181818;stroke-width:1.0;" x1="466.5" x2="633.5" y1="431.4766" y2="431.4766"/><text fill="#000000" font-family="sans-serif" font-size="13" font-weight="bold" lengthAdjust="spacing" textLength="14" x="473.5" y="426.6201">11</text><text fill="#000000" font-family="sans-serif" font-size="13" lengthAdjust="spacing" textLength="136" x="491.5" y="426.6201">questionnaireWithID(ID)</text><polygon fill="#181818" points="850.5,457.8281,860.5,461.8281,850.5,465.8281,854.5,461.8281" style="stroke:#181818;stroke-width:1.0;"/><line style="stroke:#181818;stroke-width:1.0;" x1="649.5" x2="856.5" y1="461.8281" y2="461.8281"/><text fill="#000000" font-family="sans-serif" font-size="13" font-weight="bold" lengthAdjust="spacing" textLength="14" x="656.5" y="456.9717">12</text><text fill="#000000" font-family="sans-serif" font-size="13" lengthAdjust="spacing" textLength="136" x="674.5" y="456.9717">questionnaireWithID(ID)</text><polygon fill="#181818" points="1056.5,488.1797,1066.5,492.1797,1056.5,496.1797,1060.5,492.1797" style="stroke:#181818;stroke-width:1.0;"/><line style="stroke:#181818;stroke-width:1.0;" x1="872.5" x2="1062.5" y1="492.1797" y2="492.1797"/><text fill="#000000" font-family="sans-serif" font-size="13" font-weight="bold" lengthAdjust="spacing" textLength="14" x="879.5" y="487.3232">13</text><text fill="#000000" font-family="sans-serif" font-size="13" lengthAdjust="spacing" textLength="159" x="897.5" y="487.3232">findQuestionnaireWithID(ID)</text><polygon fill="#181818" points="883.5,518.5313,873.5,522.5313,883.5,526.5313,879.5,522.5313" style="stroke:#181818;stroke-width:1.0;"/><line style="stroke:#181818;stroke-width:1.0;stroke-dasharray:2.0,2.0;" x1="877.5" x2="1072.5" y1="522.5313" y2="522.5313"/><text fill="#000000" font-family="sans-serif" font-size="13" font-weight="bold" lengthAdjust="spacing" textLength="14" x="889.5" y="517.6748">14</text><text fill="#000000" font-family="sans-serif" font-size="13" lengthAdjust="spacing" textLength="87" x="907.5" y="517.6748">Questionnaires</text><polygon fill="#181818" points="660.5,548.8828,650.5,552.8828,660.5,556.8828,656.5,552.8828" style="stroke:#181818;stroke-width:1.0;"/><line style="stroke:#181818;stroke-width:1.0;stroke-dasharray:2.0,2.0;" x1="654.5" x2="866.5" y1="552.8828" y2="552.8828"/><text fill="#000000" font-family="sans-serif" font-size="13" font-weight="bold" lengthAdjust="spacing" textLength="14" x="666.5" y="548.0264">15</text><text fill="#000000" font-family="sans-serif" font-size="13" lengthAdjust="spacing" textLength="87" x="684.5" y="548.0264">Questionnaires</text><polygon fill="#181818" points="1210.5,579.2344,1220.5,583.2344,1210.5,587.2344,1214.5,583.2344" style="stroke:#181818;stroke-width:1.0;"/><line style="stroke:#181818;stroke-width:1.0;" x1="649.5" x2="1216.5" y1="583.2344" y2="583.2344"/><text fill="#000000" font-family="sans-serif" font-size="13" font-weight="bold" lengthAdjust="spacing" textLength="14" x="656.5" y="578.3779">16</text><text fill="#000000" font-family="sans-serif" font-size="13" lengthAdjust="spacing" textLength="95" x="674.5" y="578.3779">getQuestString()</text><polygon fill="#181818" points="660.5,609.5859,650.5,613.5859,660.5,617.5859,656.5,613.5859" style="stroke:#181818;stroke-width:1.0;"/><line style="stroke:#181818;stroke-width:1.0;stroke-dasharray:2.0,2.0;" x1="654.5" x2="1226.5" y1="613.5859" y2="613.5859"/><text fill="#000000" font-family="sans-serif" font-size="13" font-weight="bold" lengthAdjust="spacing" textLength="14" x="666.5" y="608.7295">17</text><text fill="#000000" font-family="sans-serif" font-size="13" lengthAdjust="spacing" textLength="34" x="684.5" y="608.7295">String</text><polygon fill="#181818" points="477.5,639.9375,467.5,643.9375,477.5,647.9375,473.5,643.9375" style="stroke:#181818;stroke-width:1.0;"/><line style="stroke:#181818;stroke-width:1.0;stroke-dasharray:2.0,2.0;" x1="471.5" x2="643.5" y1="643.9375" y2="643.9375"/><text fill="#000000" font-family="sans-serif" font-size="13" font-weight="bold" lengthAdjust="spacing" textLength="14" x="483.5" y="639.0811">18</text><text fill="#000000" font-family="sans-serif" font-size="13" lengthAdjust="spacing" textLength="34" x="501.5" y="639.0811">String</text><polygon fill="#181818" points="64.5,670.2891,54.5,674.2891,64.5,678.2891,60.5,674.2891" style="stroke:#181818;stroke-width:1.0;"/><line style="stroke:#181818;stroke-width:1.0;stroke-dasharray:2.0,2.0;" x1="58.5" x2="460.5" y1="674.2891" y2="674.2891"/><text fill="#000000" font-family="sans-serif" font-size="13" font-weight="bold" lengthAdjust="spacing" textLength="14" x="70.5" y="669.4326">19</text><text fill="#000000" font-family="sans-serif" font-size="13" lengthAdjust="spacing" textLength="361" x="88.5" y="669.4326">Show entire questionnaire and asks if he/she wants to answer.</text><polygon fill="#181818" points="444.5,700.6406,454.5,704.6406,444.5,708.6406,448.5,704.6406" style="stroke:#181818;stroke-width:1.0;"/><line style="stroke:#181818;stroke-width:1.0;" x1="53.5" x2="450.5" y1="704.6406" y2="704.6406"/><text fill="#000000" font-family="sans-serif" font-size="13" font-weight="bold" lengthAdjust="spacing" textLength="14" x="60.5" y="699.7842">20</text><text fill="#000000" font-family="sans-serif" font-size="13" lengthAdjust="spacing" textLength="41" x="78.5" y="699.7842">answer</text><path d="M10,719.6406 L83,719.6406 L83,727.9922 L73,737.9922 L10,737.9922 L10,719.6406 " fill="#EEEEEE" style="stroke:#000000;stroke-width:1.5;"/><rect fill="none" height="192.4609" style="stroke:#000000;stroke-width:1.5;" width="813.5" x="10" y="719.6406"/><text fill="#000000" font-family="sans-serif" font-size="13" font-weight="bold" lengthAdjust="spacing" textLength="28" x="25" y="734.1357">loop</text><text fill="#000000" font-family="sans-serif" font-size="11" font-weight="bold" lengthAdjust="spacing" textLength="228" x="98" y="733.0596">[for every question on the questionnaire]</text><polygon fill="#181818" points="64.5,756.3438,54.5,760.3438,64.5,764.3438,60.5,760.3438" style="stroke:#181818;stroke-width:1.0;"/><line style="stroke:#181818;stroke-width:1.0;stroke-dasharray:2.0,2.0;" x1="58.5" x2="455.5" y1="760.3438" y2="760.3438"/><text fill="#000000" font-family="sans-serif" font-size="13" font-weight="bold" lengthAdjust="spacing" textLength="14" x="70.5" y="755.4873">21</text><text fill="#000000" font-family="sans-serif" font-size="13" lengthAdjust="spacing" textLength="83" x="88.5" y="755.4873">show question</text><polygon fill="#181818" points="444.5,786.6953,454.5,790.6953,444.5,794.6953,448.5,790.6953" style="stroke:#181818;stroke-width:1.0;"/><line style="stroke:#181818;stroke-width:1.0;" x1="53.5" x2="450.5" y1="790.6953" y2="790.6953"/><text fill="#000000" font-family="sans-serif" font-size="13" font-weight="bold" lengthAdjust="spacing" textLength="14" x="60.5" y="785.8389">22</text><text fill="#000000" font-family="sans-serif" font-size="13" lengthAdjust="spacing" textLength="94" x="78.5" y="785.8389">answer question</text><polygon fill="#181818" points="627.5,817.0469,637.5,821.0469,627.5,825.0469,631.5,821.0469" style="stroke:#181818;stroke-width:1.0;"/><line style="stroke:#181818;stroke-width:1.0;" x1="466.5" x2="633.5" y1="821.0469" y2="821.0469"/><text fill="#000000" font-family="sans-serif" font-size="13" font-weight="bold" lengthAdjust="spacing" textLength="14" x="473.5" y="816.1904">23</text><text fill="#000000" font-family="sans-serif" font-size="13" lengthAdjust="spacing" textLength="50" x="491.5" y="816.1904">validates</text><polygon fill="#181818" points="477.5,858.5742,467.5,862.5742,477.5,866.5742,473.5,862.5742" style="stroke:#181818;stroke-width:1.0;"/><line style="stroke:#181818;stroke-width:1.0;stroke-dasharray:2.0,2.0;" x1="471.5" x2="643.5" y1="862.5742" y2="862.5742"/><text fill="#000000" font-family="sans-serif" font-size="13" font-weight="bold" lengthAdjust="spacing" textLength="14" x="483.5" y="857.7178">24</text><text fill="#000000" font-family="sans-serif" font-size="13" lengthAdjust="spacing" textLength="45" x="501.5" y="857.7178">boolean</text><path d="M654,834.0469 L654,876.0469 L808,876.0469 L808,844.0469 L798,834.0469 L654,834.0469 " fill="#FEFFDD" style="stroke:#181818;stroke-width:0.5;"/><path d="M798,834.0469 L798,844.0469 L808,844.0469 L798,834.0469 " fill="#FEFFDD" style="stroke:#181818;stroke-width:0.5;"/><text fill="#000000" font-family="sans-serif" font-size="13" lengthAdjust="spacing" textLength="115" x="660" y="852.542">i dont know yet how</text><text fill="#000000" font-family="sans-serif" font-size="13" lengthAdjust="spacing" textLength="133" x="660" y="868.8936">im going to do this part</text><polygon fill="#181818" points="64.5,900.1016,54.5,904.1016,64.5,908.1016,60.5,904.1016" style="stroke:#181818;stroke-width:1.0;"/><line style="stroke:#181818;stroke-width:1.0;stroke-dasharray:2.0,2.0;" x1="58.5" x2="455.5" y1="904.1016" y2="904.1016"/><text fill="#000000" font-family="sans-serif" font-size="13" font-weight="bold" lengthAdjust="spacing" textLength="14" x="70.5" y="899.2451">25</text><text fill="#000000" font-family="sans-serif" font-size="13" lengthAdjust="spacing" textLength="28" x="88.5" y="899.2451">good</text><polygon fill="#181818" points="64.5,937.4531,54.5,941.4531,64.5,945.4531,60.5,941.4531" style="stroke:#181818;stroke-width:1.0;"/><line style="stroke:#181818;stroke-width:1.0;stroke-dasharray:2.0,2.0;" x1="58.5" x2="460.5" y1="941.4531" y2="941.4531"/><text fill="#000000" font-family="sans-serif" font-size="13" font-weight="bold" lengthAdjust="spacing" textLength="14" x="70.5" y="936.5967">26</text><text fill="#000000" font-family="sans-serif" font-size="13" lengthAdjust="spacing" textLength="160" x="88.5" y="936.5967">ask to submit questionnaire</text><polygon fill="#181818" points="444.5,978.9805,454.5,982.9805,444.5,986.9805,448.5,982.9805" style="stroke:#181818;stroke-width:1.0;"/><line style="stroke:#181818;stroke-width:1.0;" x1="53.5" x2="450.5" y1="982.9805" y2="982.9805"/><text fill="#000000" font-family="sans-serif" font-size="13" font-weight="bold" lengthAdjust="spacing" textLength="14" x="60.5" y="978.124">27</text><text fill="#000000" font-family="sans-serif" font-size="13" lengthAdjust="spacing" textLength="39" x="78.5" y="978.124">submit</text><path d="M471,954.4531 L471,996.4531 L625,996.4531 L625,964.4531 L615,954.4531 L471,954.4531 " fill="#FEFFDD" style="stroke:#181818;stroke-width:0.5;"/><path d="M615,954.4531 L615,964.4531 L625,964.4531 L615,954.4531 " fill="#FEFFDD" style="stroke:#181818;stroke-width:0.5;"/><text fill="#000000" font-family="sans-serif" font-size="13" lengthAdjust="spacing" textLength="115" x="477" y="972.9482">i dont know yet how</text><text fill="#000000" font-family="sans-serif" font-size="13" lengthAdjust="spacing" textLength="133" x="477" y="989.2998">im going to do this part</text><!--MD5=[cd56b3b0460f309a16fff829a91e52d9]
@startuml
'https://plantuml.com/sequence-diagram

autonumber

actor Customer

participant QuestionnairesUI as UI

participant QuestionnairesController as C

participant QuestionnairesService as QS

participant QuestionnairesRepository as QR

participant Questionnaires as Q
'?????????????


participant Answers as A

participant AnswersRepository as AR




Customer -> UI: Show list questionnaires
activate UI

UI -> C : allQuestionnaires()
activate C

C ->QS:allQuestionnaires()
activate QS

QS ->QR:findQuestionnaires()
activate QR
QS <- - QR:Iterable<Questionnaires>
deactivate QR
C <- - QS:Iterable<Questionnaires>
deactivate QS
C -> C: doList(Iterable<Questionnaires>)
C - ->UI: List<String>
deactivate




UI - -> Customer: Show list and ask to view questionnaire or exit
deactivate
Customer -> UI: Selects 1 of the questionnaire

activate UI
UI -> C : questionnaireWithID(ID)
activate C

C ->QS:questionnaireWithID(ID)
activate QS

QS ->QR:findQuestionnaireWithID(ID)
activate QR
QS <- - QR:Questionnaires
deactivate QR
C <- - QS:Questionnaires
deactivate QS
C->Q:getQuestString()
activate Q
C<- -Q:String
deactivate Q
C- ->UI:String
deactivate C
deactivate QS
Customer <- - UI: Show entire questionnaire and asks if he/she wants to answer.
deactivate UI

Customer -> UI: answer
activate UI
'aqui como é que é o activate e o desactivate
loop for every question on the questionnaire
    UI - -> Customer: show question

    Customer -> UI: answer question

    UI->C:validates
    activate C
    C- ->UI:boolean

    note right
    i dont know yet how
    im going to do this part
    end note


    deactivate
    UI- ->Customer:good

end
UI - -> Customer: ask to submit questionnaire



deactivate UI
deactivate UI

Customer -> UI:submit
activate UI

deactivate UI

note right
i dont know yet how
im going to do this part
end note

@enduml

@startuml

autonumber

actor Customer

participant QuestionnairesUI as UI

participant QuestionnairesController as C

participant QuestionnairesService as QS

participant QuestionnairesRepository as QR

participant Questionnaires as Q


participant Answers as A

participant AnswersRepository as AR




Customer -> UI: Show list questionnaires
activate UI

UI -> C : allQuestionnaires()
activate C

C ->QS:allQuestionnaires()
activate QS

QS ->QR:findQuestionnaires()
activate QR
QS <- - QR:Iterable<Questionnaires>
deactivate QR
C <- - QS:Iterable<Questionnaires>
deactivate QS
C -> C: doList(Iterable<Questionnaires>)
C - ->UI: List<String>
deactivate




UI - -> Customer: Show list and ask to view questionnaire or exit
deactivate
Customer -> UI: Selects 1 of the questionnaire

activate UI
UI -> C : questionnaireWithID(ID)
activate C

C ->QS:questionnaireWithID(ID)
activate QS

QS ->QR:findQuestionnaireWithID(ID)
activate QR
QS <- - QR:Questionnaires
deactivate QR
C <- - QS:Questionnaires
deactivate QS
C->Q:getQuestString()
activate Q
C<- -Q:String
deactivate Q
C- ->UI:String
deactivate C
deactivate QS
Customer <- - UI: Show entire questionnaire and asks if he/she wants to answer.
deactivate UI

Customer -> UI: answer
activate UI
loop for every question on the questionnaire
    UI - -> Customer: show question

    Customer -> UI: answer question

    UI->C:validates
    activate C
    C- ->UI:boolean

    note right
    i dont know yet how
    im going to do this part
    end note


    deactivate
    UI- ->Customer:good

end
UI - -> Customer: ask to submit questionnaire



deactivate UI
deactivate UI

Customer -> UI:submit
activate UI

deactivate UI

note right
i dont know yet how
im going to do this part
end note

@enduml

PlantUML version 1.2022.4(Sat Apr 09 14:29:17 BST 2022)
(GPL source distribution)
Java Runtime: OpenJDK Runtime Environment
JVM: OpenJDK 64-Bit Server VM
Default Encoding: Cp1252
Language: pt
Country: PT
--></g></svg>