<?xml version="1.0" encoding="UTF-8" standalone="no"?><svg xmlns="http://www.w3.org/2000/svg" xmlns:xlink="http://www.w3.org/1999/xlink" contentStyleType="text/css" height="1355px" preserveAspectRatio="none" style="width:1723px;height:1355px;background:#FFFFFF;" version="1.1" viewBox="0 0 1723 1355" width="1723px" zoomAndPan="magnify"><defs/><g><rect fill="#FFFFFF" height="255.8125" style="stroke:#181818;stroke-width:1.0;" width="10" x="456.5" y="114.9609"/><rect fill="#FFFFFF" height="273.1641" style="stroke:#181818;stroke-width:1.0;" width="10" x="456.5" y="401.125"/><rect fill="#FFFFFF" height="116.4063" style="stroke:#181818;stroke-width:1.0;" width="10" x="456.5" y="704.6406"/><rect fill="#FFFFFF" height="76.7031" style="stroke:#181818;stroke-width:1.0;" width="10" x="456.5" y="851.3984"/><rect fill="#FFFFFF" height="30.3516" style="stroke:#181818;stroke-width:1.0;" width="10" x="456.5" y="998.8047"/><rect fill="#FFFFFF" height="195.1094" style="stroke:#181818;stroke-width:1.0;" width="10" x="683.5" y="145.3125"/><rect fill="#FFFFFF" height="212.4609" style="stroke:#181818;stroke-width:1.0;" width="10" x="683.5" y="431.4766"/><rect fill="#FFFFFF" height="30.3516" style="stroke:#181818;stroke-width:1.0;" width="10" x="683.5" y="734.9922"/><rect fill="#FFFFFF" height="159.0156" style="stroke:#181818;stroke-width:1.0;" width="10" x="683.5" y="1029.1563"/><rect fill="#FFFFFF" height="91.0547" style="stroke:#181818;stroke-width:1.0;" width="10" x="906.5" y="175.6641"/><rect fill="#FFFFFF" height="91.0547" style="stroke:#181818;stroke-width:1.0;" width="10" x="906.5" y="461.8281"/><rect fill="#FFFFFF" height="60.3516" style="stroke:#181818;stroke-width:1.0;" width="10" x="906.5" y="1188.1719"/><rect fill="#FFFFFF" height="30.3516" style="stroke:#181818;stroke-width:1.0;" width="10" x="1112.5" y="206.0156"/><rect fill="#FFFFFF" height="30.3516" style="stroke:#181818;stroke-width:1.0;" width="10" x="1112.5" y="492.1797"/><rect fill="#FFFFFF" height="30.3516" style="stroke:#181818;stroke-width:1.0;" width="10" x="1281.5" y="583.2344"/><rect fill="#FFFFFF" height="30" style="stroke:#181818;stroke-width:1.0;" width="10" x="1495.5" y="1218.5234"/><rect fill="#FFFFFF" height="30.3516" style="stroke:#181818;stroke-width:1.0;" width="10" x="1641" y="1059.5078"/><rect height="158.7578" style="stroke:#000000;stroke-width:1.5;fill:none;" width="536.5" x="10" y="780.3438"/><rect height="151.6641" style="stroke:#000000;stroke-width:1.5;fill:none;" width="982" x="592.5" y="1104.8594"/><line style="stroke:#181818;stroke-width:0.5;fill:none;stroke-dasharray:5.0,5.0;" x1="53" x2="53" y1="82.6094" y2="1273.5234"/><line style="stroke:#181818;stroke-width:0.5;fill:none;stroke-dasharray:5.0,5.0;" x1="461.5" x2="461.5" y1="82.6094" y2="1273.5234"/><line style="stroke:#181818;stroke-width:0.5;fill:none;stroke-dasharray:5.0,5.0;" x1="688.5" x2="688.5" y1="82.6094" y2="1273.5234"/><line style="stroke:#181818;stroke-width:0.5;fill:none;stroke-dasharray:5.0,5.0;" x1="911" x2="911" y1="82.6094" y2="1273.5234"/><line style="stroke:#181818;stroke-width:0.5;fill:none;stroke-dasharray:5.0,5.0;" x1="1117.5" x2="1117.5" y1="82.6094" y2="1273.5234"/><line style="stroke:#181818;stroke-width:0.5;fill:none;stroke-dasharray:5.0,5.0;" x1="1286.5" x2="1286.5" y1="82.6094" y2="1273.5234"/><line style="stroke:#181818;stroke-width:0.5;fill:none;stroke-dasharray:5.0,5.0;" x1="1396.5" x2="1396.5" y1="1154.5156" y2="1273.5234"/><line style="stroke:#181818;stroke-width:0.5;fill:none;stroke-dasharray:5.0,5.0;" x1="1500.5" x2="1500.5" y1="82.6094" y2="1273.5234"/><line style="stroke:#181818;stroke-width:0.5;fill:none;stroke-dasharray:5.0,5.0;" x1="1645.5" x2="1645.5" y1="82.6094" y2="1273.5234"/><text fill="#000000" font-family="sans-serif" font-size="14" lengthAdjust="spacing" textLength="61" x="20" y="79.5332">Customer</text><ellipse cx="53.5" cy="13.5" fill="#E2E2F0" rx="8" ry="8" style="stroke:#181818;stroke-width:0.5;"/><path d="M53.5,21.5 L53.5,48.5 M40.5,29.5 L66.5,29.5 M53.5,48.5 L40.5,63.5 M53.5,48.5 L66.5,63.5 " fill="none" style="stroke:#181818;stroke-width:0.5;"/><text fill="#000000" font-family="sans-serif" font-size="14" lengthAdjust="spacing" textLength="61" x="20" y="1287.0566">Customer</text><ellipse cx="53.5" cy="1298.6328" fill="#E2E2F0" rx="8" ry="8" style="stroke:#181818;stroke-width:0.5;"/><path d="M53.5,1306.6328 L53.5,1333.6328 M40.5,1314.6328 L66.5,1314.6328 M53.5,1333.6328 L40.5,1348.6328 M53.5,1333.6328 L66.5,1348.6328 " fill="none" style="stroke:#181818;stroke-width:0.5;"/><rect fill="#E2E2F0" height="31.6094" rx="2.5" ry="2.5" style="stroke:#181818;stroke-width:0.5;" width="122" x="400.5" y="50"/><text fill="#000000" font-family="sans-serif" font-size="14" lengthAdjust="spacing" textLength="108" x="407.5" y="71.5332">QuestionnairesUI</text><rect fill="#E2E2F0" height="31.6094" rx="2.5" ry="2.5" style="stroke:#181818;stroke-width:0.5;" width="122" x="400.5" y="1272.5234"/><text fill="#000000" font-family="sans-serif" font-size="14" lengthAdjust="spacing" textLength="108" x="407.5" y="1294.0566">QuestionnairesUI</text><rect fill="#E2E2F0" height="31.6094" rx="2.5" ry="2.5" style="stroke:#181818;stroke-width:0.5;" width="172" x="602.5" y="50"/><text fill="#000000" font-family="sans-serif" font-size="14" lengthAdjust="spacing" textLength="158" x="609.5" y="71.5332">QuestionnairesController</text><rect fill="#E2E2F0" height="31.6094" rx="2.5" ry="2.5" style="stroke:#181818;stroke-width:0.5;" width="172" x="602.5" y="1272.5234"/><text fill="#000000" font-family="sans-serif" font-size="14" lengthAdjust="spacing" textLength="158" x="609.5" y="1294.0566">QuestionnairesController</text><rect fill="#E2E2F0" height="31.6094" rx="2.5" ry="2.5" style="stroke:#181818;stroke-width:0.5;" width="157" x="833" y="50"/><text fill="#000000" font-family="sans-serif" font-size="14" lengthAdjust="spacing" textLength="143" x="840" y="71.5332">QuestionnairesService</text><rect fill="#E2E2F0" height="31.6094" rx="2.5" ry="2.5" style="stroke:#181818;stroke-width:0.5;" width="157" x="833" y="1272.5234"/><text fill="#000000" font-family="sans-serif" font-size="14" lengthAdjust="spacing" textLength="143" x="840" y="1294.0566">QuestionnairesService</text><rect fill="#E2E2F0" height="31.6094" rx="2.5" ry="2.5" style="stroke:#181818;stroke-width:0.5;" width="178" x="1028.5" y="50"/><text fill="#000000" font-family="sans-serif" font-size="14" lengthAdjust="spacing" textLength="164" x="1035.5" y="71.5332">QuestionnairesRepository</text><rect fill="#E2E2F0" height="31.6094" rx="2.5" ry="2.5" style="stroke:#181818;stroke-width:0.5;" width="178" x="1028.5" y="1272.5234"/><text fill="#000000" font-family="sans-serif" font-size="14" lengthAdjust="spacing" textLength="164" x="1035.5" y="1294.0566">QuestionnairesRepository</text><rect fill="#E2E2F0" height="31.6094" rx="2.5" ry="2.5" style="stroke:#181818;stroke-width:0.5;" width="140" x="1216.5" y="50"/><text fill="#000000" font-family="sans-serif" font-size="14" lengthAdjust="spacing" textLength="126" x="1223.5" y="71.5332">QuestionnaireString</text><rect fill="#E2E2F0" height="31.6094" rx="2.5" ry="2.5" style="stroke:#181818;stroke-width:0.5;" width="140" x="1216.5" y="1272.5234"/><text fill="#000000" font-family="sans-serif" font-size="14" lengthAdjust="spacing" textLength="126" x="1223.5" y="1294.0566">QuestionnaireString</text><rect fill="#E2E2F0" height="31.6094" rx="2.5" ry="2.5" style="stroke:#181818;stroke-width:0.5;" width="60" x="1366.5" y="1272.5234"/><text fill="#000000" font-family="sans-serif" font-size="14" lengthAdjust="spacing" textLength="46" x="1373.5" y="1294.0566">Answer</text><rect fill="#E2E2F0" height="31.6094" rx="2.5" ry="2.5" style="stroke:#181818;stroke-width:0.5;" width="128" x="1436.5" y="50"/><text fill="#000000" font-family="sans-serif" font-size="14" lengthAdjust="spacing" textLength="114" x="1443.5" y="71.5332">AnswerRepository</text><rect fill="#E2E2F0" height="31.6094" rx="2.5" ry="2.5" style="stroke:#181818;stroke-width:0.5;" width="128" x="1436.5" y="1272.5234"/><text fill="#000000" font-family="sans-serif" font-size="14" lengthAdjust="spacing" textLength="114" x="1443.5" y="1294.0566">AnswerRepository</text><rect fill="#E2E2F0" height="31.6094" rx="2.5" ry="2.5" style="stroke:#181818;stroke-width:0.5;" width="143" x="1574.5" y="50"/><text fill="#000000" font-family="sans-serif" font-size="14" lengthAdjust="spacing" textLength="129" x="1581.5" y="71.5332">CostumerRepository</text><rect fill="#E2E2F0" height="31.6094" rx="2.5" ry="2.5" style="stroke:#181818;stroke-width:0.5;" width="143" x="1574.5" y="1272.5234"/><text fill="#000000" font-family="sans-serif" font-size="14" lengthAdjust="spacing" textLength="129" x="1581.5" y="1294.0566">CostumerRepository</text><rect fill="#FFFFFF" height="255.8125" style="stroke:#181818;stroke-width:1.0;" width="10" x="456.5" y="114.9609"/><rect fill="#FFFFFF" height="273.1641" style="stroke:#181818;stroke-width:1.0;" width="10" x="456.5" y="401.125"/><rect fill="#FFFFFF" height="116.4063" style="stroke:#181818;stroke-width:1.0;" width="10" x="456.5" y="704.6406"/><rect fill="#FFFFFF" height="76.7031" style="stroke:#181818;stroke-width:1.0;" width="10" x="456.5" y="851.3984"/><rect fill="#FFFFFF" height="30.3516" style="stroke:#181818;stroke-width:1.0;" width="10" x="456.5" y="998.8047"/><rect fill="#FFFFFF" height="195.1094" style="stroke:#181818;stroke-width:1.0;" width="10" x="683.5" y="145.3125"/><rect fill="#FFFFFF" height="212.4609" style="stroke:#181818;stroke-width:1.0;" width="10" x="683.5" y="431.4766"/><rect fill="#FFFFFF" height="30.3516" style="stroke:#181818;stroke-width:1.0;" width="10" x="683.5" y="734.9922"/><rect fill="#FFFFFF" height="159.0156" style="stroke:#181818;stroke-width:1.0;" width="10" x="683.5" y="1029.1563"/><rect fill="#FFFFFF" height="91.0547" style="stroke:#181818;stroke-width:1.0;" width="10" x="906.5" y="175.6641"/><rect fill="#FFFFFF" height="91.0547" style="stroke:#181818;stroke-width:1.0;" width="10" x="906.5" y="461.8281"/><rect fill="#FFFFFF" height="60.3516" style="stroke:#181818;stroke-width:1.0;" width="10" x="906.5" y="1188.1719"/><rect fill="#FFFFFF" height="30.3516" style="stroke:#181818;stroke-width:1.0;" width="10" x="1112.5" y="206.0156"/><rect fill="#FFFFFF" height="30.3516" style="stroke:#181818;stroke-width:1.0;" width="10" x="1112.5" y="492.1797"/><rect fill="#FFFFFF" height="30.3516" style="stroke:#181818;stroke-width:1.0;" width="10" x="1281.5" y="583.2344"/><rect fill="#FFFFFF" height="30" style="stroke:#181818;stroke-width:1.0;" width="10" x="1495.5" y="1218.5234"/><rect fill="#FFFFFF" height="30.3516" style="stroke:#181818;stroke-width:1.0;" width="10" x="1641" y="1059.5078"/><polygon fill="#181818" points="444.5,110.9609,454.5,114.9609,444.5,118.9609,448.5,114.9609" style="stroke:#181818;stroke-width:1.0;"/><line style="stroke:#181818;stroke-width:1.0;" x1="53.5" x2="450.5" y1="114.9609" y2="114.9609"/><text fill="#000000" font-family="sans-serif" font-size="13" font-weight="bold" lengthAdjust="spacing" textLength="7" x="60.5" y="110.1045">1</text><text fill="#000000" font-family="sans-serif" font-size="13" lengthAdjust="spacing" textLength="141" x="71.5" y="110.1045">Show list questionnaires</text><polygon fill="#181818" points="671.5,141.3125,681.5,145.3125,671.5,149.3125,675.5,145.3125" style="stroke:#181818;stroke-width:1.0;"/><line style="stroke:#181818;stroke-width:1.0;" x1="466.5" x2="677.5" y1="145.3125" y2="145.3125"/><text fill="#000000" font-family="sans-serif" font-size="13" font-weight="bold" lengthAdjust="spacing" textLength="7" x="473.5" y="140.4561">2</text><text fill="#000000" font-family="sans-serif" font-size="13" lengthAdjust="spacing" textLength="108" x="484.5" y="140.4561">allQuestionnaires()</text><polygon fill="#181818" points="894.5,171.6641,904.5,175.6641,894.5,179.6641,898.5,175.6641" style="stroke:#181818;stroke-width:1.0;"/><line style="stroke:#181818;stroke-width:1.0;" x1="693.5" x2="900.5" y1="175.6641" y2="175.6641"/><text fill="#000000" font-family="sans-serif" font-size="13" font-weight="bold" lengthAdjust="spacing" textLength="7" x="700.5" y="170.8076">3</text><text fill="#000000" font-family="sans-serif" font-size="13" lengthAdjust="spacing" textLength="108" x="711.5" y="170.8076">allQuestionnaires()</text><polygon fill="#181818" points="1100.5,202.0156,1110.5,206.0156,1100.5,210.0156,1104.5,206.0156" style="stroke:#181818;stroke-width:1.0;"/><line style="stroke:#181818;stroke-width:1.0;" x1="916.5" x2="1106.5" y1="206.0156" y2="206.0156"/><text fill="#000000" font-family="sans-serif" font-size="13" font-weight="bold" lengthAdjust="spacing" textLength="7" x="923.5" y="201.1592">4</text><text fill="#000000" font-family="sans-serif" font-size="13" lengthAdjust="spacing" textLength="115" x="934.5" y="201.1592">findQuestionnaires()</text><polygon fill="#181818" points="927.5,232.3672,917.5,236.3672,927.5,240.3672,923.5,236.3672" style="stroke:#181818;stroke-width:1.0;"/><line style="stroke:#181818;stroke-width:1.0;stroke-dasharray:2.0,2.0;" x1="921.5" x2="1116.5" y1="236.3672" y2="236.3672"/><text fill="#000000" font-family="sans-serif" font-size="13" font-weight="bold" lengthAdjust="spacing" textLength="7" x="933.5" y="231.5107">5</text><text fill="#000000" font-family="sans-serif" font-size="13" lengthAdjust="spacing" textLength="145" x="944.5" y="231.5107">Iterable&lt;Questionnaires&gt;</text><polygon fill="#181818" points="704.5,262.7188,694.5,266.7188,704.5,270.7188,700.5,266.7188" style="stroke:#181818;stroke-width:1.0;"/><line style="stroke:#181818;stroke-width:1.0;stroke-dasharray:2.0,2.0;" x1="698.5" x2="910.5" y1="266.7188" y2="266.7188"/><text fill="#000000" font-family="sans-serif" font-size="13" font-weight="bold" lengthAdjust="spacing" textLength="7" x="710.5" y="261.8623">6</text><text fill="#000000" font-family="sans-serif" font-size="13" lengthAdjust="spacing" textLength="145" x="721.5" y="261.8623">Iterable&lt;Questionnaires&gt;</text><line style="stroke:#181818;stroke-width:1.0;" x1="693.5" x2="735.5" y1="297.0703" y2="297.0703"/><line style="stroke:#181818;stroke-width:1.0;" x1="735.5" x2="735.5" y1="297.0703" y2="310.0703"/><line style="stroke:#181818;stroke-width:1.0;" x1="694.5" x2="735.5" y1="310.0703" y2="310.0703"/><polygon fill="#181818" points="704.5,306.0703,694.5,310.0703,704.5,314.0703,700.5,310.0703" style="stroke:#181818;stroke-width:1.0;"/><text fill="#000000" font-family="sans-serif" font-size="13" font-weight="bold" lengthAdjust="spacing" textLength="7" x="700.5" y="292.2139">7</text><text fill="#000000" font-family="sans-serif" font-size="13" lengthAdjust="spacing" textLength="188" x="711.5" y="292.2139">doList(Iterable&lt;Questionnaires&gt;)</text><polygon fill="#181818" points="477.5,336.4219,467.5,340.4219,477.5,344.4219,473.5,340.4219" style="stroke:#181818;stroke-width:1.0;"/><line style="stroke:#181818;stroke-width:1.0;stroke-dasharray:2.0,2.0;" x1="471.5" x2="687.5" y1="340.4219" y2="340.4219"/><text fill="#000000" font-family="sans-serif" font-size="13" font-weight="bold" lengthAdjust="spacing" textLength="7" x="483.5" y="335.5654">8</text><text fill="#000000" font-family="sans-serif" font-size="13" lengthAdjust="spacing" textLength="71" x="494.5" y="335.5654">List&lt;String&gt;</text><polygon fill="#181818" points="64.5,366.7734,54.5,370.7734,64.5,374.7734,60.5,370.7734" style="stroke:#181818;stroke-width:1.0;"/><line style="stroke:#181818;stroke-width:1.0;stroke-dasharray:2.0,2.0;" x1="58.5" x2="460.5" y1="370.7734" y2="370.7734"/><text fill="#000000" font-family="sans-serif" font-size="13" font-weight="bold" lengthAdjust="spacing" textLength="7" x="70.5" y="365.917">9</text><text fill="#000000" font-family="sans-serif" font-size="13" lengthAdjust="spacing" textLength="267" x="81.5" y="365.917">Show list and ask to view questionnaire or exit</text><polygon fill="#181818" points="444.5,397.125,454.5,401.125,444.5,405.125,448.5,401.125" style="stroke:#181818;stroke-width:1.0;"/><line style="stroke:#181818;stroke-width:1.0;" x1="53.5" x2="450.5" y1="401.125" y2="401.125"/><text fill="#000000" font-family="sans-serif" font-size="13" font-weight="bold" lengthAdjust="spacing" textLength="14" x="60.5" y="396.2686">10</text><text fill="#000000" font-family="sans-serif" font-size="13" lengthAdjust="spacing" textLength="172" x="78.5" y="396.2686">Selects 1 of the questionnaire</text><polygon fill="#181818" points="671.5,427.4766,681.5,431.4766,671.5,435.4766,675.5,431.4766" style="stroke:#181818;stroke-width:1.0;"/><line style="stroke:#181818;stroke-width:1.0;" x1="466.5" x2="677.5" y1="431.4766" y2="431.4766"/><text fill="#000000" font-family="sans-serif" font-size="13" font-weight="bold" lengthAdjust="spacing" textLength="14" x="473.5" y="426.6201">11</text><text fill="#000000" font-family="sans-serif" font-size="13" lengthAdjust="spacing" textLength="136" x="491.5" y="426.6201">questionnaireWithID(ID)</text><polygon fill="#181818" points="894.5,457.8281,904.5,461.8281,894.5,465.8281,898.5,461.8281" style="stroke:#181818;stroke-width:1.0;"/><line style="stroke:#181818;stroke-width:1.0;" x1="693.5" x2="900.5" y1="461.8281" y2="461.8281"/><text fill="#000000" font-family="sans-serif" font-size="13" font-weight="bold" lengthAdjust="spacing" textLength="14" x="700.5" y="456.9717">12</text><text fill="#000000" font-family="sans-serif" font-size="13" lengthAdjust="spacing" textLength="136" x="718.5" y="456.9717">questionnaireWithID(ID)</text><polygon fill="#181818" points="1100.5,488.1797,1110.5,492.1797,1100.5,496.1797,1104.5,492.1797" style="stroke:#181818;stroke-width:1.0;"/><line style="stroke:#181818;stroke-width:1.0;" x1="916.5" x2="1106.5" y1="492.1797" y2="492.1797"/><text fill="#000000" font-family="sans-serif" font-size="13" font-weight="bold" lengthAdjust="spacing" textLength="14" x="923.5" y="487.3232">13</text><text fill="#000000" font-family="sans-serif" font-size="13" lengthAdjust="spacing" textLength="159" x="941.5" y="487.3232">findQuestionnaireWithID(ID)</text><polygon fill="#181818" points="927.5,518.5313,917.5,522.5313,927.5,526.5313,923.5,522.5313" style="stroke:#181818;stroke-width:1.0;"/><line style="stroke:#181818;stroke-width:1.0;stroke-dasharray:2.0,2.0;" x1="921.5" x2="1116.5" y1="522.5313" y2="522.5313"/><text fill="#000000" font-family="sans-serif" font-size="13" font-weight="bold" lengthAdjust="spacing" textLength="14" x="933.5" y="517.6748">14</text><text fill="#000000" font-family="sans-serif" font-size="13" lengthAdjust="spacing" textLength="87" x="951.5" y="517.6748">Questionnaires</text><polygon fill="#181818" points="704.5,548.8828,694.5,552.8828,704.5,556.8828,700.5,552.8828" style="stroke:#181818;stroke-width:1.0;"/><line style="stroke:#181818;stroke-width:1.0;stroke-dasharray:2.0,2.0;" x1="698.5" x2="910.5" y1="552.8828" y2="552.8828"/><text fill="#000000" font-family="sans-serif" font-size="13" font-weight="bold" lengthAdjust="spacing" textLength="14" x="710.5" y="548.0264">15</text><text fill="#000000" font-family="sans-serif" font-size="13" lengthAdjust="spacing" textLength="87" x="728.5" y="548.0264">Questionnaires</text><polygon fill="#181818" points="1269.5,579.2344,1279.5,583.2344,1269.5,587.2344,1273.5,583.2344" style="stroke:#181818;stroke-width:1.0;"/><line style="stroke:#181818;stroke-width:1.0;" x1="693.5" x2="1275.5" y1="583.2344" y2="583.2344"/><text fill="#000000" font-family="sans-serif" font-size="13" font-weight="bold" lengthAdjust="spacing" textLength="14" x="700.5" y="578.3779">16</text><text fill="#000000" font-family="sans-serif" font-size="13" lengthAdjust="spacing" textLength="95" x="718.5" y="578.3779">getQuestString()</text><polygon fill="#181818" points="704.5,609.5859,694.5,613.5859,704.5,617.5859,700.5,613.5859" style="stroke:#181818;stroke-width:1.0;"/><line style="stroke:#181818;stroke-width:1.0;stroke-dasharray:2.0,2.0;" x1="698.5" x2="1285.5" y1="613.5859" y2="613.5859"/><text fill="#000000" font-family="sans-serif" font-size="13" font-weight="bold" lengthAdjust="spacing" textLength="14" x="710.5" y="608.7295">17</text><text fill="#000000" font-family="sans-serif" font-size="13" lengthAdjust="spacing" textLength="34" x="728.5" y="608.7295">String</text><polygon fill="#181818" points="477.5,639.9375,467.5,643.9375,477.5,647.9375,473.5,643.9375" style="stroke:#181818;stroke-width:1.0;"/><line style="stroke:#181818;stroke-width:1.0;stroke-dasharray:2.0,2.0;" x1="471.5" x2="687.5" y1="643.9375" y2="643.9375"/><text fill="#000000" font-family="sans-serif" font-size="13" font-weight="bold" lengthAdjust="spacing" textLength="14" x="483.5" y="639.0811">18</text><text fill="#000000" font-family="sans-serif" font-size="13" lengthAdjust="spacing" textLength="34" x="501.5" y="639.0811">String</text><polygon fill="#181818" points="64.5,670.2891,54.5,674.2891,64.5,678.2891,60.5,674.2891" style="stroke:#181818;stroke-width:1.0;"/><line style="stroke:#181818;stroke-width:1.0;stroke-dasharray:2.0,2.0;" x1="58.5" x2="460.5" y1="674.2891" y2="674.2891"/><text fill="#000000" font-family="sans-serif" font-size="13" font-weight="bold" lengthAdjust="spacing" textLength="14" x="70.5" y="669.4326">19</text><text fill="#000000" font-family="sans-serif" font-size="13" lengthAdjust="spacing" textLength="361" x="88.5" y="669.4326">Show entire questionnaire and asks if he/she wants to answer.</text><polygon fill="#181818" points="444.5,700.6406,454.5,704.6406,444.5,708.6406,448.5,704.6406" style="stroke:#181818;stroke-width:1.0;"/><line style="stroke:#181818;stroke-width:1.0;" x1="53.5" x2="450.5" y1="704.6406" y2="704.6406"/><text fill="#000000" font-family="sans-serif" font-size="13" font-weight="bold" lengthAdjust="spacing" textLength="14" x="60.5" y="699.7842">20</text><text fill="#000000" font-family="sans-serif" font-size="13" lengthAdjust="spacing" textLength="41" x="78.5" y="699.7842">answer</text><polygon fill="#181818" points="671.5,730.9922,681.5,734.9922,671.5,738.9922,675.5,734.9922" style="stroke:#181818;stroke-width:1.0;"/><line style="stroke:#181818;stroke-width:1.0;" x1="466.5" x2="677.5" y1="734.9922" y2="734.9922"/><text fill="#000000" font-family="sans-serif" font-size="13" font-weight="bold" lengthAdjust="spacing" textLength="14" x="473.5" y="730.1357">21</text><text fill="#000000" font-family="sans-serif" font-size="13" lengthAdjust="spacing" textLength="169" x="491.5" y="730.1357">organizeQuestioner(question)</text><polygon fill="#181818" points="477.5,761.3438,467.5,765.3438,477.5,769.3438,473.5,765.3438" style="stroke:#181818;stroke-width:1.0;"/><line style="stroke:#181818;stroke-width:1.0;stroke-dasharray:2.0,2.0;" x1="471.5" x2="687.5" y1="765.3438" y2="765.3438"/><text fill="#000000" font-family="sans-serif" font-size="13" font-weight="bold" lengthAdjust="spacing" textLength="14" x="483.5" y="760.4873">22</text><text fill="#000000" font-family="sans-serif" font-size="13" lengthAdjust="spacing" textLength="42" x="501.5" y="760.4873">String[]</text><path d="M10,780.3438 L83,780.3438 L83,788.6953 L73,798.6953 L10,798.6953 L10,780.3438 " fill="#EEEEEE" style="stroke:#000000;stroke-width:1.5;"/><rect fill="none" height="158.7578" style="stroke:#000000;stroke-width:1.5;" width="536.5" x="10" y="780.3438"/><text fill="#000000" font-family="sans-serif" font-size="13" font-weight="bold" lengthAdjust="spacing" textLength="28" x="25" y="794.8389">loop</text><text fill="#000000" font-family="sans-serif" font-size="11" font-weight="bold" lengthAdjust="spacing" textLength="228" x="98" y="793.7627">[for every question on the questionnaire]</text><polygon fill="#181818" points="64.5,817.0469,54.5,821.0469,64.5,825.0469,60.5,821.0469" style="stroke:#181818;stroke-width:1.0;"/><line style="stroke:#181818;stroke-width:1.0;stroke-dasharray:2.0,2.0;" x1="58.5" x2="460.5" y1="821.0469" y2="821.0469"/><text fill="#000000" font-family="sans-serif" font-size="13" font-weight="bold" lengthAdjust="spacing" textLength="14" x="70.5" y="816.1904">23</text><text fill="#000000" font-family="sans-serif" font-size="13" lengthAdjust="spacing" textLength="83" x="88.5" y="816.1904">show question</text><polygon fill="#181818" points="444.5,847.3984,454.5,851.3984,444.5,855.3984,448.5,851.3984" style="stroke:#181818;stroke-width:1.0;"/><line style="stroke:#181818;stroke-width:1.0;" x1="53.5" x2="450.5" y1="851.3984" y2="851.3984"/><text fill="#000000" font-family="sans-serif" font-size="13" font-weight="bold" lengthAdjust="spacing" textLength="14" x="60.5" y="846.542">24</text><text fill="#000000" font-family="sans-serif" font-size="13" lengthAdjust="spacing" textLength="94" x="78.5" y="846.542">answer question</text><line style="stroke:#181818;stroke-width:1.0;" x1="466.5" x2="508.5" y1="881.75" y2="881.75"/><line style="stroke:#181818;stroke-width:1.0;" x1="508.5" x2="508.5" y1="881.75" y2="894.75"/><line style="stroke:#181818;stroke-width:1.0;" x1="467.5" x2="508.5" y1="894.75" y2="894.75"/><polygon fill="#181818" points="477.5,890.75,467.5,894.75,477.5,898.75,473.5,894.75" style="stroke:#181818;stroke-width:1.0;"/><text fill="#000000" font-family="sans-serif" font-size="13" font-weight="bold" lengthAdjust="spacing" textLength="14" x="473.5" y="876.8936">25</text><text fill="#000000" font-family="sans-serif" font-size="13" lengthAdjust="spacing" textLength="43" x="491.5" y="876.8936">validate</text><polygon fill="#181818" points="64.5,924.1016,54.5,928.1016,64.5,932.1016,60.5,928.1016" style="stroke:#181818;stroke-width:1.0;"/><line style="stroke:#181818;stroke-width:1.0;stroke-dasharray:2.0,2.0;" x1="58.5" x2="460.5" y1="928.1016" y2="928.1016"/><text fill="#000000" font-family="sans-serif" font-size="13" font-weight="bold" lengthAdjust="spacing" textLength="14" x="70.5" y="923.2451">26</text><text fill="#000000" font-family="sans-serif" font-size="13" lengthAdjust="spacing" textLength="83" x="88.5" y="923.2451">show question</text><path d="M471,907.75 L471,933.75 L528,933.75 L528,917.75 L518,907.75 L471,907.75 " fill="#FEFFDD" style="stroke:#181818;stroke-width:0.5;"/><path d="M518,907.75 L518,917.75 L528,917.75 L518,907.75 " fill="#FEFFDD" style="stroke:#181818;stroke-width:0.5;"/><text fill="#000000" font-family="sans-serif" font-size="13" lengthAdjust="spacing" textLength="36" x="477" y="926.2451">23=26</text><polygon fill="#181818" points="64.5,964.4531,54.5,968.4531,64.5,972.4531,60.5,968.4531" style="stroke:#181818;stroke-width:1.0;"/><line style="stroke:#181818;stroke-width:1.0;stroke-dasharray:2.0,2.0;" x1="58.5" x2="460.5" y1="968.4531" y2="968.4531"/><text fill="#000000" font-family="sans-serif" font-size="13" font-weight="bold" lengthAdjust="spacing" textLength="14" x="70.5" y="963.5967">27</text><text fill="#000000" font-family="sans-serif" font-size="13" lengthAdjust="spacing" textLength="160" x="88.5" y="963.5967">ask to submit questionnaire</text><polygon fill="#181818" points="444.5,994.8047,454.5,998.8047,444.5,1002.8047,448.5,998.8047" style="stroke:#181818;stroke-width:1.0;"/><line style="stroke:#181818;stroke-width:1.0;" x1="53.5" x2="450.5" y1="998.8047" y2="998.8047"/><text fill="#000000" font-family="sans-serif" font-size="13" font-weight="bold" lengthAdjust="spacing" textLength="14" x="60.5" y="993.9482">28</text><text fill="#000000" font-family="sans-serif" font-size="13" lengthAdjust="spacing" textLength="39" x="78.5" y="993.9482">submit</text><polygon fill="#181818" points="671.5,1025.1563,681.5,1029.1563,671.5,1033.1563,675.5,1029.1563" style="stroke:#181818;stroke-width:1.0;"/><line style="stroke:#181818;stroke-width:1.0;" x1="461.5" x2="677.5" y1="1029.1563" y2="1029.1563"/><text fill="#000000" font-family="sans-serif" font-size="13" font-weight="bold" lengthAdjust="spacing" textLength="14" x="468.5" y="1024.2998">29</text><text fill="#000000" font-family="sans-serif" font-size="13" lengthAdjust="spacing" textLength="180" x="486.5" y="1024.2998">submitAnswers(answers,email)</text><polygon fill="#181818" points="1629,1055.5078,1639,1059.5078,1629,1063.5078,1633,1059.5078" style="stroke:#181818;stroke-width:1.0;"/><line style="stroke:#181818;stroke-width:1.0;" x1="693.5" x2="1635" y1="1059.5078" y2="1059.5078"/><text fill="#000000" font-family="sans-serif" font-size="13" font-weight="bold" lengthAdjust="spacing" textLength="14" x="700.5" y="1054.6514">30</text><text fill="#000000" font-family="sans-serif" font-size="13" lengthAdjust="spacing" textLength="164" x="718.5" y="1054.6514">findCostumerByEmail(email)</text><polygon fill="#181818" points="704.5,1085.8594,694.5,1089.8594,704.5,1093.8594,700.5,1089.8594" style="stroke:#181818;stroke-width:1.0;"/><line style="stroke:#181818;stroke-width:1.0;stroke-dasharray:2.0,2.0;" x1="698.5" x2="1645" y1="1089.8594" y2="1089.8594"/><text fill="#000000" font-family="sans-serif" font-size="13" font-weight="bold" lengthAdjust="spacing" textLength="14" x="710.5" y="1085.0029">31</text><text fill="#000000" font-family="sans-serif" font-size="13" lengthAdjust="spacing" textLength="56" x="728.5" y="1085.0029">Customer</text><path d="M592.5,1104.8594 L665.5,1104.8594 L665.5,1113.2109 L655.5,1123.2109 L592.5,1123.2109 L592.5,1104.8594 " fill="#EEEEEE" style="stroke:#000000;stroke-width:1.5;"/><rect fill="none" height="151.6641" style="stroke:#000000;stroke-width:1.5;" width="982" x="592.5" y="1104.8594"/><text fill="#000000" font-family="sans-serif" font-size="13" font-weight="bold" lengthAdjust="spacing" textLength="28" x="607.5" y="1119.3545">loop</text><text fill="#000000" font-family="sans-serif" font-size="11" font-weight="bold" lengthAdjust="spacing" textLength="84" x="680.5" y="1118.2783">[for all answer]</text><polygon fill="#181818" points="1354.5,1141.5625,1364.5,1145.5625,1354.5,1149.5625,1358.5,1145.5625" style="stroke:#181818;stroke-width:1.0;"/><line style="stroke:#181818;stroke-width:1.0;" x1="693.5" x2="1360.5" y1="1145.5625" y2="1145.5625"/><text fill="#000000" font-family="sans-serif" font-size="13" font-weight="bold" lengthAdjust="spacing" textLength="14" x="700.5" y="1140.7061">32</text><text fill="#000000" font-family="sans-serif" font-size="13" lengthAdjust="spacing" textLength="36" x="718.5" y="1140.7061">create</text><rect fill="#E2E2F0" height="31.6094" rx="2.5" ry="2.5" style="stroke:#181818;stroke-width:0.5;" width="60" x="1366.5" y="1123.2109"/><text fill="#000000" font-family="sans-serif" font-size="14" lengthAdjust="spacing" textLength="46" x="1373.5" y="1144.7441">Answer</text><polygon fill="#181818" points="894.5,1184.1719,904.5,1188.1719,894.5,1192.1719,898.5,1188.1719" style="stroke:#181818;stroke-width:1.0;"/><line style="stroke:#181818;stroke-width:1.0;" x1="688.5" x2="900.5" y1="1188.1719" y2="1188.1719"/><text fill="#000000" font-family="sans-serif" font-size="13" font-weight="bold" lengthAdjust="spacing" textLength="14" x="695.5" y="1183.3154">33</text><text fill="#000000" font-family="sans-serif" font-size="13" lengthAdjust="spacing" textLength="118" x="713.5" y="1183.3154">saveAnswer(answer)</text><polygon fill="#181818" points="1483.5,1214.5234,1493.5,1218.5234,1483.5,1222.5234,1487.5,1218.5234" style="stroke:#181818;stroke-width:1.0;"/><line style="stroke:#181818;stroke-width:1.0;" x1="916.5" x2="1489.5" y1="1218.5234" y2="1218.5234"/><text fill="#000000" font-family="sans-serif" font-size="13" font-weight="bold" lengthAdjust="spacing" textLength="14" x="923.5" y="1213.667">34</text><text fill="#000000" font-family="sans-serif" font-size="13" lengthAdjust="spacing" textLength="75" x="941.5" y="1213.667">save(answer)</text><!--MD5=[57ff1c2c9efda59f9515a27d536c1ac8]
@startuml
'https://plantuml.com/sequence-diagram

autonumber

actor Customer

participant QuestionnairesUI as UI

participant QuestionnairesController as C

participant QuestionnairesService as QS

participant QuestionnairesRepository as QR

participant QuestionnaireString as Q
'?????????????


participant Answer as A

participant AnswerRepository as AR




Customer -> UI: Show list questionnaires
activate UI

UI -> C : allQuestionnaires()
activate C

C ->QS:allQuestionnaires()
activate QS

QS ->QR:findQuestionnaires()
activate QR
QS <- - QR:Iterable<Questionnaires>
deactivate QR
C <- - QS:Iterable<Questionnaires>
deactivate QS
C -> C: doList(Iterable<Questionnaires>)
C - ->UI: List<String>
deactivate




UI - -> Customer: Show list and ask to view questionnaire or exit
deactivate
Customer -> UI: Selects 1 of the questionnaire

activate UI
UI -> C : questionnaireWithID(ID)
activate C

C ->QS:questionnaireWithID(ID)
activate QS

QS ->QR:findQuestionnaireWithID(ID)
activate QR
QS <- - QR:Questionnaires
deactivate QR
C <- - QS:Questionnaires
deactivate QS
C->Q:getQuestString()
activate Q
C<- -Q:String
deactivate Q
C- ->UI:String
deactivate C
deactivate QS
Customer <- - UI: Show entire questionnaire and asks if he/she wants to answer.
deactivate UI

Customer -> UI: answer
activate UI
UI -> C:organizeQuestioner(question)


activate C
UI <- - C:String[]
deactivate C
'aqui como é que é o activate e o desactivate
loop for every question on the questionnaire
    UI - -> Customer: show question
    deactivate
    Customer -> UI: answer question
    activate UI

    UI->UI:validate

    UI- ->Customer:show question
    note right
    23=26
    end note


    deactivate


end
UI - -> Customer: ask to submit questionnaire



deactivate UI
deactivate UI

Customer -> UI:submit
activate UI
UI -> C:submitAnswers(answers,email)
deactivate UI
activate C
C->CostumerRepository:findCostumerByEmail(email)
activate CostumerRepository
C<- -CostumerRepository:Customer
deactivate CostumerRepository
loop for all answer
C->A **: create
C->QS: saveAnswer(answer)
deactivate
activate QS
QS->AR:save(answer)
activate AR
deactivate AR
deactivate QS
end



@enduml

@startuml

autonumber

actor Customer

participant QuestionnairesUI as UI

participant QuestionnairesController as C

participant QuestionnairesService as QS

participant QuestionnairesRepository as QR

participant QuestionnaireString as Q


participant Answer as A

participant AnswerRepository as AR




Customer -> UI: Show list questionnaires
activate UI

UI -> C : allQuestionnaires()
activate C

C ->QS:allQuestionnaires()
activate QS

QS ->QR:findQuestionnaires()
activate QR
QS <- - QR:Iterable<Questionnaires>
deactivate QR
C <- - QS:Iterable<Questionnaires>
deactivate QS
C -> C: doList(Iterable<Questionnaires>)
C - ->UI: List<String>
deactivate




UI - -> Customer: Show list and ask to view questionnaire or exit
deactivate
Customer -> UI: Selects 1 of the questionnaire

activate UI
UI -> C : questionnaireWithID(ID)
activate C

C ->QS:questionnaireWithID(ID)
activate QS

QS ->QR:findQuestionnaireWithID(ID)
activate QR
QS <- - QR:Questionnaires
deactivate QR
C <- - QS:Questionnaires
deactivate QS
C->Q:getQuestString()
activate Q
C<- -Q:String
deactivate Q
C- ->UI:String
deactivate C
deactivate QS
Customer <- - UI: Show entire questionnaire and asks if he/she wants to answer.
deactivate UI

Customer -> UI: answer
activate UI
UI -> C:organizeQuestioner(question)


activate C
UI <- - C:String[]
deactivate C
loop for every question on the questionnaire
    UI - -> Customer: show question
    deactivate
    Customer -> UI: answer question
    activate UI

    UI->UI:validate

    UI- ->Customer:show question
    note right
    23=26
    end note


    deactivate


end
UI - -> Customer: ask to submit questionnaire



deactivate UI
deactivate UI

Customer -> UI:submit
activate UI
UI -> C:submitAnswers(answers,email)
deactivate UI
activate C
C->CostumerRepository:findCostumerByEmail(email)
activate CostumerRepository
C<- -CostumerRepository:Customer
deactivate CostumerRepository
loop for all answer
C->A **: create
C->QS: saveAnswer(answer)
deactivate
activate QS
QS->AR:save(answer)
activate AR
deactivate AR
deactivate QS
end



@enduml

PlantUML version 1.2022.4(Sat Apr 09 14:29:17 BST 2022)
(GPL source distribution)
Java Runtime: OpenJDK Runtime Environment
JVM: OpenJDK 64-Bit Server VM
Default Encoding: Cp1252
Language: pt
Country: PT
--></g></svg>