<?xml version="1.0" encoding="UTF-8" standalone="no"?><svg xmlns="http://www.w3.org/2000/svg" xmlns:xlink="http://www.w3.org/1999/xlink" contentStyleType="text/css" height="520px" preserveAspectRatio="none" style="width:531px;height:520px;background:#FFFFFF;" version="1.1" viewBox="0 0 531 520" width="531px" zoomAndPan="magnify"><defs/><g><rect fill="#FFFFFF" height="30.3516" style="stroke:#181818;stroke-width:1.0;" width="10" x="449.5" y="114.9609"/><rect fill="#FFFFFF" height="30.3516" style="stroke:#181818;stroke-width:1.0;" width="10" x="449.5" y="175.6641"/><rect fill="#FFFFFF" height="123.4063" style="stroke:#181818;stroke-width:1.0;" width="10" x="449.5" y="236.3672"/><rect fill="#FFFFFF" height="30.3516" style="stroke:#181818;stroke-width:1.0;" width="10" x="449.5" y="390.125"/><rect height="79.0547" style="stroke:#000000;stroke-width:1.5;fill:none;" width="515.5" x="10" y="251.3672"/><line style="stroke:#181818;stroke-width:0.5;fill:none;stroke-dasharray:5.0,5.0;" x1="53" x2="53" y1="82.6094" y2="438.4766"/><line style="stroke:#181818;stroke-width:0.5;fill:none;stroke-dasharray:5.0,5.0;" x1="454.5" x2="454.5" y1="82.6094" y2="438.4766"/><text fill="#000000" font-family="sans-serif" font-size="14" lengthAdjust="spacing" textLength="61" x="20" y="79.5332">Customer</text><ellipse cx="53.5" cy="13.5" fill="#E2E2F0" rx="8" ry="8" style="stroke:#181818;stroke-width:0.5;"/><path d="M53.5,21.5 L53.5,48.5 M40.5,29.5 L66.5,29.5 M53.5,48.5 L40.5,63.5 M53.5,48.5 L66.5,63.5 " fill="none" style="stroke:#181818;stroke-width:0.5;"/><text fill="#000000" font-family="sans-serif" font-size="14" lengthAdjust="spacing" textLength="61" x="20" y="452.0098">Customer</text><ellipse cx="53.5" cy="463.5859" fill="#E2E2F0" rx="8" ry="8" style="stroke:#181818;stroke-width:0.5;"/><path d="M53.5,471.5859 L53.5,498.5859 M40.5,479.5859 L66.5,479.5859 M53.5,498.5859 L40.5,513.5859 M53.5,498.5859 L66.5,513.5859 " fill="none" style="stroke:#181818;stroke-width:0.5;"/><rect fill="#E2E2F0" height="31.6094" rx="2.5" ry="2.5" style="stroke:#181818;stroke-width:0.5;" width="122" x="393.5" y="50"/><text fill="#000000" font-family="sans-serif" font-size="14" lengthAdjust="spacing" textLength="108" x="400.5" y="71.5332">QuestionnairesUI</text><rect fill="#E2E2F0" height="31.6094" rx="2.5" ry="2.5" style="stroke:#181818;stroke-width:0.5;" width="122" x="393.5" y="437.4766"/><text fill="#000000" font-family="sans-serif" font-size="14" lengthAdjust="spacing" textLength="108" x="400.5" y="459.0098">QuestionnairesUI</text><rect fill="#FFFFFF" height="30.3516" style="stroke:#181818;stroke-width:1.0;" width="10" x="449.5" y="114.9609"/><rect fill="#FFFFFF" height="30.3516" style="stroke:#181818;stroke-width:1.0;" width="10" x="449.5" y="175.6641"/><rect fill="#FFFFFF" height="123.4063" style="stroke:#181818;stroke-width:1.0;" width="10" x="449.5" y="236.3672"/><rect fill="#FFFFFF" height="30.3516" style="stroke:#181818;stroke-width:1.0;" width="10" x="449.5" y="390.125"/><polygon fill="#181818" points="437.5,110.9609,447.5,114.9609,437.5,118.9609,441.5,114.9609" style="stroke:#181818;stroke-width:1.0;"/><line style="stroke:#181818;stroke-width:1.0;" x1="53.5" x2="443.5" y1="114.9609" y2="114.9609"/><text fill="#000000" font-family="sans-serif" font-size="13" font-weight="bold" lengthAdjust="spacing" textLength="7" x="60.5" y="110.1045">1</text><text fill="#000000" font-family="sans-serif" font-size="13" lengthAdjust="spacing" textLength="141" x="71.5" y="110.1045">Show list questionnaires</text><polygon fill="#181818" points="64.5,141.3125,54.5,145.3125,64.5,149.3125,60.5,145.3125" style="stroke:#181818;stroke-width:1.0;"/><line style="stroke:#181818;stroke-width:1.0;stroke-dasharray:2.0,2.0;" x1="58.5" x2="453.5" y1="145.3125" y2="145.3125"/><text fill="#000000" font-family="sans-serif" font-size="13" font-weight="bold" lengthAdjust="spacing" textLength="7" x="70.5" y="140.4561">2</text><text fill="#000000" font-family="sans-serif" font-size="13" lengthAdjust="spacing" textLength="267" x="81.5" y="140.4561">Show list and ask to view questionnaire or exit</text><polygon fill="#181818" points="437.5,171.6641,447.5,175.6641,437.5,179.6641,441.5,175.6641" style="stroke:#181818;stroke-width:1.0;"/><line style="stroke:#181818;stroke-width:1.0;" x1="53.5" x2="443.5" y1="175.6641" y2="175.6641"/><text fill="#000000" font-family="sans-serif" font-size="13" font-weight="bold" lengthAdjust="spacing" textLength="7" x="60.5" y="170.8076">3</text><text fill="#000000" font-family="sans-serif" font-size="13" lengthAdjust="spacing" textLength="172" x="71.5" y="170.8076">Selects 1 of the questionnaire</text><polygon fill="#181818" points="64.5,202.0156,54.5,206.0156,64.5,210.0156,60.5,206.0156" style="stroke:#181818;stroke-width:1.0;"/><line style="stroke:#181818;stroke-width:1.0;stroke-dasharray:2.0,2.0;" x1="58.5" x2="453.5" y1="206.0156" y2="206.0156"/><text fill="#000000" font-family="sans-serif" font-size="13" font-weight="bold" lengthAdjust="spacing" textLength="7" x="70.5" y="201.1592">4</text><text fill="#000000" font-family="sans-serif" font-size="13" lengthAdjust="spacing" textLength="361" x="81.5" y="201.1592">Show entire questionnaire and asks if he/she wants to answer.</text><polygon fill="#181818" points="437.5,232.3672,447.5,236.3672,437.5,240.3672,441.5,236.3672" style="stroke:#181818;stroke-width:1.0;"/><line style="stroke:#181818;stroke-width:1.0;" x1="53.5" x2="443.5" y1="236.3672" y2="236.3672"/><text fill="#000000" font-family="sans-serif" font-size="13" font-weight="bold" lengthAdjust="spacing" textLength="7" x="60.5" y="231.5107">5</text><text fill="#000000" font-family="sans-serif" font-size="13" lengthAdjust="spacing" textLength="41" x="71.5" y="231.5107">answer</text><path d="M10,251.3672 L83,251.3672 L83,259.7188 L73,269.7188 L10,269.7188 L10,251.3672 " fill="#EEEEEE" style="stroke:#000000;stroke-width:1.5;"/><rect fill="none" height="79.0547" style="stroke:#000000;stroke-width:1.5;" width="515.5" x="10" y="251.3672"/><text fill="#000000" font-family="sans-serif" font-size="13" font-weight="bold" lengthAdjust="spacing" textLength="28" x="25" y="265.8623">loop</text><text fill="#000000" font-family="sans-serif" font-size="11" font-weight="bold" lengthAdjust="spacing" textLength="228" x="98" y="264.7861">[for every question on the questionnaire]</text><polygon fill="#181818" points="64.5,288.0703,54.5,292.0703,64.5,296.0703,60.5,292.0703" style="stroke:#181818;stroke-width:1.0;"/><line style="stroke:#181818;stroke-width:1.0;stroke-dasharray:2.0,2.0;" x1="58.5" x2="448.5" y1="292.0703" y2="292.0703"/><text fill="#000000" font-family="sans-serif" font-size="13" font-weight="bold" lengthAdjust="spacing" textLength="7" x="70.5" y="287.2139">6</text><text fill="#000000" font-family="sans-serif" font-size="13" lengthAdjust="spacing" textLength="83" x="81.5" y="287.2139">show question</text><polygon fill="#181818" points="437.5,318.4219,447.5,322.4219,437.5,326.4219,441.5,322.4219" style="stroke:#181818;stroke-width:1.0;"/><line style="stroke:#181818;stroke-width:1.0;" x1="53.5" x2="443.5" y1="322.4219" y2="322.4219"/><text fill="#000000" font-family="sans-serif" font-size="13" font-weight="bold" lengthAdjust="spacing" textLength="7" x="60.5" y="317.5654">7</text><text fill="#000000" font-family="sans-serif" font-size="13" lengthAdjust="spacing" textLength="94" x="71.5" y="317.5654">answer question</text><polygon fill="#181818" points="64.5,355.7734,54.5,359.7734,64.5,363.7734,60.5,359.7734" style="stroke:#181818;stroke-width:1.0;"/><line style="stroke:#181818;stroke-width:1.0;stroke-dasharray:2.0,2.0;" x1="58.5" x2="453.5" y1="359.7734" y2="359.7734"/><text fill="#000000" font-family="sans-serif" font-size="13" font-weight="bold" lengthAdjust="spacing" textLength="7" x="70.5" y="354.917">8</text><text fill="#000000" font-family="sans-serif" font-size="13" lengthAdjust="spacing" textLength="160" x="81.5" y="354.917">ask to submit questionnaire</text><polygon fill="#181818" points="437.5,386.125,447.5,390.125,437.5,394.125,441.5,390.125" style="stroke:#181818;stroke-width:1.0;"/><line style="stroke:#181818;stroke-width:1.0;" x1="53.5" x2="443.5" y1="390.125" y2="390.125"/><text fill="#000000" font-family="sans-serif" font-size="13" font-weight="bold" lengthAdjust="spacing" textLength="7" x="60.5" y="385.2686">9</text><text fill="#000000" font-family="sans-serif" font-size="13" lengthAdjust="spacing" textLength="39" x="71.5" y="385.2686">submit</text><polygon fill="#181818" points="64.5,416.4766,54.5,420.4766,64.5,424.4766,60.5,420.4766" style="stroke:#181818;stroke-width:1.0;"/><line style="stroke:#181818;stroke-width:1.0;stroke-dasharray:2.0,2.0;" x1="58.5" x2="453.5" y1="420.4766" y2="420.4766"/><text fill="#000000" font-family="sans-serif" font-size="13" font-weight="bold" lengthAdjust="spacing" textLength="14" x="70.5" y="415.6201">10</text><text fill="#000000" font-family="sans-serif" font-size="13" lengthAdjust="spacing" textLength="92" x="88.5" y="415.6201">submit success</text><!--MD5=[437c7e4a69745f0420c7c493b3038ceb]
@startuml
'https://plantuml.com/sequence-diagram

autonumber

actor Customer

participant QuestionnairesUI as UI








Customer -> UI: Show list questionnaires
activate UI


UI - -> Customer: Show list and ask to view questionnaire or exit
deactivate
Customer -> UI: Selects 1 of the questionnaire

activate UI


Customer <- - UI: Show entire questionnaire and asks if he/she wants to answer.
deactivate UI

Customer -> UI: answer
activate UI
'aqui como é que é o activate e o desactivate
loop for every question on the questionnaire
    UI - -> Customer: show question

    Customer -> UI: answer question



end

UI - -> Customer: ask to submit questionnaire
deactivate UI


deactivate UI
deactivate UI

Customer -> UI:submit
activate UI
 UI - -> Customer: submit success
deactivate UI



@enduml

@startuml

autonumber

actor Customer

participant QuestionnairesUI as UI








Customer -> UI: Show list questionnaires
activate UI


UI - -> Customer: Show list and ask to view questionnaire or exit
deactivate
Customer -> UI: Selects 1 of the questionnaire

activate UI


Customer <- - UI: Show entire questionnaire and asks if he/she wants to answer.
deactivate UI

Customer -> UI: answer
activate UI
loop for every question on the questionnaire
    UI - -> Customer: show question

    Customer -> UI: answer question



end

UI - -> Customer: ask to submit questionnaire
deactivate UI


deactivate UI
deactivate UI

Customer -> UI:submit
activate UI
 UI - -> Customer: submit success
deactivate UI



@enduml

PlantUML version 1.2022.4(Sat Apr 09 14:29:17 BST 2022)
(GPL source distribution)
Java Runtime: OpenJDK Runtime Environment
JVM: OpenJDK 64-Bit Server VM
Default Encoding: Cp1252
Language: pt
Country: PT
--></g></svg>